M48
; DRILL file {KiCad 9.0.7} date 2026-03-12T22:48:12-0700
; FORMAT={-:-/ absolute / metric / decimal}
; #@! TF.CreationDate,2026-03-12T22:48:12-07:00
; #@! TF.GenerationSoftware,Kicad,Pcbnew,9.0.7
; #@! TF.FileFunction,Plated,1,2,PTH
FMAT,2
METRIC
; #@! TA.AperFunction,Plated,PTH,ComponentDrill
T1C0.750
; #@! TA.AperFunction,Plated,PTH,ComponentDrill
T2C0.800
; #@! TA.AperFunction,Plated,PTH,ComponentDrill
T3C0.950
; #@! TA.AperFunction,Plated,PTH,ComponentDrill
T4C1.000
; #@! TA.AperFunction,Plated,PTH,ComponentDrill
T5C1.100
; #@! TA.AperFunction,Plated,PTH,ComponentDrill
T6C1.300
; #@! TA.AperFunction,Plated,PTH,ComponentDrill
T7C1.600
%
G90
G05
T1
X125.86Y-63.73
X125.86Y-65.0
X125.86Y-66.27
X126.86Y-81.73
X126.86Y-83.0
X126.86Y-84.27
X127.86Y-103.23
X127.86Y-104.5
X127.86Y-105.77
T2
X112.88Y-65.0
X113.88Y-83.0
X114.92Y-104.5
X120.5Y-65.0
X121.5Y-83.0
X122.54Y-104.5
X138.5Y-64.0
X138.5Y-71.62
X139.5Y-82.0
X139.5Y-89.62
X140.5Y-103.69
X140.5Y-111.31
T3
X86.0Y-111.5
X88.5Y-111.5
X91.0Y-111.5
X93.5Y-111.5
X96.0Y-111.5
X98.5Y-111.5
X101.0Y-111.5
X103.5Y-111.5
X106.0Y-111.5
T4
X88.76Y-58.84
X88.76Y-61.38
X88.76Y-63.92
X88.76Y-66.46
X88.76Y-69.0
X88.76Y-71.54
X88.76Y-74.08
X88.76Y-76.62
X88.76Y-79.16
X88.76Y-81.7
X88.76Y-84.24
X88.76Y-86.78
X88.76Y-89.32
X88.76Y-91.86
X88.76Y-94.4
X104.0Y-58.84
X104.0Y-61.38
X104.0Y-63.92
X104.0Y-66.46
X104.0Y-69.0
X104.0Y-71.54
X104.0Y-74.08
X104.0Y-76.62
X104.0Y-79.16
X104.0Y-81.7
X104.0Y-84.24
X104.0Y-86.78
X104.0Y-89.32
X104.0Y-91.86
X104.0Y-94.4
T5
X134.0Y-58.92
X134.0Y-61.46
X134.0Y-64.0
X134.95Y-76.96
X134.95Y-79.5
X134.95Y-82.04
X136.0Y-98.42
X136.0Y-100.96
X136.0Y-103.5
T6
X129.0Y-40.0
X134.0Y-40.0
X139.0Y-40.0
X173.5Y-71.0
X173.5Y-76.0
X173.5Y-81.0
T7
X153.5Y-50.88
X153.5Y-66.12
X153.5Y-71.88
X153.5Y-87.12
X153.5Y-93.88
X153.5Y-109.12
M30
