%TF.GenerationSoftware,KiCad,Pcbnew,9.0.7*%
%TF.CreationDate,2026-03-12T22:48:09-07:00*%
%TF.ProjectId,Solenoid control,536f6c65-6e6f-4696-9420-636f6e74726f,rev?*%
%TF.SameCoordinates,Original*%
%TF.FileFunction,Copper,L1,Top*%
%TF.FilePolarity,Positive*%
%FSLAX46Y46*%
G04 Gerber Fmt 4.6, Leading zero omitted, Abs format (unit mm)*
G04 Created by KiCad (PCBNEW 9.0.7) date 2026-03-12 22:48:09*
%MOMM*%
%LPD*%
G01*
G04 APERTURE LIST*
G04 Aperture macros list*
%AMRoundRect*
0 Rectangle with rounded corners*
0 $1 Rounding radius*
0 $2 $3 $4 $5 $6 $7 $8 $9 X,Y pos of 4 corners*
0 Add a 4 corners polygon primitive as box body*
4,1,4,$2,$3,$4,$5,$6,$7,$8,$9,$2,$3,0*
0 Add four circle primitives for the rounded corners*
1,1,$1+$1,$2,$3*
1,1,$1+$1,$4,$5*
1,1,$1+$1,$6,$7*
1,1,$1+$1,$8,$9*
0 Add four rect primitives between the rounded corners*
20,1,$1+$1,$2,$3,$4,$5,0*
20,1,$1+$1,$4,$5,$6,$7,0*
20,1,$1+$1,$6,$7,$8,$9,0*
20,1,$1+$1,$8,$9,$2,$3,0*%
G04 Aperture macros list end*
%TA.AperFunction,ComponentPad*%
%ADD10RoundRect,0.250000X1.350000X-1.350000X1.350000X1.350000X-1.350000X1.350000X-1.350000X-1.350000X0*%
%TD*%
%TA.AperFunction,ComponentPad*%
%ADD11C,3.200000*%
%TD*%
%TA.AperFunction,ComponentPad*%
%ADD12R,2.000000X1.905000*%
%TD*%
%TA.AperFunction,ComponentPad*%
%ADD13O,2.000000X1.905000*%
%TD*%
%TA.AperFunction,ComponentPad*%
%ADD14C,1.600000*%
%TD*%
%TA.AperFunction,ComponentPad*%
%ADD15R,1.500000X1.050000*%
%TD*%
%TA.AperFunction,ComponentPad*%
%ADD16O,1.500000X1.050000*%
%TD*%
%TA.AperFunction,ComponentPad*%
%ADD17RoundRect,0.250001X-1.149999X-1.149999X1.149999X-1.149999X1.149999X1.149999X-1.149999X1.149999X0*%
%TD*%
%TA.AperFunction,ComponentPad*%
%ADD18C,2.800000*%
%TD*%
%TA.AperFunction,ComponentPad*%
%ADD19RoundRect,0.250001X1.149999X-1.149999X1.149999X1.149999X-1.149999X1.149999X-1.149999X-1.149999X0*%
%TD*%
%TA.AperFunction,ComponentPad*%
%ADD20R,1.600000X1.600000*%
%TD*%
%TA.AperFunction,ComponentPad*%
%ADD21O,1.600000X1.600000*%
%TD*%
%TA.AperFunction,ComponentPad*%
%ADD22RoundRect,0.250000X0.600000X0.725000X-0.600000X0.725000X-0.600000X-0.725000X0.600000X-0.725000X0*%
%TD*%
%TA.AperFunction,ComponentPad*%
%ADD23O,1.700000X1.950000*%
%TD*%
%TA.AperFunction,Conductor*%
%ADD24C,2.000000*%
%TD*%
%TA.AperFunction,Conductor*%
%ADD25C,0.500000*%
%TD*%
%TA.AperFunction,Conductor*%
%ADD26C,0.300000*%
%TD*%
G04 APERTURE END LIST*
D10*
%TO.P,D2,1,K*%
%TO.N,+12V*%
X153500000Y-87120000D03*
D11*
%TO.P,D2,2,A*%
%TO.N,/SOL2_OUT*%
X153500000Y-71880000D03*
%TD*%
D12*
%TO.P,Q5,1,G*%
%TO.N,/LOCK_GATE*%
X134000000Y-64000000D03*
D13*
%TO.P,Q5,2,D*%
%TO.N,/LOCK_OUT*%
X134000000Y-61460000D03*
%TO.P,Q5,3,S*%
%TO.N,+12V*%
X134000000Y-58920000D03*
%TD*%
D14*
%TO.P,R3,1*%
%TO.N,/SOL2_CMD*%
X113880000Y-83000000D03*
%TO.P,R3,2*%
%TO.N,/SOL2_CTRL*%
X121500000Y-83000000D03*
%TD*%
%TO.P,R6,1*%
%TO.N,/LOCK_GATE*%
X138500000Y-64000000D03*
%TO.P,R6,2*%
%TO.N,+12V*%
X138500000Y-71620000D03*
%TD*%
D15*
%TO.P,Q4,1,E*%
%TO.N,GND*%
X126860000Y-84270000D03*
D16*
%TO.P,Q4,2,B*%
%TO.N,/SOL2_CTRL*%
X126860000Y-83000000D03*
%TO.P,Q4,3,C*%
%TO.N,/SOL2_GATE*%
X126860000Y-81730000D03*
%TD*%
D15*
%TO.P,Q6,1,E*%
%TO.N,GND*%
X125860000Y-66270000D03*
D16*
%TO.P,Q6,2,B*%
%TO.N,/LOCK_CTRL*%
X125860000Y-65000000D03*
%TO.P,Q6,3,C*%
%TO.N,/LOCK_GATE*%
X125860000Y-63730000D03*
%TD*%
D17*
%TO.P,J3,1,Pin_1*%
%TO.N,GND*%
X129000000Y-40000000D03*
D18*
%TO.P,J3,2,Pin_2*%
%TO.N,+5V*%
X134000000Y-40000000D03*
%TO.P,J3,3,Pin_3*%
%TO.N,+12V*%
X139000000Y-40000000D03*
%TD*%
D14*
%TO.P,R1,1*%
%TO.N,/SOL1_CMD*%
X114920000Y-104500000D03*
%TO.P,R1,2*%
%TO.N,/SOL1_CTRL*%
X122540000Y-104500000D03*
%TD*%
D15*
%TO.P,Q2,1,E*%
%TO.N,GND*%
X127860000Y-105770000D03*
D16*
%TO.P,Q2,2,B*%
%TO.N,/SOL1_CTRL*%
X127860000Y-104500000D03*
%TO.P,Q2,3,C*%
%TO.N,/SOL1_GATE*%
X127860000Y-103230000D03*
%TD*%
D14*
%TO.P,R5,1*%
%TO.N,/LOCK_CMD*%
X112880000Y-65000000D03*
%TO.P,R5,2*%
%TO.N,/LOCK_CTRL*%
X120500000Y-65000000D03*
%TD*%
D10*
%TO.P,D1,1,K*%
%TO.N,+12V*%
X153500000Y-109120000D03*
D11*
%TO.P,D1,2,A*%
%TO.N,/SOL1_OUT*%
X153500000Y-93880000D03*
%TD*%
D14*
%TO.P,R2,1*%
%TO.N,/SOL1_GATE*%
X140500000Y-103690000D03*
%TO.P,R2,2*%
%TO.N,+12V*%
X140500000Y-111310000D03*
%TD*%
D12*
%TO.P,Q3,1,G*%
%TO.N,/SOL2_GATE*%
X134950000Y-82040000D03*
D13*
%TO.P,Q3,2,D*%
%TO.N,/SOL2_OUT*%
X134950000Y-79500000D03*
%TO.P,Q3,3,S*%
%TO.N,+12V*%
X134950000Y-76960000D03*
%TD*%
D10*
%TO.P,D3,1,K*%
%TO.N,+12V*%
X153500000Y-66120000D03*
D11*
%TO.P,D3,2,A*%
%TO.N,/LOCK_OUT*%
X153500000Y-50880000D03*
%TD*%
D14*
%TO.P,R4,1*%
%TO.N,/SOL2_GATE*%
X139500000Y-82000000D03*
%TO.P,R4,2*%
%TO.N,+12V*%
X139500000Y-89620000D03*
%TD*%
D12*
%TO.P,Q1,1,G*%
%TO.N,/SOL1_GATE*%
X136000000Y-103500000D03*
D13*
%TO.P,Q1,2,D*%
%TO.N,/SOL1_OUT*%
X136000000Y-100960000D03*
%TO.P,Q1,3,S*%
%TO.N,+12V*%
X136000000Y-98420000D03*
%TD*%
D19*
%TO.P,J1,1,Pin_1*%
%TO.N,/SOL1_OUT*%
X173500000Y-81000000D03*
D18*
%TO.P,J1,2,Pin_2*%
%TO.N,/SOL2_OUT*%
X173500000Y-76000000D03*
%TO.P,J1,3,Pin_3*%
%TO.N,/LOCK_OUT*%
X173500000Y-71000000D03*
%TD*%
D20*
%TO.P,A1,1,D1/TX*%
%TO.N,unconnected-(A1-D1{slash}TX-Pad1)*%
X88760000Y-58840000D03*
D21*
%TO.P,A1,2,D0/RX*%
%TO.N,unconnected-(A1-D0{slash}RX-Pad2)*%
X88760000Y-61380000D03*
%TO.P,A1,3,~{RESET}*%
%TO.N,unconnected-(A1-~{RESET}-Pad3)*%
X88760000Y-63920000D03*
%TO.P,A1,4,GND*%
%TO.N,GND*%
X88760000Y-66460000D03*
%TO.P,A1,5,D2*%
%TO.N,/LOCK_CMD*%
X88760000Y-69000000D03*
%TO.P,A1,6,D3*%
%TO.N,/SOL2_CMD*%
X88760000Y-71540000D03*
%TO.P,A1,7,D4*%
%TO.N,/SOL1_CMD*%
X88760000Y-74080000D03*
%TO.P,A1,8,D5*%
%TO.N,/BRAKE_SW*%
X88760000Y-76620000D03*
%TO.P,A1,9,D6*%
%TO.N,/RPM_IN*%
X88760000Y-79160000D03*
%TO.P,A1,10,D7*%
%TO.N,/VSS_IN*%
X88760000Y-81700000D03*
%TO.P,A1,11,D8*%
%TO.N,/PRNDL_1*%
X88760000Y-84240000D03*
%TO.P,A1,12,D9*%
%TO.N,/PRNDL_2*%
X88760000Y-86780000D03*
%TO.P,A1,13,D10*%
%TO.N,/PRNDL_3*%
X88760000Y-89320000D03*
%TO.P,A1,14,D11*%
%TO.N,/PRNDL_4*%
X88760000Y-91860000D03*
%TO.P,A1,15,D12*%
%TO.N,unconnected-(A1-D12-Pad15)*%
X88760000Y-94400000D03*
%TO.P,A1,16,D13*%
%TO.N,unconnected-(A1-D13-Pad16)*%
X104000000Y-94400000D03*
%TO.P,A1,17,3V3*%
%TO.N,unconnected-(A1-3V3-Pad17)*%
X104000000Y-91860000D03*
%TO.P,A1,18,AREF*%
%TO.N,unconnected-(A1-AREF-Pad18)*%
X104000000Y-89320000D03*
%TO.P,A1,19,A0*%
%TO.N,/ATF_TEMP*%
X104000000Y-86780000D03*
%TO.P,A1,20,A1*%
%TO.N,/TPS*%
X104000000Y-84240000D03*
%TO.P,A1,21,A2*%
%TO.N,unconnected-(A1-A2-Pad21)*%
X104000000Y-81700000D03*
%TO.P,A1,22,A3*%
%TO.N,unconnected-(A1-A3-Pad22)*%
X104000000Y-79160000D03*
%TO.P,A1,23,A4*%
%TO.N,unconnected-(A1-A4-Pad23)*%
X104000000Y-76620000D03*
%TO.P,A1,24,A5*%
%TO.N,unconnected-(A1-A5-Pad24)*%
X104000000Y-74080000D03*
%TO.P,A1,25,A6*%
%TO.N,unconnected-(A1-A6-Pad25)*%
X104000000Y-71540000D03*
%TO.P,A1,26,A7*%
%TO.N,unconnected-(A1-A7-Pad26)*%
X104000000Y-69000000D03*
%TO.P,A1,27,+5V*%
%TO.N,+5V*%
X104000000Y-66460000D03*
%TO.P,A1,28,~{RESET}*%
%TO.N,unconnected-(A1-~{RESET}-Pad28)*%
X104000000Y-63920000D03*
%TO.P,A1,29,GND*%
%TO.N,GND*%
X104000000Y-61380000D03*
%TO.P,A1,30,VIN*%
%TO.N,unconnected-(A1-VIN-Pad30)*%
X104000000Y-58840000D03*
%TD*%
D22*
%TO.P,J2,1,Pin_1*%
%TO.N,/ATF_TEMP*%
X106000000Y-111500000D03*
D23*
%TO.P,J2,2,Pin_2*%
%TO.N,/TPS*%
X103500000Y-111500000D03*
%TO.P,J2,3,Pin_3*%
%TO.N,/PRNDL_4*%
X101000000Y-111500000D03*
%TO.P,J2,4,Pin_4*%
%TO.N,/PRNDL_3*%
X98500000Y-111500000D03*
%TO.P,J2,5,Pin_5*%
%TO.N,/PRNDL_2*%
X96000000Y-111500000D03*
%TO.P,J2,6,Pin_6*%
%TO.N,/PRNDL_1*%
X93500000Y-111500000D03*
%TO.P,J2,7,Pin_7*%
%TO.N,/VSS_IN*%
X91000000Y-111500000D03*
%TO.P,J2,8,Pin_8*%
%TO.N,/RPM_IN*%
X88500000Y-111500000D03*
%TO.P,J2,9,Pin_9*%
%TO.N,/BRAKE_SW*%
X86000000Y-111500000D03*
%TD*%
D24*
%TO.N,+12V*%
X139000000Y-40000000D02*
X139000000Y-43500000D01*
X139000000Y-43500000D02*
X134000000Y-48500000D01*
D25*
%TO.N,+5V*%
X134000000Y-40000000D02*
X107540000Y-66460000D01*
X107540000Y-66460000D02*
X104000000Y-66460000D01*
D26*
%TO.N,/RPM_IN*%
X85605000Y-108605000D02*
X88500000Y-111500000D01*
X88760000Y-79160000D02*
X85605000Y-82315000D01*
X85605000Y-82315000D02*
X85605000Y-108605000D01*
%TO.N,/PRNDL_3*%
X87609000Y-90471000D02*
X87609000Y-100609000D01*
X88760000Y-89320000D02*
X87609000Y-90471000D01*
X87609000Y-100609000D02*
X98500000Y-111500000D01*
%TO.N,/PRNDL_2*%
X87108000Y-88432000D02*
X87108000Y-102608000D01*
X87108000Y-102608000D02*
X96000000Y-111500000D01*
X88760000Y-86780000D02*
X87108000Y-88432000D01*
%TO.N,/SOL1_CMD*%
X93363240Y-70389000D02*
X103523240Y-80549000D01*
X87609000Y-71063240D02*
X88283240Y-70389000D01*
X115719999Y-83212239D02*
X115719999Y-103700001D01*
X113056760Y-80549000D02*
X115719999Y-83212239D01*
X87609000Y-72929000D02*
X87609000Y-71063240D01*
X88760000Y-74080000D02*
X87609000Y-72929000D01*
X115719999Y-103700001D02*
X114920000Y-104500000D01*
X88283240Y-70389000D02*
X93363240Y-70389000D01*
X103523240Y-80549000D02*
X113056760Y-80549000D01*
D24*
%TO.N,+12V*%
X118500000Y-93500000D02*
X118500000Y-103289842D01*
X136000000Y-93120000D02*
X139500000Y-89620000D01*
X144000000Y-66120000D02*
X138500000Y-71620000D01*
X142000000Y-87120000D02*
X139500000Y-89620000D01*
X118499000Y-64001000D02*
X118499000Y-65828842D01*
X126520158Y-111310000D02*
X140500000Y-111310000D01*
X118500000Y-103289842D02*
X126520158Y-111310000D01*
X118499000Y-65828842D02*
X123335079Y-70664921D01*
X136000000Y-98420000D02*
X136000000Y-93120000D01*
X142690000Y-109120000D02*
X140500000Y-111310000D01*
X153500000Y-66120000D02*
X144000000Y-66120000D01*
X136000000Y-96500000D02*
X136000000Y-98420000D01*
X129630158Y-76960000D02*
X134950000Y-76960000D01*
X118500000Y-93500000D02*
X133000000Y-93500000D01*
X118500000Y-75500000D02*
X118500000Y-93500000D01*
X134000000Y-48500000D02*
X118499000Y-64001000D01*
X153500000Y-109120000D02*
X142690000Y-109120000D01*
X123335079Y-70664921D02*
X118500000Y-75500000D01*
X138500000Y-71620000D02*
X138500000Y-73410000D01*
X123335079Y-70664921D02*
X129630158Y-76960000D01*
X134000000Y-48500000D02*
X134000000Y-58920000D01*
X138500000Y-73410000D02*
X134950000Y-76960000D01*
X153500000Y-87120000D02*
X142000000Y-87120000D01*
X133000000Y-93500000D02*
X136000000Y-96500000D01*
D26*
%TO.N,/SOL1_GATE*%
X135730000Y-103230000D02*
X136000000Y-103500000D01*
X127860000Y-103230000D02*
X135730000Y-103230000D01*
X136190000Y-103690000D02*
X136000000Y-103500000D01*
X140500000Y-103690000D02*
X136190000Y-103690000D01*
%TO.N,/SOL2_GATE*%
X139500000Y-82000000D02*
X134990000Y-82000000D01*
X134990000Y-82000000D02*
X134950000Y-82040000D01*
X126860000Y-81730000D02*
X134640000Y-81730000D01*
X134640000Y-81730000D02*
X134950000Y-82040000D01*
%TO.N,/LOCK_GATE*%
X125860000Y-63730000D02*
X133730000Y-63730000D01*
X138500000Y-64000000D02*
X134000000Y-64000000D01*
X133730000Y-63730000D02*
X134000000Y-64000000D01*
%TO.N,/ATF_TEMP*%
X106000000Y-88780000D02*
X106000000Y-111500000D01*
X104000000Y-86780000D02*
X106000000Y-88780000D01*
%TO.N,/TPS*%
X103500000Y-111500000D02*
X102849000Y-110849000D01*
X102849000Y-110849000D02*
X102849000Y-85391000D01*
X102849000Y-85391000D02*
X104000000Y-84240000D01*
%TO.N,/PRNDL_4*%
X101000000Y-111500000D02*
X101000000Y-104100000D01*
X101000000Y-104100000D02*
X88760000Y-91860000D01*
%TO.N,/PRNDL_1*%
X86607000Y-104607000D02*
X93500000Y-111500000D01*
X88760000Y-84240000D02*
X86607000Y-86393000D01*
X86607000Y-86393000D02*
X86607000Y-104607000D01*
%TO.N,/LOCK_CMD*%
X88760000Y-69000000D02*
X90149000Y-67611000D01*
X110269000Y-67611000D02*
X112880000Y-65000000D01*
X90149000Y-67611000D02*
X110269000Y-67611000D01*
%TO.N,/SOL2_CMD*%
X100220000Y-83000000D02*
X113880000Y-83000000D01*
X88760000Y-71540000D02*
X100220000Y-83000000D01*
%TO.N,/VSS_IN*%
X86106000Y-106606000D02*
X86106000Y-84354000D01*
X86106000Y-84354000D02*
X88760000Y-81700000D01*
X91000000Y-111500000D02*
X86106000Y-106606000D01*
%TO.N,/BRAKE_SW*%
X86000000Y-111500000D02*
X85104000Y-110604000D01*
X85104000Y-80276000D02*
X88760000Y-76620000D01*
X85104000Y-110604000D02*
X85104000Y-80276000D01*
%TO.N,/SOL1_CTRL*%
X127860000Y-104500000D02*
X122540000Y-104500000D01*
%TO.N,/SOL2_CTRL*%
X121500000Y-83000000D02*
X126860000Y-83000000D01*
%TO.N,/LOCK_CTRL*%
X120500000Y-65000000D02*
X125860000Y-65000000D01*
D24*
%TO.N,/SOL1_OUT*%
X167000000Y-81000000D02*
X173500000Y-81000000D01*
X154120000Y-93880000D02*
X167000000Y-81000000D01*
X153500000Y-93880000D02*
X146420000Y-100960000D01*
X153500000Y-93880000D02*
X154120000Y-93880000D01*
X146420000Y-100960000D02*
X136000000Y-100960000D01*
%TO.N,/SOL2_OUT*%
X145880000Y-79500000D02*
X134950000Y-79500000D01*
X153500000Y-71880000D02*
X145880000Y-79500000D01*
X153500000Y-71880000D02*
X169380000Y-71880000D01*
X169380000Y-71880000D02*
X173500000Y-76000000D01*
%TO.N,/LOCK_OUT*%
X173500000Y-70880000D02*
X173500000Y-71000000D01*
X153500000Y-50880000D02*
X142920000Y-61460000D01*
X153500000Y-50880000D02*
X173500000Y-70880000D01*
X142920000Y-61460000D02*
X134000000Y-61460000D01*
%TD*%
%TA.AperFunction,NonConductor*%
G36*
X177377397Y-35499368D02*
G01*
X177444334Y-35519398D01*
X177489816Y-35572437D01*
X177500756Y-35622601D01*
X177999225Y-116374593D01*
X177979954Y-116441752D01*
X177927434Y-116487832D01*
X177874591Y-116499356D01*
X80623364Y-116000632D01*
X80556426Y-115980604D01*
X80510943Y-115927566D01*
X80500000Y-115876634D01*
X80500000Y-80223273D01*
X84703500Y-80223273D01*
X84703500Y-110551273D01*
X84703500Y-110656727D01*
X84706391Y-110667516D01*
X84730793Y-110758589D01*
X84753670Y-110798212D01*
X84783520Y-110849913D01*
X84783522Y-110849915D01*
X84903351Y-110969744D01*
X84936836Y-111031067D01*
X84933601Y-111095742D01*
X84926599Y-111117290D01*
X84926598Y-111117297D01*
X84899500Y-111288389D01*
X84899500Y-111711611D01*
X84926598Y-111882701D01*
X84980127Y-112047445D01*
X85058768Y-112201788D01*
X85160586Y-112341928D01*
X85283072Y-112464414D01*
X85423212Y-112566232D01*
X85577555Y-112644873D01*
X85742299Y-112698402D01*
X85913389Y-112725500D01*
X85913390Y-112725500D01*
X86086610Y-112725500D01*
X86086611Y-112725500D01*
X86257701Y-112698402D01*
X86422445Y-112644873D01*
X86576788Y-112566232D01*
X86716928Y-112464414D01*
X86839414Y-112341928D01*
X86941232Y-112201788D01*
X87019873Y-112047445D01*
X87073402Y-111882701D01*
X87100500Y-111711611D01*
X87100500Y-111288389D01*
X87073402Y-111117299D01*
X87019873Y-110952555D01*
X86994787Y-110903322D01*
X86981892Y-110834654D01*
X87008168Y-110769913D01*
X87065274Y-110729656D01*
X87135080Y-110726664D01*
X87192954Y-110759347D01*
X87403351Y-110969744D01*
X87436836Y-111031067D01*
X87433601Y-111095742D01*
X87426599Y-111117290D01*
X87426598Y-111117297D01*
X87399500Y-111288389D01*
X87399500Y-111711611D01*
X87426598Y-111882701D01*
X87480127Y-112047445D01*
X87558768Y-112201788D01*
X87660586Y-112341928D01*
X87783072Y-112464414D01*
X87923212Y-112566232D01*
X88077555Y-112644873D01*
X88242299Y-112698402D01*
X88413389Y-112725500D01*
X88413390Y-112725500D01*
X88586610Y-112725500D01*
X88586611Y-112725500D01*
X88757701Y-112698402D01*
X88922445Y-112644873D01*
X89076788Y-112566232D01*
X89216928Y-112464414D01*
X89339414Y-112341928D01*
X89441232Y-112201788D01*
X89519873Y-112047445D01*
X89573402Y-111882701D01*
X89600500Y-111711611D01*
X89600500Y-111288389D01*
X89573402Y-111117299D01*
X89519873Y-110952555D01*
X89494787Y-110903322D01*
X89481892Y-110834654D01*
X89508168Y-110769913D01*
X89565274Y-110729656D01*
X89635080Y-110726664D01*
X89692954Y-110759347D01*
X89903351Y-110969744D01*
X89936836Y-111031067D01*
X89933601Y-111095742D01*
X89926599Y-111117290D01*
X89926598Y-111117297D01*
X89899500Y-111288389D01*
X89899500Y-111711611D01*
X89926598Y-111882701D01*
X89980127Y-112047445D01*
X90058768Y-112201788D01*
X90160586Y-112341928D01*
X90283072Y-112464414D01*
X90423212Y-112566232D01*
X90577555Y-112644873D01*
X90742299Y-112698402D01*
X90913389Y-112725500D01*
X90913390Y-112725500D01*
X91086610Y-112725500D01*
X91086611Y-112725500D01*
X91257701Y-112698402D01*
X91422445Y-112644873D01*
X91576788Y-112566232D01*
X91716928Y-112464414D01*
X91839414Y-112341928D01*
X91941232Y-112201788D01*
X92019873Y-112047445D01*
X92073402Y-111882701D01*
X92100500Y-111711611D01*
X92100500Y-111288389D01*
X92073402Y-111117299D01*
X92019873Y-110952555D01*
X91994787Y-110903322D01*
X91981892Y-110834654D01*
X92008168Y-110769913D01*
X92065274Y-110729656D01*
X92135080Y-110726664D01*
X92192954Y-110759347D01*
X92403351Y-110969744D01*
X92436836Y-111031067D01*
X92433601Y-111095742D01*
X92426599Y-111117290D01*
X92426598Y-111117297D01*
X92399500Y-111288389D01*
X92399500Y-111711611D01*
X92426598Y-111882701D01*
X92480127Y-112047445D01*
X92558768Y-112201788D01*
X92660586Y-112341928D01*
X92783072Y-112464414D01*
X92923212Y-112566232D01*
X93077555Y-112644873D01*
X93242299Y-112698402D01*
X93413389Y-112725500D01*
X93413390Y-112725500D01*
X93586610Y-112725500D01*
X93586611Y-112725500D01*
X93757701Y-112698402D01*
X93922445Y-112644873D01*
X94076788Y-112566232D01*
X94216928Y-112464414D01*
X94339414Y-112341928D01*
X94441232Y-112201788D01*
X94519873Y-112047445D01*
X94573402Y-111882701D01*
X94600500Y-111711611D01*
X94600500Y-111288389D01*
X94573402Y-111117299D01*
X94519873Y-110952555D01*
X94494787Y-110903322D01*
X94481892Y-110834654D01*
X94508168Y-110769913D01*
X94565274Y-110729656D01*
X94635080Y-110726664D01*
X94692954Y-110759347D01*
X94903351Y-110969744D01*
X94936836Y-111031067D01*
X94933601Y-111095742D01*
X94926599Y-111117290D01*
X94926598Y-111117297D01*
X94899500Y-111288389D01*
X94899500Y-111711611D01*
X94926598Y-111882701D01*
X94980127Y-112047445D01*
X95058768Y-112201788D01*
X95160586Y-112341928D01*
X95283072Y-112464414D01*
X95423212Y-112566232D01*
X95577555Y-112644873D01*
X95742299Y-112698402D01*
X95913389Y-112725500D01*
X95913390Y-112725500D01*
X96086610Y-112725500D01*
X96086611Y-112725500D01*
X96257701Y-112698402D01*
X96422445Y-112644873D01*
X96576788Y-112566232D01*
X96716928Y-112464414D01*
X96839414Y-112341928D01*
X96941232Y-112201788D01*
X97019873Y-112047445D01*
X97073402Y-111882701D01*
X97100500Y-111711611D01*
X97100500Y-111288389D01*
X97073402Y-111117299D01*
X97019873Y-110952555D01*
X96994787Y-110903322D01*
X96981892Y-110834654D01*
X97008168Y-110769913D01*
X97065274Y-110729656D01*
X97135080Y-110726664D01*
X97192954Y-110759347D01*
X97403351Y-110969744D01*
X97436836Y-111031067D01*
X97433601Y-111095742D01*
X97426599Y-111117290D01*
X97426598Y-111117297D01*
X97399500Y-111288389D01*
X97399500Y-111711611D01*
X97426598Y-111882701D01*
X97480127Y-112047445D01*
X97558768Y-112201788D01*
X97660586Y-112341928D01*
X97783072Y-112464414D01*
X97923212Y-112566232D01*
X98077555Y-112644873D01*
X98242299Y-112698402D01*
X98413389Y-112725500D01*
X98413390Y-112725500D01*
X98586610Y-112725500D01*
X98586611Y-112725500D01*
X98757701Y-112698402D01*
X98922445Y-112644873D01*
X99076788Y-112566232D01*
X99216928Y-112464414D01*
X99339414Y-112341928D01*
X99441232Y-112201788D01*
X99519873Y-112047445D01*
X99573402Y-111882701D01*
X99600500Y-111711611D01*
X99600500Y-111288389D01*
X99573402Y-111117299D01*
X99519873Y-110952555D01*
X99441232Y-110798212D01*
X99339414Y-110658072D01*
X99216928Y-110535586D01*
X99076788Y-110433768D01*
X98958179Y-110373334D01*
X98922447Y-110355128D01*
X98922446Y-110355127D01*
X98922445Y-110355127D01*
X98757701Y-110301598D01*
X98757699Y-110301597D01*
X98757698Y-110301597D01*
X98607099Y-110277745D01*
X98586611Y-110274500D01*
X98413389Y-110274500D01*
X98392901Y-110277745D01*
X98242301Y-110301597D01*
X98077555Y-110355126D01*
X98077553Y-110355127D01*
X98054454Y-110366896D01*
X97985785Y-110379790D01*
X97921045Y-110353511D01*
X97910483Y-110344090D01*
X88045819Y-100479426D01*
X88012334Y-100418103D01*
X88009500Y-100391745D01*
X88009500Y-95393945D01*
X88029185Y-95326906D01*
X88081989Y-95281151D01*
X88151147Y-95271207D01*
X88202390Y-95290842D01*
X88262402Y-95330941D01*
X88453580Y-95410130D01*
X88656530Y-95450499D01*
X88656534Y-95450500D01*
X88656535Y-95450500D01*
X88863466Y-95450500D01*
X88863467Y-95450499D01*
X89066420Y-95410130D01*
X89257598Y-95330941D01*
X89429655Y-95215977D01*
X89575977Y-95069655D01*
X89690941Y-94897598D01*
X89770130Y-94706420D01*
X89810500Y-94503465D01*
X89810500Y-94296535D01*
X89770130Y-94093580D01*
X89690941Y-93902402D01*
X89575977Y-93730345D01*
X89575975Y-93730342D01*
X89429657Y-93584024D01*
X89275508Y-93481026D01*
X89257598Y-93469059D01*
X89234687Y-93459569D01*
X89066420Y-93389870D01*
X89066412Y-93389868D01*
X88863469Y-93349500D01*
X88863465Y-93349500D01*
X88656535Y-93349500D01*
X88656530Y-93349500D01*
X88453587Y-93389868D01*
X88453579Y-93389870D01*
X88262403Y-93469058D01*
X88202390Y-93509157D01*
X88135712Y-93530034D01*
X88068332Y-93511549D01*
X88021642Y-93459569D01*
X88009500Y-93406054D01*
X88009500Y-92853945D01*
X88029185Y-92786906D01*
X88081989Y-92741151D01*
X88151147Y-92731207D01*
X88202390Y-92750842D01*
X88262402Y-92790941D01*
X88453580Y-92870130D01*
X88656530Y-92910499D01*
X88656534Y-92910500D01*
X88656535Y-92910500D01*
X88863466Y-92910500D01*
X88863467Y-92910499D01*
X89066420Y-92870130D01*
X89086967Y-92861618D01*
X89156435Y-92854147D01*
X89218915Y-92885420D01*
X89222104Y-92888497D01*
X100563181Y-104229574D01*
X100596666Y-104290897D01*
X100599500Y-104317255D01*
X100599500Y-110267958D01*
X100579815Y-110334997D01*
X100531794Y-110378443D01*
X100423213Y-110433766D01*
X100339622Y-110494500D01*
X100283072Y-110535586D01*
X100283070Y-110535588D01*
X100283069Y-110535588D01*
X100160588Y-110658069D01*
X100160588Y-110658070D01*
X100160586Y-110658072D01*
X100116859Y-110718256D01*
X100058768Y-110798211D01*
X99980128Y-110952552D01*
X99926597Y-111117302D01*
X99899500Y-111288389D01*
X99899500Y-111711611D01*
X99926598Y-111882701D01*
X99980127Y-112047445D01*
X100058768Y-112201788D01*
X100160586Y-112341928D01*
X100283072Y-112464414D01*
X100423212Y-112566232D01*
X100577555Y-112644873D01*
X100742299Y-112698402D01*
X100913389Y-112725500D01*
X100913390Y-112725500D01*
X101086610Y-112725500D01*
X101086611Y-112725500D01*
X101257701Y-112698402D01*
X101422445Y-112644873D01*
X101576788Y-112566232D01*
X101716928Y-112464414D01*
X101839414Y-112341928D01*
X101941232Y-112201788D01*
X102019873Y-112047445D01*
X102073402Y-111882701D01*
X102100500Y-111711611D01*
X102100500Y-111288389D01*
X102073402Y-111117299D01*
X102019873Y-110952555D01*
X101941232Y-110798212D01*
X101839414Y-110658072D01*
X101716928Y-110535586D01*
X101589480Y-110442989D01*
X101576786Y-110433766D01*
X101468206Y-110378443D01*
X101417409Y-110330469D01*
X101400500Y-110267958D01*
X101400500Y-104047273D01*
X101400499Y-104047270D01*
X101391623Y-104014143D01*
X101389346Y-104005644D01*
X101373207Y-103945412D01*
X101320480Y-103854087D01*
X89788497Y-92322104D01*
X89755012Y-92260781D01*
X89759996Y-92191089D01*
X89761619Y-92186966D01*
X89770128Y-92166424D01*
X89770130Y-92166420D01*
X89810500Y-91963465D01*
X89810500Y-91756535D01*
X89770130Y-91553580D01*
X89690941Y-91362402D01*
X89575977Y-91190345D01*
X89575975Y-91190342D01*
X89429657Y-91044024D01*
X89332113Y-90978848D01*
X89257598Y-90929059D01*
X89234687Y-90919569D01*
X89066420Y-90849870D01*
X89066412Y-90849868D01*
X88863469Y-90809500D01*
X88863465Y-90809500D01*
X88656535Y-90809500D01*
X88656530Y-90809500D01*
X88453587Y-90849868D01*
X88453579Y-90849870D01*
X88262403Y-90929058D01*
X88202390Y-90969157D01*
X88192690Y-90972194D01*
X88185011Y-90978848D01*
X88159912Y-90982456D01*
X88135712Y-90990034D01*
X88125912Y-90987345D01*
X88115853Y-90988792D01*
X88092786Y-90978257D01*
X88068332Y-90971549D01*
X88061541Y-90963988D01*
X88052297Y-90959767D01*
X88038587Y-90938434D01*
X88021642Y-90919569D01*
X88019010Y-90907972D01*
X88014523Y-90900989D01*
X88009500Y-90866054D01*
X88009500Y-90688254D01*
X88029185Y-90621215D01*
X88045815Y-90600577D01*
X88297896Y-90348495D01*
X88359217Y-90315012D01*
X88428908Y-90319996D01*
X88433027Y-90321617D01*
X88453575Y-90330128D01*
X88453580Y-90330130D01*
X88656530Y-90370499D01*
X88656534Y-90370500D01*
X88656535Y-90370500D01*
X88863466Y-90370500D01*
X88863467Y-90370499D01*
X89066420Y-90330130D01*
X89257598Y-90250941D01*
X89429655Y-90135977D01*
X89575977Y-89989655D01*
X89690941Y-89817598D01*
X89770130Y-89626420D01*
X89810500Y-89423465D01*
X89810500Y-89216535D01*
X89770130Y-89013580D01*
X89690941Y-88822402D01*
X89575977Y-88650345D01*
X89575975Y-88650342D01*
X89429657Y-88504024D01*
X89343626Y-88446541D01*
X89257598Y-88389059D01*
X89234687Y-88379569D01*
X89066420Y-88309870D01*
X89066412Y-88309868D01*
X88863469Y-88269500D01*
X88863465Y-88269500D01*
X88656535Y-88269500D01*
X88656530Y-88269500D01*
X88453587Y-88309868D01*
X88453579Y-88309870D01*
X88262403Y-88389058D01*
X88090342Y-88504024D01*
X87944024Y-88650342D01*
X87829058Y-88822403D01*
X87792951Y-88909574D01*
X87749871Y-89013579D01*
X87747539Y-89019208D01*
X87745296Y-89018279D01*
X87712851Y-89067775D01*
X87649035Y-89096223D01*
X87579969Y-89085653D01*
X87527582Y-89039422D01*
X87508500Y-88973330D01*
X87508500Y-88649254D01*
X87528185Y-88582215D01*
X87544815Y-88561577D01*
X88297896Y-87808495D01*
X88359217Y-87775012D01*
X88428908Y-87779996D01*
X88433027Y-87781617D01*
X88453575Y-87790128D01*
X88453580Y-87790130D01*
X88656530Y-87830499D01*
X88656534Y-87830500D01*
X88656535Y-87830500D01*
X88863466Y-87830500D01*
X88863467Y-87830499D01*
X89066420Y-87790130D01*
X89257598Y-87710941D01*
X89429655Y-87595977D01*
X89575977Y-87449655D01*
X89690941Y-87277598D01*
X89770130Y-87086420D01*
X89810500Y-86883465D01*
X89810500Y-86676535D01*
X89770130Y-86473580D01*
X89690941Y-86282402D01*
X89575977Y-86110345D01*
X89575975Y-86110342D01*
X89429657Y-85964024D01*
X89332113Y-85898848D01*
X89257598Y-85849059D01*
X89234687Y-85839569D01*
X89066420Y-85769870D01*
X89066412Y-85769868D01*
X88863469Y-85729500D01*
X88863465Y-85729500D01*
X88656535Y-85729500D01*
X88656530Y-85729500D01*
X88453587Y-85769868D01*
X88453579Y-85769870D01*
X88262403Y-85849058D01*
X88090342Y-85964024D01*
X87944024Y-86110342D01*
X87829058Y-86282403D01*
X87749870Y-86473579D01*
X87749868Y-86473587D01*
X87709500Y-86676530D01*
X87709500Y-86883469D01*
X87749868Y-87086412D01*
X87749870Y-87086420D01*
X87758380Y-87106966D01*
X87758382Y-87106969D01*
X87765851Y-87176438D01*
X87734576Y-87238917D01*
X87731502Y-87242103D01*
X87219181Y-87754425D01*
X87157858Y-87787910D01*
X87088167Y-87782926D01*
X87032233Y-87741055D01*
X87007816Y-87675590D01*
X87007500Y-87666744D01*
X87007500Y-86610254D01*
X87027185Y-86543215D01*
X87043814Y-86522578D01*
X88297896Y-85268495D01*
X88359217Y-85235012D01*
X88428909Y-85239996D01*
X88433027Y-85241617D01*
X88453575Y-85250128D01*
X88453580Y-85250130D01*
X88583176Y-85275908D01*
X88656530Y-85290499D01*
X88656534Y-85290500D01*
X88656535Y-85290500D01*
X88863466Y-85290500D01*
X88863467Y-85290499D01*
X89066420Y-85250130D01*
X89257598Y-85170941D01*
X89429655Y-85055977D01*
X89575977Y-84909655D01*
X89690941Y-84737598D01*
X89770130Y-84546420D01*
X89810500Y-84343465D01*
X89810500Y-84136535D01*
X89770130Y-83933580D01*
X89690941Y-83742402D01*
X89575977Y-83570345D01*
X89575975Y-83570342D01*
X89429657Y-83424024D01*
X89343626Y-83366541D01*
X89257598Y-83309059D01*
X89098118Y-83243000D01*
X89066420Y-83229870D01*
X89066412Y-83229868D01*
X88863469Y-83189500D01*
X88863465Y-83189500D01*
X88656535Y-83189500D01*
X88656530Y-83189500D01*
X88453587Y-83229868D01*
X88453579Y-83229870D01*
X88262403Y-83309058D01*
X88090342Y-83424024D01*
X87944024Y-83570342D01*
X87829058Y-83742403D01*
X87749870Y-83933579D01*
X87749868Y-83933587D01*
X87709500Y-84136530D01*
X87709500Y-84343469D01*
X87749868Y-84546412D01*
X87749870Y-84546420D01*
X87758382Y-84566969D01*
X87765851Y-84636438D01*
X87734576Y-84698917D01*
X87731502Y-84702103D01*
X86718181Y-85715425D01*
X86656858Y-85748910D01*
X86587166Y-85743926D01*
X86531233Y-85702054D01*
X86506816Y-85636590D01*
X86506500Y-85627744D01*
X86506500Y-84571254D01*
X86526185Y-84504215D01*
X86542814Y-84483578D01*
X88297896Y-82728495D01*
X88359217Y-82695012D01*
X88428909Y-82699996D01*
X88433027Y-82701617D01*
X88453575Y-82710128D01*
X88453580Y-82710130D01*
X88656530Y-82750499D01*
X88656534Y-82750500D01*
X88656535Y-82750500D01*
X88863466Y-82750500D01*
X88863467Y-82750499D01*
X89066420Y-82710130D01*
X89257598Y-82630941D01*
X89429655Y-82515977D01*
X89575977Y-82369655D01*
X89690941Y-82197598D01*
X89770130Y-82006420D01*
X89810500Y-81803465D01*
X89810500Y-81596535D01*
X89770130Y-81393580D01*
X89690941Y-81202402D01*
X89575977Y-81030345D01*
X89575975Y-81030342D01*
X89429657Y-80884024D01*
X89343626Y-80826541D01*
X89257598Y-80769059D01*
X89242108Y-80762643D01*
X89066420Y-80689870D01*
X89066412Y-80689868D01*
X88863469Y-80649500D01*
X88863465Y-80649500D01*
X88656535Y-80649500D01*
X88656530Y-80649500D01*
X88453587Y-80689868D01*
X88453579Y-80689870D01*
X88262403Y-80769058D01*
X88090342Y-80884024D01*
X87944024Y-81030342D01*
X87829058Y-81202403D01*
X87749870Y-81393579D01*
X87749868Y-81393587D01*
X87709500Y-81596530D01*
X87709500Y-81803469D01*
X87749868Y-82006412D01*
X87749870Y-82006420D01*
X87758382Y-82026969D01*
X87765851Y-82096438D01*
X87734576Y-82158917D01*
X87731502Y-82162103D01*
X86217181Y-83676425D01*
X86155858Y-83709910D01*
X86086166Y-83704926D01*
X86030233Y-83663054D01*
X86005816Y-83597590D01*
X86005500Y-83588744D01*
X86005500Y-82532253D01*
X86025185Y-82465214D01*
X86041814Y-82444577D01*
X88297896Y-80188494D01*
X88359217Y-80155011D01*
X88428909Y-80159995D01*
X88432969Y-80161592D01*
X88453580Y-80170130D01*
X88650950Y-80209389D01*
X88656530Y-80210499D01*
X88656534Y-80210500D01*
X88656535Y-80210500D01*
X88863466Y-80210500D01*
X88863467Y-80210499D01*
X89066420Y-80170130D01*
X89257598Y-80090941D01*
X89429655Y-79975977D01*
X89575977Y-79829655D01*
X89690941Y-79657598D01*
X89770130Y-79466420D01*
X89810500Y-79263465D01*
X89810500Y-79056535D01*
X89770130Y-78853580D01*
X89690941Y-78662402D01*
X89575977Y-78490345D01*
X89575975Y-78490342D01*
X89429657Y-78344024D01*
X89343626Y-78286541D01*
X89257598Y-78229059D01*
X89219265Y-78213181D01*
X89066420Y-78149870D01*
X89066412Y-78149868D01*
X88863469Y-78109500D01*
X88863465Y-78109500D01*
X88656535Y-78109500D01*
X88656530Y-78109500D01*
X88453587Y-78149868D01*
X88453579Y-78149870D01*
X88262403Y-78229058D01*
X88090342Y-78344024D01*
X87944024Y-78490342D01*
X87829058Y-78662403D01*
X87749870Y-78853579D01*
X87749868Y-78853587D01*
X87709500Y-79056530D01*
X87709500Y-79263469D01*
X87749867Y-79466412D01*
X87749870Y-79466420D01*
X87758383Y-79486973D01*
X87765850Y-79556442D01*
X87734574Y-79618921D01*
X87731502Y-79622104D01*
X85716181Y-81637426D01*
X85654858Y-81670911D01*
X85585166Y-81665927D01*
X85529233Y-81624055D01*
X85504816Y-81558591D01*
X85504500Y-81549745D01*
X85504500Y-80493253D01*
X85524185Y-80426214D01*
X85540814Y-80405577D01*
X88297896Y-77648494D01*
X88359217Y-77615011D01*
X88428909Y-77619995D01*
X88432969Y-77621592D01*
X88453580Y-77630130D01*
X88656530Y-77670499D01*
X88656534Y-77670500D01*
X88656535Y-77670500D01*
X88863466Y-77670500D01*
X88863467Y-77670499D01*
X89066420Y-77630130D01*
X89257598Y-77550941D01*
X89429655Y-77435977D01*
X89575977Y-77289655D01*
X89690941Y-77117598D01*
X89770130Y-76926420D01*
X89810500Y-76723465D01*
X89810500Y-76516535D01*
X89770130Y-76313580D01*
X89690941Y-76122402D01*
X89575977Y-75950345D01*
X89575975Y-75950342D01*
X89429657Y-75804024D01*
X89258729Y-75689815D01*
X89257598Y-75689059D01*
X89219265Y-75673181D01*
X89066420Y-75609870D01*
X89066412Y-75609868D01*
X88863469Y-75569500D01*
X88863465Y-75569500D01*
X88656535Y-75569500D01*
X88656530Y-75569500D01*
X88453587Y-75609868D01*
X88453579Y-75609870D01*
X88262403Y-75689058D01*
X88090342Y-75804024D01*
X87944024Y-75950342D01*
X87829058Y-76122403D01*
X87749870Y-76313579D01*
X87749868Y-76313587D01*
X87709500Y-76516530D01*
X87709500Y-76723469D01*
X87749867Y-76926412D01*
X87749870Y-76926420D01*
X87758383Y-76946973D01*
X87765850Y-77016442D01*
X87734574Y-77078921D01*
X87731502Y-77082104D01*
X84783522Y-80030084D01*
X84783520Y-80030087D01*
X84730794Y-80121409D01*
X84707219Y-80209389D01*
X84707220Y-80209390D01*
X84707219Y-80209394D01*
X84703500Y-80223273D01*
X80500000Y-80223273D01*
X80500000Y-71010509D01*
X87208500Y-71010509D01*
X87208500Y-72981726D01*
X87235793Y-73083589D01*
X87262156Y-73129250D01*
X87288520Y-73174913D01*
X87288522Y-73174915D01*
X87731502Y-73617895D01*
X87764987Y-73679218D01*
X87760003Y-73748910D01*
X87758384Y-73753025D01*
X87749871Y-73773579D01*
X87749869Y-73773583D01*
X87749867Y-73773587D01*
X87709500Y-73976530D01*
X87709500Y-74183469D01*
X87749868Y-74386412D01*
X87749870Y-74386420D01*
X87784664Y-74470421D01*
X87829059Y-74577598D01*
X87886541Y-74663626D01*
X87944024Y-74749657D01*
X88090342Y-74895975D01*
X88090345Y-74895977D01*
X88262402Y-75010941D01*
X88453580Y-75090130D01*
X88656530Y-75130499D01*
X88656534Y-75130500D01*
X88656535Y-75130500D01*
X88863466Y-75130500D01*
X88863467Y-75130499D01*
X89066420Y-75090130D01*
X89257598Y-75010941D01*
X89429655Y-74895977D01*
X89575977Y-74749655D01*
X89690941Y-74577598D01*
X89770130Y-74386420D01*
X89810500Y-74183465D01*
X89810500Y-73976535D01*
X89770130Y-73773580D01*
X89690941Y-73582402D01*
X89575977Y-73410345D01*
X89575975Y-73410342D01*
X89429657Y-73264024D01*
X89343626Y-73206541D01*
X89257598Y-73149059D01*
X89086974Y-73078384D01*
X89066420Y-73069870D01*
X89066412Y-73069868D01*
X88863469Y-73029500D01*
X88863465Y-73029500D01*
X88656535Y-73029500D01*
X88656530Y-73029500D01*
X88453587Y-73069867D01*
X88453583Y-73069869D01*
X88453581Y-73069869D01*
X88453580Y-73069870D01*
X88438786Y-73075997D01*
X88433025Y-73078384D01*
X88363555Y-73085850D01*
X88301077Y-73054573D01*
X88297895Y-73051502D01*
X88045819Y-72799426D01*
X88031115Y-72772498D01*
X88014523Y-72746680D01*
X88013631Y-72740479D01*
X88012334Y-72738103D01*
X88009500Y-72711745D01*
X88009500Y-72533945D01*
X88029185Y-72466906D01*
X88081989Y-72421151D01*
X88151147Y-72411207D01*
X88202390Y-72430842D01*
X88262402Y-72470941D01*
X88453580Y-72550130D01*
X88656530Y-72590499D01*
X88656534Y-72590500D01*
X88656535Y-72590500D01*
X88863466Y-72590500D01*
X88863467Y-72590499D01*
X89066420Y-72550130D01*
X89086967Y-72541618D01*
X89156435Y-72534147D01*
X89218915Y-72565420D01*
X89222104Y-72568497D01*
X99899519Y-83245912D01*
X99899520Y-83245913D01*
X99974087Y-83320480D01*
X100065413Y-83373207D01*
X100167273Y-83400500D01*
X100272727Y-83400500D01*
X103065522Y-83400500D01*
X103132561Y-83420185D01*
X103178316Y-83472989D01*
X103188260Y-83542147D01*
X103168625Y-83593390D01*
X103069058Y-83742403D01*
X102989870Y-83933579D01*
X102989868Y-83933587D01*
X102949500Y-84136530D01*
X102949500Y-84343469D01*
X102989868Y-84546412D01*
X102989870Y-84546420D01*
X102998382Y-84566969D01*
X103005851Y-84636438D01*
X102974576Y-84698917D01*
X102971502Y-84702103D01*
X102528522Y-85145084D01*
X102528520Y-85145087D01*
X102475793Y-85236412D01*
X102465210Y-85275909D01*
X102451734Y-85326203D01*
X102448500Y-85338272D01*
X102448500Y-110901726D01*
X102448501Y-110901734D01*
X102460750Y-110947452D01*
X102459086Y-111017302D01*
X102458906Y-111017860D01*
X102426598Y-111117295D01*
X102399500Y-111288389D01*
X102399500Y-111711611D01*
X102426598Y-111882701D01*
X102480127Y-112047445D01*
X102558768Y-112201788D01*
X102660586Y-112341928D01*
X102783072Y-112464414D01*
X102923212Y-112566232D01*
X103077555Y-112644873D01*
X103242299Y-112698402D01*
X103413389Y-112725500D01*
X103413390Y-112725500D01*
X103586610Y-112725500D01*
X103586611Y-112725500D01*
X103757701Y-112698402D01*
X103922445Y-112644873D01*
X104076788Y-112566232D01*
X104216928Y-112464414D01*
X104339414Y-112341928D01*
X104441232Y-112201788D01*
X104519873Y-112047445D01*
X104573402Y-111882701D01*
X104600500Y-111711611D01*
X104600500Y-111288389D01*
X104573402Y-111117299D01*
X104519873Y-110952555D01*
X104441232Y-110798212D01*
X104339414Y-110658072D01*
X104216928Y-110535586D01*
X104076788Y-110433768D01*
X103958179Y-110373334D01*
X103922447Y-110355128D01*
X103922446Y-110355127D01*
X103922445Y-110355127D01*
X103757701Y-110301598D01*
X103757699Y-110301597D01*
X103757698Y-110301597D01*
X103607099Y-110277745D01*
X103586611Y-110274500D01*
X103413389Y-110274500D01*
X103413386Y-110274500D01*
X103392895Y-110277745D01*
X103323602Y-110268788D01*
X103270151Y-110223791D01*
X103249513Y-110157039D01*
X103249500Y-110155271D01*
X103249500Y-95393945D01*
X103269185Y-95326906D01*
X103321989Y-95281151D01*
X103391147Y-95271207D01*
X103442390Y-95290842D01*
X103502402Y-95330941D01*
X103693580Y-95410130D01*
X103896530Y-95450499D01*
X103896534Y-95450500D01*
X103896535Y-95450500D01*
X104103466Y-95450500D01*
X104103467Y-95450499D01*
X104306420Y-95410130D01*
X104497598Y-95330941D01*
X104669655Y-95215977D01*
X104815977Y-95069655D01*
X104930941Y-94897598D01*
X105010130Y-94706420D01*
X105050500Y-94503465D01*
X105050500Y-94296535D01*
X105010130Y-94093580D01*
X104930941Y-93902402D01*
X104815977Y-93730345D01*
X104815975Y-93730342D01*
X104669657Y-93584024D01*
X104515508Y-93481026D01*
X104497598Y-93469059D01*
X104474687Y-93459569D01*
X104306420Y-93389870D01*
X104306412Y-93389868D01*
X104103469Y-93349500D01*
X104103465Y-93349500D01*
X103896535Y-93349500D01*
X103896530Y-93349500D01*
X103693587Y-93389868D01*
X103693579Y-93389870D01*
X103502403Y-93469058D01*
X103442390Y-93509157D01*
X103375712Y-93530034D01*
X103308332Y-93511549D01*
X103261642Y-93459569D01*
X103249500Y-93406054D01*
X103249500Y-92853945D01*
X103269185Y-92786906D01*
X103321989Y-92741151D01*
X103391147Y-92731207D01*
X103442390Y-92750842D01*
X103502402Y-92790941D01*
X103693580Y-92870130D01*
X103896530Y-92910499D01*
X103896534Y-92910500D01*
X103896535Y-92910500D01*
X104103466Y-92910500D01*
X104103467Y-92910499D01*
X104306420Y-92870130D01*
X104497598Y-92790941D01*
X104669655Y-92675977D01*
X104815977Y-92529655D01*
X104930941Y-92357598D01*
X105010130Y-92166420D01*
X105050500Y-91963465D01*
X105050500Y-91756535D01*
X105010130Y-91553580D01*
X104930941Y-91362402D01*
X104815977Y-91190345D01*
X104815975Y-91190342D01*
X104669657Y-91044024D01*
X104572113Y-90978848D01*
X104497598Y-90929059D01*
X104474687Y-90919569D01*
X104306420Y-90849870D01*
X104306412Y-90849868D01*
X104103469Y-90809500D01*
X104103465Y-90809500D01*
X103896535Y-90809500D01*
X103896530Y-90809500D01*
X103693587Y-90849868D01*
X103693579Y-90849870D01*
X103502403Y-90929058D01*
X103442390Y-90969157D01*
X103375712Y-90990034D01*
X103308332Y-90971549D01*
X103261642Y-90919569D01*
X103249500Y-90866054D01*
X103249500Y-90313945D01*
X103269185Y-90246906D01*
X103321989Y-90201151D01*
X103391147Y-90191207D01*
X103442390Y-90210842D01*
X103502402Y-90250941D01*
X103693580Y-90330130D01*
X103896530Y-90370499D01*
X103896534Y-90370500D01*
X103896535Y-90370500D01*
X104103466Y-90370500D01*
X104103467Y-90370499D01*
X104306420Y-90330130D01*
X104497598Y-90250941D01*
X104669655Y-90135977D01*
X104815977Y-89989655D01*
X104930941Y-89817598D01*
X105010130Y-89626420D01*
X105050500Y-89423465D01*
X105050500Y-89216535D01*
X105010130Y-89013580D01*
X104930941Y-88822402D01*
X104815977Y-88650345D01*
X104815975Y-88650342D01*
X104669657Y-88504024D01*
X104583626Y-88446541D01*
X104497598Y-88389059D01*
X104474687Y-88379569D01*
X104306420Y-88309870D01*
X104306412Y-88309868D01*
X104103469Y-88269500D01*
X104103465Y-88269500D01*
X103896535Y-88269500D01*
X103896530Y-88269500D01*
X103693587Y-88309868D01*
X103693579Y-88309870D01*
X103502403Y-88389058D01*
X103442390Y-88429157D01*
X103375712Y-88450034D01*
X103308332Y-88431549D01*
X103261642Y-88379569D01*
X103249500Y-88326054D01*
X103249500Y-87773945D01*
X103269185Y-87706906D01*
X103321989Y-87661151D01*
X103391147Y-87651207D01*
X103442390Y-87670842D01*
X103502402Y-87710941D01*
X103693580Y-87790130D01*
X103896530Y-87830499D01*
X103896534Y-87830500D01*
X103896535Y-87830500D01*
X104103466Y-87830500D01*
X104103467Y-87830499D01*
X104306420Y-87790130D01*
X104326967Y-87781618D01*
X104396435Y-87774147D01*
X104458915Y-87805420D01*
X104462104Y-87808497D01*
X105563181Y-88909574D01*
X105596666Y-88970897D01*
X105599500Y-88997255D01*
X105599500Y-110150500D01*
X105579815Y-110217539D01*
X105527011Y-110263294D01*
X105475501Y-110274500D01*
X105352130Y-110274500D01*
X105352123Y-110274501D01*
X105292516Y-110280908D01*
X105157671Y-110331202D01*
X105157664Y-110331206D01*
X105042455Y-110417452D01*
X105042452Y-110417455D01*
X104956206Y-110532664D01*
X104956202Y-110532671D01*
X104905908Y-110667517D01*
X104901090Y-110712335D01*
X104899501Y-110727123D01*
X104899500Y-110727135D01*
X104899500Y-112272870D01*
X104899501Y-112272876D01*
X104905908Y-112332483D01*
X104956202Y-112467328D01*
X104956206Y-112467335D01*
X105042452Y-112582544D01*
X105042455Y-112582547D01*
X105157664Y-112668793D01*
X105157671Y-112668797D01*
X105292517Y-112719091D01*
X105292516Y-112719091D01*
X105299444Y-112719835D01*
X105352127Y-112725500D01*
X106647872Y-112725499D01*
X106707483Y-112719091D01*
X106842331Y-112668796D01*
X106957546Y-112582546D01*
X107043796Y-112467331D01*
X107094091Y-112332483D01*
X107100500Y-112272873D01*
X107100499Y-110727128D01*
X107094091Y-110667517D01*
X107090568Y-110658072D01*
X107043797Y-110532671D01*
X107043793Y-110532664D01*
X106957547Y-110417455D01*
X106957544Y-110417452D01*
X106842335Y-110331206D01*
X106842328Y-110331202D01*
X106707482Y-110280908D01*
X106707483Y-110280908D01*
X106647883Y-110274501D01*
X106647881Y-110274500D01*
X106647873Y-110274500D01*
X106647865Y-110274500D01*
X106524500Y-110274500D01*
X106457461Y-110254815D01*
X106411706Y-110202011D01*
X106400500Y-110150500D01*
X106400500Y-88727275D01*
X106400500Y-88727273D01*
X106381112Y-88654916D01*
X106373207Y-88625412D01*
X106320480Y-88534087D01*
X105028496Y-87242103D01*
X104995012Y-87180781D01*
X104999996Y-87111089D01*
X105001619Y-87106966D01*
X105010128Y-87086424D01*
X105010130Y-87086420D01*
X105050500Y-86883465D01*
X105050500Y-86676535D01*
X105010130Y-86473580D01*
X104930941Y-86282402D01*
X104815977Y-86110345D01*
X104815975Y-86110342D01*
X104669657Y-85964024D01*
X104572113Y-85898848D01*
X104497598Y-85849059D01*
X104474687Y-85839569D01*
X104306420Y-85769870D01*
X104306412Y-85769868D01*
X104103469Y-85729500D01*
X104103465Y-85729500D01*
X103896535Y-85729500D01*
X103896530Y-85729500D01*
X103693587Y-85769868D01*
X103693579Y-85769870D01*
X103502403Y-85849058D01*
X103442390Y-85889157D01*
X103432690Y-85892194D01*
X103425011Y-85898848D01*
X103399912Y-85902456D01*
X103375712Y-85910034D01*
X103365912Y-85907345D01*
X103355853Y-85908792D01*
X103332786Y-85898257D01*
X103308332Y-85891549D01*
X103301541Y-85883988D01*
X103292297Y-85879767D01*
X103278587Y-85858434D01*
X103261642Y-85839569D01*
X103259010Y-85827972D01*
X103254523Y-85820989D01*
X103249500Y-85786054D01*
X103249500Y-85608254D01*
X103269185Y-85541215D01*
X103285815Y-85520577D01*
X103537896Y-85268495D01*
X103599217Y-85235012D01*
X103668908Y-85239996D01*
X103673027Y-85241617D01*
X103693575Y-85250128D01*
X103693580Y-85250130D01*
X103823176Y-85275908D01*
X103896530Y-85290499D01*
X103896534Y-85290500D01*
X103896535Y-85290500D01*
X104103466Y-85290500D01*
X104103467Y-85290499D01*
X104306420Y-85250130D01*
X104497598Y-85170941D01*
X104669655Y-85055977D01*
X104815977Y-84909655D01*
X104930941Y-84737598D01*
X105010130Y-84546420D01*
X105050500Y-84343465D01*
X105050500Y-84136535D01*
X105010130Y-83933580D01*
X104930941Y-83742402D01*
X104831374Y-83593389D01*
X104810498Y-83526713D01*
X104828983Y-83459333D01*
X104880962Y-83412643D01*
X104934478Y-83400500D01*
X112825985Y-83400500D01*
X112893024Y-83420185D01*
X112938779Y-83472989D01*
X112940544Y-83477043D01*
X112949058Y-83497596D01*
X112949059Y-83497597D01*
X112949062Y-83497604D01*
X113064022Y-83669655D01*
X113210342Y-83815975D01*
X113210345Y-83815977D01*
X113382402Y-83930941D01*
X113573580Y-84010130D01*
X113776530Y-84050499D01*
X113776534Y-84050500D01*
X113776535Y-84050500D01*
X113983466Y-84050500D01*
X113983467Y-84050499D01*
X114186420Y-84010130D01*
X114377598Y-83930941D01*
X114549655Y-83815977D01*
X114695977Y-83669655D01*
X114810941Y-83497598D01*
X114890130Y-83306420D01*
X114904211Y-83235631D01*
X114908920Y-83226626D01*
X114909646Y-83216488D01*
X114924842Y-83196188D01*
X114936595Y-83173720D01*
X114945427Y-83168690D01*
X114951518Y-83160555D01*
X114975275Y-83151693D01*
X114997311Y-83139146D01*
X115007459Y-83139689D01*
X115016982Y-83136138D01*
X115041759Y-83141528D01*
X115067080Y-83142885D01*
X115077141Y-83149225D01*
X115085255Y-83150990D01*
X115113509Y-83172141D01*
X115283180Y-83341812D01*
X115316665Y-83403135D01*
X115319499Y-83429493D01*
X115319499Y-103357290D01*
X115299814Y-103424329D01*
X115247010Y-103470084D01*
X115177852Y-103480028D01*
X115171308Y-103478907D01*
X115023469Y-103449500D01*
X115023465Y-103449500D01*
X114816535Y-103449500D01*
X114816530Y-103449500D01*
X114613587Y-103489868D01*
X114613579Y-103489870D01*
X114422403Y-103569058D01*
X114250342Y-103684024D01*
X114104024Y-103830342D01*
X113989058Y-104002403D01*
X113909870Y-104193579D01*
X113909868Y-104193587D01*
X113869500Y-104396530D01*
X113869500Y-104603469D01*
X113909868Y-104806412D01*
X113909870Y-104806420D01*
X113978865Y-104972989D01*
X113989059Y-104997598D01*
X114027507Y-105055140D01*
X114104024Y-105169657D01*
X114250342Y-105315975D01*
X114250345Y-105315977D01*
X114422402Y-105430941D01*
X114613580Y-105510130D01*
X114796732Y-105546561D01*
X114816530Y-105550499D01*
X114816534Y-105550500D01*
X114816535Y-105550500D01*
X115023466Y-105550500D01*
X115023467Y-105550499D01*
X115226420Y-105510130D01*
X115417598Y-105430941D01*
X115589655Y-105315977D01*
X115735977Y-105169655D01*
X115850941Y-104997598D01*
X115930130Y-104806420D01*
X115970500Y-104603465D01*
X115970500Y-104396535D01*
X115930130Y-104193580D01*
X115921616Y-104173027D01*
X115920142Y-104159313D01*
X115914033Y-104146945D01*
X115916480Y-104125258D01*
X115914148Y-104103561D01*
X115920485Y-104089780D01*
X115921870Y-104077516D01*
X115935352Y-104057453D01*
X115940041Y-104047259D01*
X115944029Y-104042362D01*
X116040479Y-103945914D01*
X116079008Y-103879179D01*
X116093206Y-103854588D01*
X116120499Y-103752728D01*
X116120499Y-83274968D01*
X116120500Y-83274955D01*
X116120500Y-83159513D01*
X116117743Y-83149225D01*
X116093206Y-83057652D01*
X116093205Y-83057651D01*
X116093205Y-83057649D01*
X116093203Y-83057646D01*
X116071118Y-83019394D01*
X116071116Y-83019392D01*
X116065769Y-83010130D01*
X116040479Y-82966326D01*
X115965912Y-82891759D01*
X115965909Y-82891757D01*
X113302673Y-80228520D01*
X113257010Y-80202156D01*
X113211349Y-80175793D01*
X113135257Y-80155405D01*
X113109487Y-80148500D01*
X113109486Y-80148500D01*
X104796495Y-80148500D01*
X104729456Y-80128815D01*
X104683701Y-80076011D01*
X104673757Y-80006853D01*
X104702782Y-79943297D01*
X104708814Y-79936819D01*
X104815974Y-79829658D01*
X104815975Y-79829657D01*
X104815977Y-79829655D01*
X104930941Y-79657598D01*
X105010130Y-79466420D01*
X105050500Y-79263465D01*
X105050500Y-79056535D01*
X105010130Y-78853580D01*
X104930941Y-78662402D01*
X104815977Y-78490345D01*
X104815975Y-78490342D01*
X104669657Y-78344024D01*
X104583626Y-78286541D01*
X104497598Y-78229059D01*
X104459265Y-78213181D01*
X104306420Y-78149870D01*
X104306412Y-78149868D01*
X104103469Y-78109500D01*
X104103465Y-78109500D01*
X103896535Y-78109500D01*
X103896530Y-78109500D01*
X103693587Y-78149868D01*
X103693579Y-78149870D01*
X103502403Y-78229058D01*
X103330342Y-78344024D01*
X103184024Y-78490342D01*
X103069058Y-78662403D01*
X102989870Y-78853579D01*
X102989868Y-78853587D01*
X102949500Y-79056530D01*
X102949500Y-79109505D01*
X102929815Y-79176544D01*
X102877011Y-79222299D01*
X102807853Y-79232243D01*
X102744297Y-79203218D01*
X102737819Y-79197186D01*
X100057163Y-76516530D01*
X102949500Y-76516530D01*
X102949500Y-76723469D01*
X102989868Y-76926412D01*
X102989870Y-76926420D01*
X103069058Y-77117596D01*
X103184024Y-77289657D01*
X103330342Y-77435975D01*
X103330345Y-77435977D01*
X103502402Y-77550941D01*
X103693580Y-77630130D01*
X103896530Y-77670499D01*
X103896534Y-77670500D01*
X103896535Y-77670500D01*
X104103466Y-77670500D01*
X104103467Y-77670499D01*
X104306420Y-77630130D01*
X104497598Y-77550941D01*
X104669655Y-77435977D01*
X104815977Y-77289655D01*
X104930941Y-77117598D01*
X105010130Y-76926420D01*
X105050500Y-76723465D01*
X105050500Y-76516535D01*
X105010130Y-76313580D01*
X104930941Y-76122402D01*
X104815977Y-75950345D01*
X104815975Y-75950342D01*
X104669657Y-75804024D01*
X104498729Y-75689815D01*
X104497598Y-75689059D01*
X104459265Y-75673181D01*
X104306420Y-75609870D01*
X104306412Y-75609868D01*
X104103469Y-75569500D01*
X104103465Y-75569500D01*
X103896535Y-75569500D01*
X103896530Y-75569500D01*
X103693587Y-75609868D01*
X103693579Y-75609870D01*
X103502403Y-75689058D01*
X103330342Y-75804024D01*
X103184024Y-75950342D01*
X103069058Y-76122403D01*
X102989870Y-76313579D01*
X102989868Y-76313587D01*
X102949500Y-76516530D01*
X100057163Y-76516530D01*
X97517163Y-73976530D01*
X102949500Y-73976530D01*
X102949500Y-74183469D01*
X102989868Y-74386412D01*
X102989870Y-74386420D01*
X103024664Y-74470421D01*
X103069059Y-74577598D01*
X103126541Y-74663626D01*
X103184024Y-74749657D01*
X103330342Y-74895975D01*
X103330345Y-74895977D01*
X103502402Y-75010941D01*
X103693580Y-75090130D01*
X103896530Y-75130499D01*
X103896534Y-75130500D01*
X103896535Y-75130500D01*
X104103466Y-75130500D01*
X104103467Y-75130499D01*
X104306420Y-75090130D01*
X104497598Y-75010941D01*
X104669655Y-74895977D01*
X104815977Y-74749655D01*
X104930941Y-74577598D01*
X105010130Y-74386420D01*
X105050500Y-74183465D01*
X105050500Y-73976535D01*
X105010130Y-73773580D01*
X104930941Y-73582402D01*
X104815977Y-73410345D01*
X104815975Y-73410342D01*
X104669657Y-73264024D01*
X104583626Y-73206541D01*
X104497598Y-73149059D01*
X104326974Y-73078384D01*
X104306420Y-73069870D01*
X104306412Y-73069868D01*
X104103469Y-73029500D01*
X104103465Y-73029500D01*
X103896535Y-73029500D01*
X103896530Y-73029500D01*
X103693587Y-73069868D01*
X103693579Y-73069870D01*
X103502403Y-73149058D01*
X103330342Y-73264024D01*
X103184024Y-73410342D01*
X103069058Y-73582403D01*
X102989870Y-73773579D01*
X102989868Y-73773587D01*
X102949500Y-73976530D01*
X97517163Y-73976530D01*
X94977163Y-71436530D01*
X102949500Y-71436530D01*
X102949500Y-71643469D01*
X102989868Y-71846412D01*
X102989870Y-71846420D01*
X103044249Y-71977703D01*
X103069059Y-72037598D01*
X103111860Y-72101655D01*
X103184024Y-72209657D01*
X103330342Y-72355975D01*
X103330345Y-72355977D01*
X103502402Y-72470941D01*
X103693580Y-72550130D01*
X103896530Y-72590499D01*
X103896534Y-72590500D01*
X103896535Y-72590500D01*
X104103466Y-72590500D01*
X104103467Y-72590499D01*
X104306420Y-72550130D01*
X104497598Y-72470941D01*
X104669655Y-72355977D01*
X104815977Y-72209655D01*
X104930941Y-72037598D01*
X105010130Y-71846420D01*
X105050500Y-71643465D01*
X105050500Y-71436535D01*
X105010130Y-71233580D01*
X104930941Y-71042402D01*
X104815977Y-70870345D01*
X104815975Y-70870342D01*
X104669657Y-70724024D01*
X104528190Y-70629500D01*
X104497598Y-70609059D01*
X104459265Y-70593181D01*
X104306420Y-70529870D01*
X104306412Y-70529868D01*
X104103469Y-70489500D01*
X104103465Y-70489500D01*
X103896535Y-70489500D01*
X103896530Y-70489500D01*
X103693587Y-70529868D01*
X103693579Y-70529870D01*
X103502403Y-70609058D01*
X103330342Y-70724024D01*
X103184024Y-70870342D01*
X103069058Y-71042403D01*
X102989870Y-71233579D01*
X102989868Y-71233587D01*
X102949500Y-71436530D01*
X94977163Y-71436530D01*
X93609155Y-70068522D01*
X93609153Y-70068520D01*
X93541569Y-70029500D01*
X93517829Y-70015793D01*
X93466897Y-70002146D01*
X93415967Y-69988500D01*
X93415966Y-69988500D01*
X89556495Y-69988500D01*
X89489456Y-69968815D01*
X89443701Y-69916011D01*
X89433757Y-69846853D01*
X89462782Y-69783297D01*
X89468814Y-69776819D01*
X89575974Y-69669658D01*
X89575975Y-69669657D01*
X89575977Y-69669655D01*
X89690941Y-69497598D01*
X89770130Y-69306420D01*
X89810500Y-69103465D01*
X89810500Y-68896535D01*
X89770130Y-68693580D01*
X89761617Y-68673027D01*
X89754148Y-68603558D01*
X89785423Y-68541079D01*
X89788469Y-68537922D01*
X90278573Y-68047819D01*
X90339896Y-68014334D01*
X90366254Y-68011500D01*
X103203505Y-68011500D01*
X103270544Y-68031185D01*
X103316299Y-68083989D01*
X103326243Y-68153147D01*
X103297218Y-68216703D01*
X103291186Y-68223181D01*
X103184025Y-68330341D01*
X103184024Y-68330342D01*
X103069058Y-68502403D01*
X102989870Y-68693579D01*
X102989868Y-68693587D01*
X102949500Y-68896530D01*
X102949500Y-69103469D01*
X102989868Y-69306412D01*
X102989870Y-69306420D01*
X103069058Y-69497596D01*
X103184024Y-69669657D01*
X103330342Y-69815975D01*
X103330345Y-69815977D01*
X103502402Y-69930941D01*
X103693580Y-70010130D01*
X103817299Y-70034739D01*
X103896530Y-70050499D01*
X103896534Y-70050500D01*
X103896535Y-70050500D01*
X104103466Y-70050500D01*
X104103467Y-70050499D01*
X104306420Y-70010130D01*
X104497598Y-69930941D01*
X104669655Y-69815977D01*
X104815977Y-69669655D01*
X104930941Y-69497598D01*
X105010130Y-69306420D01*
X105050500Y-69103465D01*
X105050500Y-68896535D01*
X105010130Y-68693580D01*
X104930941Y-68502402D01*
X104815977Y-68330345D01*
X104815975Y-68330342D01*
X104708814Y-68223181D01*
X104675329Y-68161858D01*
X104680313Y-68092166D01*
X104722185Y-68036233D01*
X104787649Y-68011816D01*
X104796495Y-68011500D01*
X110321725Y-68011500D01*
X110321727Y-68011500D01*
X110423588Y-67984207D01*
X110514913Y-67931480D01*
X112417896Y-66028494D01*
X112479217Y-65995011D01*
X112548908Y-65999995D01*
X112552970Y-66001593D01*
X112573580Y-66010130D01*
X112756732Y-66046561D01*
X112776530Y-66050499D01*
X112776534Y-66050500D01*
X112776535Y-66050500D01*
X112983466Y-66050500D01*
X112983467Y-66050499D01*
X113186420Y-66010130D01*
X113377598Y-65930941D01*
X113549655Y-65815977D01*
X113695977Y-65669655D01*
X113810941Y-65497598D01*
X113890130Y-65306420D01*
X113930500Y-65103465D01*
X113930500Y-64896535D01*
X113890130Y-64693580D01*
X113810941Y-64502402D01*
X113695977Y-64330345D01*
X113695976Y-64330344D01*
X113695975Y-64330342D01*
X113549657Y-64184024D01*
X113377596Y-64069057D01*
X113240503Y-64012272D01*
X113186420Y-63989870D01*
X113186412Y-63989868D01*
X112983469Y-63949500D01*
X112983465Y-63949500D01*
X112776535Y-63949500D01*
X112776530Y-63949500D01*
X112573587Y-63989868D01*
X112573579Y-63989870D01*
X112382403Y-64069058D01*
X112210342Y-64184024D01*
X112064024Y-64330342D01*
X111949058Y-64502403D01*
X111869870Y-64693579D01*
X111869868Y-64693587D01*
X111829500Y-64896530D01*
X111829500Y-65103469D01*
X111869867Y-65306412D01*
X111869870Y-65306420D01*
X111878383Y-65326973D01*
X111885850Y-65396442D01*
X111854574Y-65458921D01*
X111851502Y-65462104D01*
X110139426Y-67174181D01*
X110078103Y-67207666D01*
X110051745Y-67210500D01*
X104993945Y-67210500D01*
X104984201Y-67207639D01*
X104974125Y-67208906D01*
X104951239Y-67197960D01*
X104926906Y-67190815D01*
X104920256Y-67183141D01*
X104911094Y-67178759D01*
X104897758Y-67157177D01*
X104881151Y-67138011D01*
X104879705Y-67127960D01*
X104874367Y-67119320D01*
X104874816Y-67093958D01*
X104871207Y-67068853D01*
X104875458Y-67057754D01*
X104875606Y-67049462D01*
X104890832Y-67017624D01*
X104892172Y-67015620D01*
X104945777Y-66970810D01*
X104995281Y-66960500D01*
X107605890Y-66960500D01*
X107605892Y-66960500D01*
X107733186Y-66926392D01*
X107847314Y-66860500D01*
X110805237Y-63902577D01*
X117248500Y-63902577D01*
X117248500Y-65927264D01*
X117279290Y-66121668D01*
X117340117Y-66308872D01*
X117429476Y-66484247D01*
X117545172Y-66643488D01*
X117545174Y-66643490D01*
X121478924Y-70577240D01*
X121512409Y-70638563D01*
X121507425Y-70708255D01*
X121478924Y-70752602D01*
X117546174Y-74685351D01*
X117546174Y-74685352D01*
X117546172Y-74685354D01*
X117505691Y-74741071D01*
X117430476Y-74844594D01*
X117341113Y-75019978D01*
X117305204Y-75130499D01*
X117305204Y-75130500D01*
X117300297Y-75145600D01*
X117280290Y-75207173D01*
X117249500Y-75401577D01*
X117249500Y-103388264D01*
X117280290Y-103582668D01*
X117341117Y-103769872D01*
X117416944Y-103918689D01*
X117430476Y-103945247D01*
X117546172Y-104104488D01*
X125705512Y-112263828D01*
X125864753Y-112379524D01*
X125947612Y-112421742D01*
X126040127Y-112468882D01*
X126040129Y-112468882D01*
X126040132Y-112468884D01*
X126140474Y-112501487D01*
X126227330Y-112529709D01*
X126421736Y-112560500D01*
X126421741Y-112560500D01*
X140598422Y-112560500D01*
X140792826Y-112529709D01*
X140980026Y-112468884D01*
X141155405Y-112379524D01*
X141314646Y-112263828D01*
X143171655Y-110406819D01*
X143232978Y-110373334D01*
X143259336Y-110370500D01*
X151525501Y-110370500D01*
X151592540Y-110390185D01*
X151638295Y-110442989D01*
X151649501Y-110494500D01*
X151649501Y-110517876D01*
X151655908Y-110577483D01*
X151706202Y-110712328D01*
X151706206Y-110712335D01*
X151792452Y-110827544D01*
X151792455Y-110827547D01*
X151907664Y-110913793D01*
X151907671Y-110913797D01*
X152042517Y-110964091D01*
X152042516Y-110964091D01*
X152049444Y-110964835D01*
X152102127Y-110970500D01*
X154897872Y-110970499D01*
X154957483Y-110964091D01*
X155092331Y-110913796D01*
X155207546Y-110827546D01*
X155293796Y-110712331D01*
X155344091Y-110577483D01*
X155350500Y-110517873D01*
X155350499Y-107722128D01*
X155344091Y-107662517D01*
X155293796Y-107527669D01*
X155293795Y-107527668D01*
X155293793Y-107527664D01*
X155207547Y-107412455D01*
X155207544Y-107412452D01*
X155092335Y-107326206D01*
X155092328Y-107326202D01*
X154957482Y-107275908D01*
X154957483Y-107275908D01*
X154897883Y-107269501D01*
X154897881Y-107269500D01*
X154897873Y-107269500D01*
X154897864Y-107269500D01*
X152102129Y-107269500D01*
X152102123Y-107269501D01*
X152042516Y-107275908D01*
X151907671Y-107326202D01*
X151907664Y-107326206D01*
X151792455Y-107412452D01*
X151792452Y-107412455D01*
X151706206Y-107527664D01*
X151706202Y-107527671D01*
X151655908Y-107662517D01*
X151649501Y-107722116D01*
X151649501Y-107722123D01*
X151649500Y-107722135D01*
X151649500Y-107745500D01*
X151629815Y-107812539D01*
X151577011Y-107858294D01*
X151525500Y-107869500D01*
X142591578Y-107869500D01*
X142397173Y-107900290D01*
X142209969Y-107961117D01*
X142034594Y-108050476D01*
X141943742Y-108116484D01*
X141875355Y-108166171D01*
X141875353Y-108166173D01*
X141875352Y-108166173D01*
X140018345Y-110023181D01*
X139957022Y-110056666D01*
X139930664Y-110059500D01*
X127089494Y-110059500D01*
X127022455Y-110039815D01*
X127001813Y-110023181D01*
X122712141Y-105733509D01*
X122678656Y-105672186D01*
X122683640Y-105602494D01*
X122725512Y-105546561D01*
X122775631Y-105524211D01*
X122798539Y-105519654D01*
X122846420Y-105510130D01*
X123037598Y-105430941D01*
X123209655Y-105315977D01*
X123355977Y-105169655D01*
X123470941Y-104997598D01*
X123479454Y-104977045D01*
X123523296Y-104922643D01*
X123589590Y-104900579D01*
X123594015Y-104900500D01*
X126806926Y-104900500D01*
X126873965Y-104920185D01*
X126919720Y-104972989D01*
X126929664Y-105042147D01*
X126910028Y-105093389D01*
X126894575Y-105116517D01*
X126874034Y-105147259D01*
X126874032Y-105147264D01*
X126859500Y-105220321D01*
X126859500Y-106319678D01*
X126874032Y-106392735D01*
X126874033Y-106392739D01*
X126874034Y-106392740D01*
X126929399Y-106475601D01*
X127012260Y-106530966D01*
X127012264Y-106530967D01*
X127085321Y-106545499D01*
X127085324Y-106545500D01*
X127085326Y-106545500D01*
X128634676Y-106545500D01*
X128634677Y-106545499D01*
X128707740Y-106530966D01*
X128790601Y-106475601D01*
X128845966Y-106392740D01*
X128860500Y-106319674D01*
X128860500Y-105220326D01*
X128860500Y-105220323D01*
X128860499Y-105220321D01*
X128845967Y-105147264D01*
X128845966Y-105147260D01*
X128845965Y-105147259D01*
X128790601Y-105064399D01*
X128789978Y-105063983D01*
X128788927Y-105062725D01*
X128781965Y-105055763D01*
X128782587Y-105055140D01*
X128745174Y-105010376D01*
X128736464Y-104941051D01*
X128755766Y-104891990D01*
X128772239Y-104867337D01*
X128830698Y-104726205D01*
X128860500Y-104576380D01*
X128860500Y-104423620D01*
X128830698Y-104273795D01*
X128772239Y-104132663D01*
X128772238Y-104132662D01*
X128772235Y-104132656D01*
X128687370Y-104005648D01*
X128687367Y-104005644D01*
X128634404Y-103952681D01*
X128632448Y-103949099D01*
X128628998Y-103946919D01*
X128615843Y-103918689D01*
X128600919Y-103891358D01*
X128601210Y-103887287D01*
X128599486Y-103883588D01*
X128603681Y-103852731D01*
X128605903Y-103821666D01*
X128608507Y-103817238D01*
X128608899Y-103814356D01*
X128617834Y-103801379D01*
X128627752Y-103784519D01*
X128630941Y-103780780D01*
X128687370Y-103724352D01*
X128717300Y-103679557D01*
X128722026Y-103674019D01*
X128745422Y-103658727D01*
X128766868Y-103640805D01*
X128775639Y-103638978D01*
X128780512Y-103635794D01*
X128791332Y-103635710D01*
X128816359Y-103630500D01*
X134625500Y-103630500D01*
X134692539Y-103650185D01*
X134738294Y-103702989D01*
X134749500Y-103754500D01*
X134749500Y-104477178D01*
X134764032Y-104550235D01*
X134764033Y-104550239D01*
X134764034Y-104550240D01*
X134819399Y-104633101D01*
X134902260Y-104688466D01*
X134902264Y-104688467D01*
X134975321Y-104702999D01*
X134975324Y-104703000D01*
X134975326Y-104703000D01*
X137024676Y-104703000D01*
X137024677Y-104702999D01*
X137097740Y-104688466D01*
X137180601Y-104633101D01*
X137235966Y-104550240D01*
X137250500Y-104477174D01*
X137250500Y-104214500D01*
X137270185Y-104147461D01*
X137322989Y-104101706D01*
X137374500Y-104090500D01*
X139445985Y-104090500D01*
X139513024Y-104110185D01*
X139558779Y-104162989D01*
X139560544Y-104167043D01*
X139569058Y-104187596D01*
X139569059Y-104187597D01*
X139569062Y-104187604D01*
X139684022Y-104359655D01*
X139830342Y-104505975D01*
X139830345Y-104505977D01*
X140002402Y-104620941D01*
X140193580Y-104700130D01*
X140324629Y-104726197D01*
X140396530Y-104740499D01*
X140396534Y-104740500D01*
X140396535Y-104740500D01*
X140603466Y-104740500D01*
X140603467Y-104740499D01*
X140806420Y-104700130D01*
X140997598Y-104620941D01*
X141169655Y-104505977D01*
X141315977Y-104359655D01*
X141430941Y-104187598D01*
X141510130Y-103996420D01*
X141550500Y-103793465D01*
X141550500Y-103586535D01*
X141510130Y-103383580D01*
X141430941Y-103192402D01*
X141315977Y-103020345D01*
X141315976Y-103020344D01*
X141315975Y-103020342D01*
X141169657Y-102874024D01*
X141071124Y-102808187D01*
X140997598Y-102759059D01*
X140904523Y-102720506D01*
X140806420Y-102679870D01*
X140806412Y-102679868D01*
X140603469Y-102639500D01*
X140603465Y-102639500D01*
X140396535Y-102639500D01*
X140396530Y-102639500D01*
X140193587Y-102679868D01*
X140193579Y-102679870D01*
X140002403Y-102759058D01*
X139830342Y-102874024D01*
X139684022Y-103020344D01*
X139569062Y-103192395D01*
X139569059Y-103192402D01*
X139560546Y-103212954D01*
X139516704Y-103267357D01*
X139450410Y-103289421D01*
X139445985Y-103289500D01*
X137374500Y-103289500D01*
X137307461Y-103269815D01*
X137261706Y-103217011D01*
X137250500Y-103165500D01*
X137250500Y-102522823D01*
X137250499Y-102522821D01*
X137235967Y-102449764D01*
X137235966Y-102449760D01*
X137204983Y-102403390D01*
X137184106Y-102336712D01*
X137202591Y-102269332D01*
X137254571Y-102222643D01*
X137308086Y-102210500D01*
X146518422Y-102210500D01*
X146712826Y-102179709D01*
X146717132Y-102178310D01*
X146900026Y-102118884D01*
X147075405Y-102029524D01*
X147234646Y-101913828D01*
X153381655Y-95766819D01*
X153442978Y-95733334D01*
X153469336Y-95730500D01*
X153621289Y-95730500D01*
X153669388Y-95724167D01*
X153861789Y-95698838D01*
X154096100Y-95636054D01*
X154320212Y-95543224D01*
X154530289Y-95421936D01*
X154722738Y-95274265D01*
X154894265Y-95102738D01*
X155041936Y-94910289D01*
X155163224Y-94700212D01*
X155220933Y-94560885D01*
X155247809Y-94520663D01*
X167481655Y-82286819D01*
X167542978Y-82253334D01*
X167569336Y-82250500D01*
X171767209Y-82250500D01*
X171834248Y-82270185D01*
X171880003Y-82322989D01*
X171883391Y-82331167D01*
X171906202Y-82392327D01*
X171906203Y-82392328D01*
X171906204Y-82392330D01*
X171992454Y-82507546D01*
X172107670Y-82593796D01*
X172107671Y-82593796D01*
X172107672Y-82593797D01*
X172242518Y-82644091D01*
X172242517Y-82644091D01*
X172249445Y-82644835D01*
X172302128Y-82650500D01*
X172302137Y-82650500D01*
X174697863Y-82650500D01*
X174697872Y-82650500D01*
X174757482Y-82644091D01*
X174892330Y-82593796D01*
X175007546Y-82507546D01*
X175093796Y-82392330D01*
X175144091Y-82257482D01*
X175150500Y-82197872D01*
X175150500Y-79802128D01*
X175144091Y-79742518D01*
X175099180Y-79622104D01*
X175093797Y-79607672D01*
X175093796Y-79607671D01*
X175093796Y-79607670D01*
X175007546Y-79492454D01*
X174892330Y-79406204D01*
X174892328Y-79406203D01*
X174892327Y-79406202D01*
X174757481Y-79355908D01*
X174757482Y-79355908D01*
X174697882Y-79349501D01*
X174697880Y-79349500D01*
X174697872Y-79349500D01*
X172302128Y-79349500D01*
X172302120Y-79349500D01*
X172302117Y-79349501D01*
X172242518Y-79355908D01*
X172107672Y-79406202D01*
X172107670Y-79406204D01*
X171992454Y-79492454D01*
X171906204Y-79607670D01*
X171906202Y-79607672D01*
X171883391Y-79668833D01*
X171841520Y-79724767D01*
X171776055Y-79749184D01*
X171767209Y-79749500D01*
X166901578Y-79749500D01*
X166707173Y-79780290D01*
X166519969Y-79841117D01*
X166344594Y-79930476D01*
X166326948Y-79943297D01*
X166185355Y-80046171D01*
X166185353Y-80046173D01*
X166185352Y-80046173D01*
X154155775Y-92075749D01*
X154094452Y-92109234D01*
X154036003Y-92107843D01*
X153861789Y-92061162D01*
X153861788Y-92061161D01*
X153861785Y-92061161D01*
X153621289Y-92029500D01*
X153621288Y-92029500D01*
X153378712Y-92029500D01*
X153378711Y-92029500D01*
X153138214Y-92061161D01*
X152903895Y-92123947D01*
X152679794Y-92216773D01*
X152679785Y-92216777D01*
X152469706Y-92338067D01*
X152277263Y-92485733D01*
X152277256Y-92485739D01*
X152105739Y-92657256D01*
X152105733Y-92657263D01*
X151958067Y-92849706D01*
X151958064Y-92849710D01*
X151958064Y-92849711D01*
X151955503Y-92854147D01*
X151836777Y-93059785D01*
X151836773Y-93059794D01*
X151743947Y-93283895D01*
X151681161Y-93518214D01*
X151649500Y-93758711D01*
X151649500Y-93910664D01*
X151629815Y-93977703D01*
X151613181Y-93998345D01*
X145938345Y-99673181D01*
X145877022Y-99706666D01*
X145850664Y-99709500D01*
X136734267Y-99709500D01*
X136667228Y-99689815D01*
X136621473Y-99637011D01*
X136611529Y-99567853D01*
X136640554Y-99504297D01*
X136661381Y-99485182D01*
X136814646Y-99373828D01*
X136953828Y-99234646D01*
X137069524Y-99075405D01*
X137158884Y-98900025D01*
X137219709Y-98712826D01*
X137250500Y-98518422D01*
X137250500Y-93689336D01*
X137270185Y-93622297D01*
X137286819Y-93601655D01*
X142481655Y-88406819D01*
X142542978Y-88373334D01*
X142569336Y-88370500D01*
X151525501Y-88370500D01*
X151592540Y-88390185D01*
X151638295Y-88442989D01*
X151649501Y-88494500D01*
X151649501Y-88517876D01*
X151655908Y-88577483D01*
X151706202Y-88712328D01*
X151706206Y-88712335D01*
X151792452Y-88827544D01*
X151792455Y-88827547D01*
X151907664Y-88913793D01*
X151907671Y-88913797D01*
X152042517Y-88964091D01*
X152042516Y-88964091D01*
X152049444Y-88964835D01*
X152102127Y-88970500D01*
X154897872Y-88970499D01*
X154957483Y-88964091D01*
X155092331Y-88913796D01*
X155207546Y-88827546D01*
X155293796Y-88712331D01*
X155344091Y-88577483D01*
X155350500Y-88517873D01*
X155350499Y-85722128D01*
X155344091Y-85662517D01*
X155323852Y-85608254D01*
X155293797Y-85527671D01*
X155293793Y-85527664D01*
X155207547Y-85412455D01*
X155207544Y-85412452D01*
X155092335Y-85326206D01*
X155092328Y-85326202D01*
X154957482Y-85275908D01*
X154957483Y-85275908D01*
X154897883Y-85269501D01*
X154897881Y-85269500D01*
X154897873Y-85269500D01*
X154897864Y-85269500D01*
X152102129Y-85269500D01*
X152102123Y-85269501D01*
X152042516Y-85275908D01*
X151907671Y-85326202D01*
X151907664Y-85326206D01*
X151792455Y-85412452D01*
X151792452Y-85412455D01*
X151706206Y-85527664D01*
X151706202Y-85527671D01*
X151655908Y-85662517D01*
X151649501Y-85722116D01*
X151649501Y-85722123D01*
X151649500Y-85722135D01*
X151649500Y-85745500D01*
X151629815Y-85812539D01*
X151577011Y-85858294D01*
X151525500Y-85869500D01*
X141901578Y-85869500D01*
X141707173Y-85900290D01*
X141519969Y-85961117D01*
X141344594Y-86050476D01*
X141262197Y-86110342D01*
X141185354Y-86166172D01*
X141185352Y-86166174D01*
X141185351Y-86166174D01*
X135046174Y-92305351D01*
X135046174Y-92305352D01*
X135046172Y-92305354D01*
X135020189Y-92341117D01*
X134930476Y-92464594D01*
X134841114Y-92639976D01*
X134792064Y-92790940D01*
X134780291Y-92827172D01*
X134780290Y-92827177D01*
X134749500Y-93021577D01*
X134749500Y-93181664D01*
X134729815Y-93248703D01*
X134677011Y-93294458D01*
X134607853Y-93304402D01*
X134544297Y-93275377D01*
X134537819Y-93269345D01*
X133814648Y-92546174D01*
X133814646Y-92546172D01*
X133655405Y-92430476D01*
X133480030Y-92341117D01*
X133292826Y-92280290D01*
X133098422Y-92249500D01*
X133098417Y-92249500D01*
X119874500Y-92249500D01*
X119807461Y-92229815D01*
X119761706Y-92177011D01*
X119750500Y-92125500D01*
X119750500Y-76069336D01*
X119770185Y-76002297D01*
X119786819Y-75981655D01*
X123247398Y-72521076D01*
X123308721Y-72487591D01*
X123378413Y-72492575D01*
X123422760Y-72521076D01*
X128815512Y-77913828D01*
X128974753Y-78029524D01*
X129003747Y-78044297D01*
X129150127Y-78118882D01*
X129150129Y-78118882D01*
X129150132Y-78118884D01*
X129245491Y-78149868D01*
X129337331Y-78179709D01*
X129531736Y-78210500D01*
X134215733Y-78210500D01*
X134282772Y-78230185D01*
X134328527Y-78282989D01*
X134338471Y-78352147D01*
X134309446Y-78415703D01*
X134288619Y-78434817D01*
X134135354Y-78546172D01*
X134135352Y-78546174D01*
X134135351Y-78546174D01*
X133996174Y-78685351D01*
X133996174Y-78685352D01*
X133996172Y-78685354D01*
X133946485Y-78753741D01*
X133880476Y-78844594D01*
X133791117Y-79019970D01*
X133730290Y-79207173D01*
X133699500Y-79401577D01*
X133699500Y-79598422D01*
X133730290Y-79792826D01*
X133791117Y-79980029D01*
X133840023Y-80076011D01*
X133880476Y-80155405D01*
X133996172Y-80314646D01*
X134135354Y-80453828D01*
X134294595Y-80569524D01*
X134359344Y-80602515D01*
X134410140Y-80650489D01*
X134426935Y-80718310D01*
X134404398Y-80784445D01*
X134349683Y-80827897D01*
X134303049Y-80837000D01*
X133925323Y-80837000D01*
X133852264Y-80851532D01*
X133852260Y-80851533D01*
X133769399Y-80906899D01*
X133714033Y-80989760D01*
X133714032Y-80989764D01*
X133699500Y-81062821D01*
X133699500Y-81205500D01*
X133679815Y-81272539D01*
X133627011Y-81318294D01*
X133575500Y-81329500D01*
X127816359Y-81329500D01*
X127749320Y-81309815D01*
X127713257Y-81274391D01*
X127687370Y-81235648D01*
X127687368Y-81235645D01*
X127579355Y-81127632D01*
X127579351Y-81127629D01*
X127452343Y-81042764D01*
X127452334Y-81042759D01*
X127311205Y-80984302D01*
X127311197Y-80984300D01*
X127161384Y-80954500D01*
X127161380Y-80954500D01*
X126558620Y-80954500D01*
X126558615Y-80954500D01*
X126408802Y-80984300D01*
X126408794Y-80984302D01*
X126267665Y-81042759D01*
X126267656Y-81042764D01*
X126140648Y-81127629D01*
X126140644Y-81127632D01*
X126032632Y-81235644D01*
X126032629Y-81235648D01*
X125947764Y-81362656D01*
X125947759Y-81362665D01*
X125889302Y-81503794D01*
X125889300Y-81503802D01*
X125859500Y-81653615D01*
X125859500Y-81806384D01*
X125889300Y-81956197D01*
X125889302Y-81956205D01*
X125947759Y-82097334D01*
X125947764Y-82097343D01*
X126032629Y-82224351D01*
X126032632Y-82224355D01*
X126085596Y-82277319D01*
X126087551Y-82280900D01*
X126091002Y-82283081D01*
X126104156Y-82311310D01*
X126119081Y-82338642D01*
X126118789Y-82342712D01*
X126120514Y-82346412D01*
X126116318Y-82377268D01*
X126114097Y-82408334D01*
X126111492Y-82412761D01*
X126111101Y-82415644D01*
X126102165Y-82428620D01*
X126092248Y-82445481D01*
X126089058Y-82449219D01*
X126032630Y-82505648D01*
X126002699Y-82550442D01*
X125997974Y-82555981D01*
X125974577Y-82571272D01*
X125953132Y-82589195D01*
X125944360Y-82591021D01*
X125939488Y-82594206D01*
X125928667Y-82594289D01*
X125903641Y-82599500D01*
X122554015Y-82599500D01*
X122486976Y-82579815D01*
X122441221Y-82527011D01*
X122439454Y-82522954D01*
X122436563Y-82515975D01*
X122430941Y-82502402D01*
X122430938Y-82502397D01*
X122430937Y-82502395D01*
X122315977Y-82330344D01*
X122169657Y-82184024D01*
X122049168Y-82103517D01*
X121997598Y-82069059D01*
X121895984Y-82026969D01*
X121806420Y-81989870D01*
X121806412Y-81989868D01*
X121603469Y-81949500D01*
X121603465Y-81949500D01*
X121396535Y-81949500D01*
X121396530Y-81949500D01*
X121193587Y-81989868D01*
X121193579Y-81989870D01*
X121002403Y-82069058D01*
X120830342Y-82184024D01*
X120684024Y-82330342D01*
X120569058Y-82502403D01*
X120489870Y-82693579D01*
X120489868Y-82693587D01*
X120449500Y-82896530D01*
X120449500Y-83103469D01*
X120489868Y-83306412D01*
X120489870Y-83306420D01*
X120558865Y-83472989D01*
X120569059Y-83497598D01*
X120607507Y-83555140D01*
X120684024Y-83669657D01*
X120830342Y-83815975D01*
X120830345Y-83815977D01*
X121002402Y-83930941D01*
X121193580Y-84010130D01*
X121396530Y-84050499D01*
X121396534Y-84050500D01*
X121396535Y-84050500D01*
X121603466Y-84050500D01*
X121603467Y-84050499D01*
X121806420Y-84010130D01*
X121997598Y-83930941D01*
X122169655Y-83815977D01*
X122315977Y-83669655D01*
X122430941Y-83497598D01*
X122439454Y-83477045D01*
X122483296Y-83422643D01*
X122549590Y-83400579D01*
X122554015Y-83400500D01*
X125806926Y-83400500D01*
X125873965Y-83420185D01*
X125919720Y-83472989D01*
X125929664Y-83542147D01*
X125910028Y-83593389D01*
X125907222Y-83597590D01*
X125874034Y-83647259D01*
X125874032Y-83647264D01*
X125859500Y-83720321D01*
X125859500Y-84819678D01*
X125874032Y-84892735D01*
X125874033Y-84892739D01*
X125874034Y-84892740D01*
X125929399Y-84975601D01*
X126012260Y-85030966D01*
X126012264Y-85030967D01*
X126085321Y-85045499D01*
X126085324Y-85045500D01*
X126085326Y-85045500D01*
X127634676Y-85045500D01*
X127634677Y-85045499D01*
X127707740Y-85030966D01*
X127790601Y-84975601D01*
X127845966Y-84892740D01*
X127860500Y-84819674D01*
X127860500Y-83720326D01*
X127860500Y-83720323D01*
X127860499Y-83720321D01*
X127845967Y-83647264D01*
X127845966Y-83647260D01*
X127812778Y-83597590D01*
X127790601Y-83564399D01*
X127789978Y-83563983D01*
X127788927Y-83562725D01*
X127781965Y-83555763D01*
X127782587Y-83555140D01*
X127745174Y-83510376D01*
X127736464Y-83441051D01*
X127755766Y-83391990D01*
X127772239Y-83367337D01*
X127830698Y-83226205D01*
X127860500Y-83076380D01*
X127860500Y-82923620D01*
X127830698Y-82773795D01*
X127772239Y-82632663D01*
X127772238Y-82632662D01*
X127772235Y-82632656D01*
X127687370Y-82505648D01*
X127687367Y-82505644D01*
X127634404Y-82452681D01*
X127632448Y-82449099D01*
X127628998Y-82446919D01*
X127615843Y-82418689D01*
X127600919Y-82391358D01*
X127601210Y-82387287D01*
X127599486Y-82383588D01*
X127603681Y-82352731D01*
X127605903Y-82321666D01*
X127608507Y-82317238D01*
X127608899Y-82314356D01*
X127617834Y-82301379D01*
X127627752Y-82284519D01*
X127630941Y-82280780D01*
X127687370Y-82224352D01*
X127717300Y-82179557D01*
X127722026Y-82174019D01*
X127745422Y-82158727D01*
X127766868Y-82140805D01*
X127775639Y-82138978D01*
X127780512Y-82135794D01*
X127791332Y-82135710D01*
X127816359Y-82130500D01*
X133575500Y-82130500D01*
X133642539Y-82150185D01*
X133688294Y-82202989D01*
X133699500Y-82254500D01*
X133699500Y-83017178D01*
X133714032Y-83090235D01*
X133714033Y-83090239D01*
X133722873Y-83103469D01*
X133769399Y-83173101D01*
X133848864Y-83226197D01*
X133852260Y-83228466D01*
X133852264Y-83228467D01*
X133925321Y-83242999D01*
X133925324Y-83243000D01*
X133925326Y-83243000D01*
X135974676Y-83243000D01*
X135974677Y-83242999D01*
X136047740Y-83228466D01*
X136130601Y-83173101D01*
X136185966Y-83090240D01*
X136200500Y-83017174D01*
X136200500Y-82524500D01*
X136220185Y-82457461D01*
X136272989Y-82411706D01*
X136324500Y-82400500D01*
X138445985Y-82400500D01*
X138513024Y-82420185D01*
X138558779Y-82472989D01*
X138560544Y-82477043D01*
X138569058Y-82497596D01*
X138569059Y-82497597D01*
X138569062Y-82497604D01*
X138684022Y-82669655D01*
X138830342Y-82815975D01*
X138830345Y-82815977D01*
X139002402Y-82930941D01*
X139193580Y-83010130D01*
X139396530Y-83050499D01*
X139396534Y-83050500D01*
X139396535Y-83050500D01*
X139603466Y-83050500D01*
X139603467Y-83050499D01*
X139806420Y-83010130D01*
X139997598Y-82930941D01*
X140169655Y-82815977D01*
X140315977Y-82669655D01*
X140430941Y-82497598D01*
X140510130Y-82306420D01*
X140550500Y-82103465D01*
X140550500Y-81896535D01*
X140510130Y-81693580D01*
X140430941Y-81502402D01*
X140315977Y-81330345D01*
X140315976Y-81330344D01*
X140315975Y-81330342D01*
X140169657Y-81184024D01*
X140007556Y-81075713D01*
X139997598Y-81069059D01*
X139982550Y-81062826D01*
X139934105Y-81042759D01*
X139806420Y-80989870D01*
X139806418Y-80989869D01*
X139804466Y-80989061D01*
X139750063Y-80945220D01*
X139727998Y-80878926D01*
X139745277Y-80811227D01*
X139796414Y-80763616D01*
X139851919Y-80750500D01*
X145978422Y-80750500D01*
X146172826Y-80719709D01*
X146177132Y-80718310D01*
X146360026Y-80658884D01*
X146535405Y-80569524D01*
X146694646Y-80453828D01*
X153381655Y-73766819D01*
X153442978Y-73733334D01*
X153469336Y-73730500D01*
X153621289Y-73730500D01*
X153669388Y-73724167D01*
X153861789Y-73698838D01*
X154096100Y-73636054D01*
X154320212Y-73543224D01*
X154530289Y-73421936D01*
X154722738Y-73274265D01*
X154830185Y-73166817D01*
X154891506Y-73133334D01*
X154917865Y-73130500D01*
X168810664Y-73130500D01*
X168877703Y-73150185D01*
X168898345Y-73166819D01*
X171818765Y-76087239D01*
X171852250Y-76148562D01*
X171853557Y-76155522D01*
X171890139Y-76386493D01*
X171970422Y-76633576D01*
X172016224Y-76723465D01*
X172088366Y-76865051D01*
X172241069Y-77075229D01*
X172424771Y-77258931D01*
X172634949Y-77411634D01*
X172782445Y-77486787D01*
X172866423Y-77529577D01*
X172866425Y-77529577D01*
X172866428Y-77529579D01*
X173113507Y-77609860D01*
X173241483Y-77630129D01*
X173370098Y-77650500D01*
X173370103Y-77650500D01*
X173629902Y-77650500D01*
X173758504Y-77630131D01*
X173886493Y-77609860D01*
X174133572Y-77529579D01*
X174365051Y-77411634D01*
X174575229Y-77258931D01*
X174758931Y-77075229D01*
X174911634Y-76865051D01*
X175029579Y-76633572D01*
X175109860Y-76386493D01*
X175132539Y-76243298D01*
X175150500Y-76129902D01*
X175150500Y-75870097D01*
X175125063Y-75709500D01*
X175109860Y-75613507D01*
X175029579Y-75366428D01*
X175029577Y-75366425D01*
X175029577Y-75366423D01*
X174986787Y-75282445D01*
X174911634Y-75134949D01*
X174758931Y-74924771D01*
X174575229Y-74741069D01*
X174365051Y-74588366D01*
X174292764Y-74551534D01*
X174133576Y-74470422D01*
X173886493Y-74390139D01*
X173655522Y-74353557D01*
X173592387Y-74323628D01*
X173587239Y-74318765D01*
X170194648Y-70926174D01*
X170194646Y-70926172D01*
X170035405Y-70810476D01*
X170018069Y-70801643D01*
X169860030Y-70721117D01*
X169672826Y-70660290D01*
X169478422Y-70629500D01*
X169478417Y-70629500D01*
X154917865Y-70629500D01*
X154850826Y-70609815D01*
X154830188Y-70593185D01*
X154722738Y-70485735D01*
X154722737Y-70485734D01*
X154722735Y-70485732D01*
X154530293Y-70338067D01*
X154530292Y-70338066D01*
X154530289Y-70338064D01*
X154320212Y-70216776D01*
X154320205Y-70216773D01*
X154096104Y-70123947D01*
X153978944Y-70092554D01*
X153861789Y-70061162D01*
X153861788Y-70061161D01*
X153861785Y-70061161D01*
X153621289Y-70029500D01*
X153621288Y-70029500D01*
X153378712Y-70029500D01*
X153378711Y-70029500D01*
X153138214Y-70061161D01*
X152903895Y-70123947D01*
X152679794Y-70216773D01*
X152679785Y-70216777D01*
X152469706Y-70338067D01*
X152277263Y-70485733D01*
X152277256Y-70485739D01*
X152105739Y-70657256D01*
X152105733Y-70657263D01*
X151958067Y-70849706D01*
X151836777Y-71059785D01*
X151836773Y-71059794D01*
X151743947Y-71283895D01*
X151681161Y-71518214D01*
X151649500Y-71758711D01*
X151649500Y-71910664D01*
X151629815Y-71977703D01*
X151613181Y-71998345D01*
X145398345Y-78213181D01*
X145337022Y-78246666D01*
X145310664Y-78249500D01*
X135684267Y-78249500D01*
X135617228Y-78229815D01*
X135571473Y-78177011D01*
X135561529Y-78107853D01*
X135590554Y-78044297D01*
X135611381Y-78025182D01*
X135764646Y-77913828D01*
X139453828Y-74224646D01*
X139569524Y-74065405D01*
X139658884Y-73890026D01*
X139719709Y-73702826D01*
X139723448Y-73679218D01*
X139750500Y-73508422D01*
X139750500Y-72189336D01*
X139770185Y-72122297D01*
X139786819Y-72101655D01*
X144481655Y-67406819D01*
X144542978Y-67373334D01*
X144569336Y-67370500D01*
X151525501Y-67370500D01*
X151592540Y-67390185D01*
X151638295Y-67442989D01*
X151649501Y-67494500D01*
X151649501Y-67517876D01*
X151655908Y-67577483D01*
X151706202Y-67712328D01*
X151706206Y-67712335D01*
X151792452Y-67827544D01*
X151792455Y-67827547D01*
X151907664Y-67913793D01*
X151907671Y-67913797D01*
X152042517Y-67964091D01*
X152042516Y-67964091D01*
X152049444Y-67964835D01*
X152102127Y-67970500D01*
X154897872Y-67970499D01*
X154957483Y-67964091D01*
X155092331Y-67913796D01*
X155207546Y-67827546D01*
X155293796Y-67712331D01*
X155344091Y-67577483D01*
X155350500Y-67517873D01*
X155350499Y-64722128D01*
X155344091Y-64662517D01*
X155332956Y-64632663D01*
X155293797Y-64527671D01*
X155293793Y-64527664D01*
X155207547Y-64412455D01*
X155207544Y-64412452D01*
X155092335Y-64326206D01*
X155092328Y-64326202D01*
X154957482Y-64275908D01*
X154957483Y-64275908D01*
X154897883Y-64269501D01*
X154897881Y-64269500D01*
X154897873Y-64269500D01*
X154897864Y-64269500D01*
X152102129Y-64269500D01*
X152102123Y-64269501D01*
X152042516Y-64275908D01*
X151907671Y-64326202D01*
X151907664Y-64326206D01*
X151792455Y-64412452D01*
X151792452Y-64412455D01*
X151706206Y-64527664D01*
X151706202Y-64527671D01*
X151655908Y-64662517D01*
X151652569Y-64693579D01*
X151649501Y-64722123D01*
X151649500Y-64722135D01*
X151649500Y-64745500D01*
X151629815Y-64812539D01*
X151577011Y-64858294D01*
X151525500Y-64869500D01*
X143901583Y-64869500D01*
X143866768Y-64875013D01*
X143866769Y-64875014D01*
X143707172Y-64900291D01*
X143519969Y-64961117D01*
X143344594Y-65050476D01*
X143253742Y-65116484D01*
X143185355Y-65166171D01*
X143185353Y-65166173D01*
X143185352Y-65166173D01*
X137546174Y-70805351D01*
X137546174Y-70805352D01*
X137546172Y-70805354D01*
X137514946Y-70848333D01*
X137430476Y-70964594D01*
X137340669Y-71140851D01*
X137339608Y-71144612D01*
X137280291Y-71327169D01*
X137280291Y-71327172D01*
X137249500Y-71521577D01*
X137249500Y-72840664D01*
X137229815Y-72907703D01*
X137213181Y-72928345D01*
X134468345Y-75673181D01*
X134407022Y-75706666D01*
X134380664Y-75709500D01*
X130199494Y-75709500D01*
X130132455Y-75689815D01*
X130111813Y-75673181D01*
X120672141Y-66233509D01*
X120638656Y-66172186D01*
X120643640Y-66102494D01*
X120685512Y-66046561D01*
X120735631Y-66024211D01*
X120758539Y-66019654D01*
X120806420Y-66010130D01*
X120997598Y-65930941D01*
X121169655Y-65815977D01*
X121315977Y-65669655D01*
X121430941Y-65497598D01*
X121439454Y-65477045D01*
X121483296Y-65422643D01*
X121549590Y-65400579D01*
X121554015Y-65400500D01*
X124806926Y-65400500D01*
X124873965Y-65420185D01*
X124919720Y-65472989D01*
X124929664Y-65542147D01*
X124910028Y-65593389D01*
X124894575Y-65616517D01*
X124874034Y-65647259D01*
X124874032Y-65647264D01*
X124859500Y-65720321D01*
X124859500Y-66819678D01*
X124874032Y-66892735D01*
X124874033Y-66892739D01*
X124874034Y-66892740D01*
X124929399Y-66975601D01*
X124992289Y-67017622D01*
X125012260Y-67030966D01*
X125012264Y-67030967D01*
X125085321Y-67045499D01*
X125085324Y-67045500D01*
X125085326Y-67045500D01*
X126634676Y-67045500D01*
X126634677Y-67045499D01*
X126707740Y-67030966D01*
X126790601Y-66975601D01*
X126845966Y-66892740D01*
X126860500Y-66819674D01*
X126860500Y-65720326D01*
X126860500Y-65720323D01*
X126860499Y-65720321D01*
X126845967Y-65647264D01*
X126845966Y-65647260D01*
X126843803Y-65644023D01*
X126790601Y-65564399D01*
X126789978Y-65563983D01*
X126788927Y-65562725D01*
X126781965Y-65555763D01*
X126782587Y-65555140D01*
X126745174Y-65510376D01*
X126736464Y-65441051D01*
X126755766Y-65391990D01*
X126772239Y-65367337D01*
X126830698Y-65226205D01*
X126860500Y-65076380D01*
X126860500Y-64923620D01*
X126830698Y-64773795D01*
X126772239Y-64632663D01*
X126772238Y-64632662D01*
X126772235Y-64632656D01*
X126687370Y-64505648D01*
X126687367Y-64505644D01*
X126634404Y-64452681D01*
X126632448Y-64449099D01*
X126628998Y-64446919D01*
X126615843Y-64418689D01*
X126600919Y-64391358D01*
X126601210Y-64387287D01*
X126599486Y-64383588D01*
X126603681Y-64352731D01*
X126605903Y-64321666D01*
X126608507Y-64317238D01*
X126608899Y-64314356D01*
X126617834Y-64301379D01*
X126627752Y-64284519D01*
X126630941Y-64280780D01*
X126687370Y-64224352D01*
X126717300Y-64179557D01*
X126722026Y-64174019D01*
X126745422Y-64158727D01*
X126766868Y-64140805D01*
X126775639Y-64138978D01*
X126780512Y-64135794D01*
X126791332Y-64135710D01*
X126816359Y-64130500D01*
X132625500Y-64130500D01*
X132692539Y-64150185D01*
X132738294Y-64202989D01*
X132749500Y-64254500D01*
X132749500Y-64977178D01*
X132764032Y-65050235D01*
X132764033Y-65050239D01*
X132781500Y-65076380D01*
X132819399Y-65133101D01*
X132868893Y-65166171D01*
X132902260Y-65188466D01*
X132902264Y-65188467D01*
X132975321Y-65202999D01*
X132975324Y-65203000D01*
X132975326Y-65203000D01*
X135024676Y-65203000D01*
X135024677Y-65202999D01*
X135097740Y-65188466D01*
X135180601Y-65133101D01*
X135235966Y-65050240D01*
X135250500Y-64977174D01*
X135250500Y-64524500D01*
X135270185Y-64457461D01*
X135322989Y-64411706D01*
X135374500Y-64400500D01*
X137445985Y-64400500D01*
X137513024Y-64420185D01*
X137558779Y-64472989D01*
X137560544Y-64477043D01*
X137569058Y-64497596D01*
X137569059Y-64497597D01*
X137569062Y-64497604D01*
X137684022Y-64669655D01*
X137830342Y-64815975D01*
X137830345Y-64815977D01*
X138002402Y-64930941D01*
X138193580Y-65010130D01*
X138395203Y-65050235D01*
X138396530Y-65050499D01*
X138396534Y-65050500D01*
X138396535Y-65050500D01*
X138603466Y-65050500D01*
X138603467Y-65050499D01*
X138806420Y-65010130D01*
X138997598Y-64930941D01*
X139169655Y-64815977D01*
X139315977Y-64669655D01*
X139430941Y-64497598D01*
X139510130Y-64306420D01*
X139550500Y-64103465D01*
X139550500Y-63896535D01*
X139510130Y-63693580D01*
X139430941Y-63502402D01*
X139315977Y-63330345D01*
X139315976Y-63330344D01*
X139315975Y-63330342D01*
X139169657Y-63184024D01*
X139049927Y-63104024D01*
X138997598Y-63069059D01*
X138934109Y-63042761D01*
X138806420Y-62989870D01*
X138806412Y-62989868D01*
X138636734Y-62956117D01*
X138574823Y-62923732D01*
X138540249Y-62863017D01*
X138543988Y-62793247D01*
X138584855Y-62736575D01*
X138649873Y-62710994D01*
X138660925Y-62710500D01*
X143018422Y-62710500D01*
X143212826Y-62679709D01*
X143217132Y-62678310D01*
X143400026Y-62618884D01*
X143575405Y-62529524D01*
X143734646Y-62413828D01*
X153381655Y-52766819D01*
X153408582Y-52752115D01*
X153434401Y-52735523D01*
X153440601Y-52734631D01*
X153442978Y-52733334D01*
X153469336Y-52730500D01*
X153530664Y-52730500D01*
X153597703Y-52750185D01*
X153618345Y-52766819D01*
X171813181Y-70961655D01*
X171846666Y-71022978D01*
X171849500Y-71049336D01*
X171849500Y-71129902D01*
X171890140Y-71386493D01*
X171970422Y-71633576D01*
X172034183Y-71758711D01*
X172078869Y-71846413D01*
X172088368Y-71865054D01*
X172241066Y-72075225D01*
X172241069Y-72075229D01*
X172424771Y-72258931D01*
X172634949Y-72411634D01*
X172743426Y-72466906D01*
X172866423Y-72529577D01*
X172866425Y-72529577D01*
X172866428Y-72529579D01*
X173113507Y-72609860D01*
X173245706Y-72630797D01*
X173370098Y-72650500D01*
X173370103Y-72650500D01*
X173629902Y-72650500D01*
X173743298Y-72632539D01*
X173886493Y-72609860D01*
X174133572Y-72529579D01*
X174365051Y-72411634D01*
X174575229Y-72258931D01*
X174758931Y-72075229D01*
X174911634Y-71865051D01*
X175029579Y-71633572D01*
X175109860Y-71386493D01*
X175132539Y-71243298D01*
X175150500Y-71129902D01*
X175150500Y-70870097D01*
X175118003Y-70664921D01*
X175109860Y-70613507D01*
X175029579Y-70366428D01*
X175029577Y-70366425D01*
X175029577Y-70366423D01*
X174986787Y-70282445D01*
X174911634Y-70134949D01*
X174758931Y-69924771D01*
X174575229Y-69741069D01*
X174365051Y-69588366D01*
X174292764Y-69551534D01*
X174133576Y-69470422D01*
X173886494Y-69390140D01*
X173798104Y-69376140D01*
X173734970Y-69346210D01*
X173729822Y-69341348D01*
X155386819Y-50998345D01*
X155353334Y-50937022D01*
X155350500Y-50910664D01*
X155350500Y-50758711D01*
X155318838Y-50518214D01*
X155318838Y-50518211D01*
X155256054Y-50283900D01*
X155163224Y-50059788D01*
X155041936Y-49849711D01*
X154894265Y-49657262D01*
X154894260Y-49657256D01*
X154722743Y-49485739D01*
X154722736Y-49485733D01*
X154530293Y-49338067D01*
X154530292Y-49338066D01*
X154530289Y-49338064D01*
X154320212Y-49216776D01*
X154320205Y-49216773D01*
X154096104Y-49123947D01*
X153978944Y-49092554D01*
X153861789Y-49061162D01*
X153861788Y-49061161D01*
X153861785Y-49061161D01*
X153621289Y-49029500D01*
X153621288Y-49029500D01*
X153378712Y-49029500D01*
X153378711Y-49029500D01*
X153138214Y-49061161D01*
X152903895Y-49123947D01*
X152679794Y-49216773D01*
X152679785Y-49216777D01*
X152469706Y-49338067D01*
X152277263Y-49485733D01*
X152277256Y-49485739D01*
X152105739Y-49657256D01*
X152105733Y-49657263D01*
X151958067Y-49849706D01*
X151836777Y-50059785D01*
X151836773Y-50059794D01*
X151743947Y-50283895D01*
X151681161Y-50518214D01*
X151649500Y-50758711D01*
X151649500Y-50910664D01*
X151629815Y-50977703D01*
X151613181Y-50998345D01*
X142438345Y-60173181D01*
X142377022Y-60206666D01*
X142350664Y-60209500D01*
X134734267Y-60209500D01*
X134667228Y-60189815D01*
X134621473Y-60137011D01*
X134611529Y-60067853D01*
X134640554Y-60004297D01*
X134661381Y-59985182D01*
X134814646Y-59873828D01*
X134953828Y-59734646D01*
X135069524Y-59575405D01*
X135158884Y-59400025D01*
X135219709Y-59212826D01*
X135230228Y-59146412D01*
X135250500Y-59018422D01*
X135250500Y-49069336D01*
X135270185Y-49002297D01*
X135286819Y-48981655D01*
X136722302Y-47546172D01*
X139953828Y-44314646D01*
X140069524Y-44155405D01*
X140158884Y-43980026D01*
X140219709Y-43792826D01*
X140250500Y-43598421D01*
X140250500Y-41127122D01*
X140270185Y-41060083D01*
X140274161Y-41054265D01*
X140411634Y-40865051D01*
X140529579Y-40633572D01*
X140609860Y-40386493D01*
X140632539Y-40243298D01*
X140650500Y-40129902D01*
X140650500Y-39870097D01*
X140628947Y-39734021D01*
X140609860Y-39613507D01*
X140529579Y-39366428D01*
X140529577Y-39366425D01*
X140529577Y-39366423D01*
X140486787Y-39282445D01*
X140411634Y-39134949D01*
X140258931Y-38924771D01*
X140075229Y-38741069D01*
X140075225Y-38741066D01*
X139865054Y-38588368D01*
X139865053Y-38588367D01*
X139865051Y-38588366D01*
X139792764Y-38551534D01*
X139633576Y-38470422D01*
X139386493Y-38390140D01*
X139129902Y-38349500D01*
X139129897Y-38349500D01*
X138870103Y-38349500D01*
X138870098Y-38349500D01*
X138613506Y-38390140D01*
X138366423Y-38470422D01*
X138134945Y-38588368D01*
X137924774Y-38741066D01*
X137924768Y-38741071D01*
X137741071Y-38924768D01*
X137741066Y-38924774D01*
X137588368Y-39134945D01*
X137470422Y-39366423D01*
X137390140Y-39613506D01*
X137349500Y-39870097D01*
X137349500Y-40129902D01*
X137390140Y-40386493D01*
X137470422Y-40633576D01*
X137566403Y-40821946D01*
X137588366Y-40865051D01*
X137725819Y-41054239D01*
X137749298Y-41120043D01*
X137749500Y-41127122D01*
X137749500Y-42930664D01*
X137729815Y-42997703D01*
X137713181Y-43018345D01*
X117545174Y-63186351D01*
X117545174Y-63186352D01*
X117545172Y-63186354D01*
X117531262Y-63205500D01*
X117429476Y-63345594D01*
X117340115Y-63520973D01*
X117340113Y-63520979D01*
X117307674Y-63620820D01*
X117307674Y-63620821D01*
X117279290Y-63708176D01*
X117279290Y-63708177D01*
X117248500Y-63902577D01*
X110805237Y-63902577D01*
X133178054Y-41529758D01*
X133239375Y-41496275D01*
X133309067Y-41501259D01*
X133322028Y-41506956D01*
X133366423Y-41529577D01*
X133366425Y-41529577D01*
X133366428Y-41529579D01*
X133613507Y-41609860D01*
X133745706Y-41630797D01*
X133870098Y-41650500D01*
X133870103Y-41650500D01*
X134129902Y-41650500D01*
X134243298Y-41632539D01*
X134386493Y-41609860D01*
X134633572Y-41529579D01*
X134865051Y-41411634D01*
X135075229Y-41258931D01*
X135258931Y-41075229D01*
X135411634Y-40865051D01*
X135529579Y-40633572D01*
X135609860Y-40386493D01*
X135632539Y-40243298D01*
X135650500Y-40129902D01*
X135650500Y-39870097D01*
X135628947Y-39734021D01*
X135609860Y-39613507D01*
X135529579Y-39366428D01*
X135529577Y-39366425D01*
X135529577Y-39366423D01*
X135486787Y-39282445D01*
X135411634Y-39134949D01*
X135258931Y-38924771D01*
X135075229Y-38741069D01*
X135075225Y-38741066D01*
X134865054Y-38588368D01*
X134865053Y-38588367D01*
X134865051Y-38588366D01*
X134792764Y-38551534D01*
X134633576Y-38470422D01*
X134386493Y-38390140D01*
X134129902Y-38349500D01*
X134129897Y-38349500D01*
X133870103Y-38349500D01*
X133870098Y-38349500D01*
X133613506Y-38390140D01*
X133366423Y-38470422D01*
X133134945Y-38588368D01*
X132924774Y-38741066D01*
X132924768Y-38741071D01*
X132741071Y-38924768D01*
X132741066Y-38924774D01*
X132588368Y-39134945D01*
X132470422Y-39366423D01*
X132390140Y-39613506D01*
X132349500Y-39870097D01*
X132349500Y-40129902D01*
X132390140Y-40386493D01*
X132470421Y-40633572D01*
X132470422Y-40633575D01*
X132470423Y-40633576D01*
X132493043Y-40677972D01*
X132505938Y-40746641D01*
X132479661Y-40811381D01*
X132470238Y-40821946D01*
X107369005Y-65923181D01*
X107307682Y-65956666D01*
X107281324Y-65959500D01*
X104995281Y-65959500D01*
X104928242Y-65939815D01*
X104892180Y-65904392D01*
X104815977Y-65790345D01*
X104815975Y-65790342D01*
X104669657Y-65644024D01*
X104547983Y-65562725D01*
X104497598Y-65529059D01*
X104421659Y-65497604D01*
X104306420Y-65449870D01*
X104306412Y-65449868D01*
X104103469Y-65409500D01*
X104103465Y-65409500D01*
X103896535Y-65409500D01*
X103896530Y-65409500D01*
X103693587Y-65449868D01*
X103693579Y-65449870D01*
X103502403Y-65529058D01*
X103330342Y-65644024D01*
X103184024Y-65790342D01*
X103069058Y-65962403D01*
X102989870Y-66153579D01*
X102989868Y-66153587D01*
X102949500Y-66356530D01*
X102949500Y-66563469D01*
X102989868Y-66766412D01*
X102989870Y-66766420D01*
X103069058Y-66957597D01*
X103109157Y-67017609D01*
X103130035Y-67084287D01*
X103111550Y-67151667D01*
X103059571Y-67198357D01*
X103006055Y-67210500D01*
X90209339Y-67210500D01*
X90209323Y-67210499D01*
X90201727Y-67210499D01*
X90096273Y-67210499D01*
X90028366Y-67228695D01*
X89994412Y-67237793D01*
X89903084Y-67290522D01*
X89828518Y-67365089D01*
X89222103Y-67971502D01*
X89160780Y-68004987D01*
X89091088Y-68000003D01*
X89086983Y-67998387D01*
X89066420Y-67989870D01*
X89066412Y-67989868D01*
X88863469Y-67949500D01*
X88863465Y-67949500D01*
X88656535Y-67949500D01*
X88656530Y-67949500D01*
X88453587Y-67989868D01*
X88453579Y-67989870D01*
X88262403Y-68069058D01*
X88090342Y-68184024D01*
X87944024Y-68330342D01*
X87829058Y-68502403D01*
X87749870Y-68693579D01*
X87749868Y-68693587D01*
X87709500Y-68896530D01*
X87709500Y-69103469D01*
X87749868Y-69306412D01*
X87749870Y-69306420D01*
X87829058Y-69497596D01*
X87944024Y-69669657D01*
X88090343Y-69815976D01*
X88102724Y-69824248D01*
X88103952Y-69825717D01*
X88105762Y-69826344D01*
X88126262Y-69852412D01*
X88147530Y-69877859D01*
X88147768Y-69879759D01*
X88148953Y-69881265D01*
X88152105Y-69914274D01*
X88156240Y-69947184D01*
X88155413Y-69948912D01*
X88155595Y-69950818D01*
X88140403Y-69980286D01*
X88126087Y-70010212D01*
X88124179Y-70011759D01*
X88123580Y-70012921D01*
X88095837Y-70034739D01*
X88068541Y-70050499D01*
X88042811Y-70065354D01*
X88042809Y-70065355D01*
X88037326Y-70068520D01*
X88037324Y-70068521D01*
X87288522Y-70817324D01*
X87288520Y-70817327D01*
X87270619Y-70848333D01*
X87235793Y-70908652D01*
X87219489Y-70969500D01*
X87219489Y-70969501D01*
X87219488Y-70969500D01*
X87208500Y-71010509D01*
X80500000Y-71010509D01*
X80500000Y-66356530D01*
X87709500Y-66356530D01*
X87709500Y-66563469D01*
X87749868Y-66766412D01*
X87749870Y-66766420D01*
X87816132Y-66926391D01*
X87829059Y-66957598D01*
X87878082Y-67030966D01*
X87944024Y-67129657D01*
X88090342Y-67275975D01*
X88090345Y-67275977D01*
X88262402Y-67390941D01*
X88453580Y-67470130D01*
X88656530Y-67510499D01*
X88656534Y-67510500D01*
X88656535Y-67510500D01*
X88863466Y-67510500D01*
X88863467Y-67510499D01*
X89066420Y-67470130D01*
X89257598Y-67390941D01*
X89429655Y-67275977D01*
X89575977Y-67129655D01*
X89690941Y-66957598D01*
X89770130Y-66766420D01*
X89810500Y-66563465D01*
X89810500Y-66356535D01*
X89770130Y-66153580D01*
X89690941Y-65962402D01*
X89575977Y-65790345D01*
X89575975Y-65790342D01*
X89429657Y-65644024D01*
X89307983Y-65562725D01*
X89257598Y-65529059D01*
X89181659Y-65497604D01*
X89066420Y-65449870D01*
X89066412Y-65449868D01*
X88863469Y-65409500D01*
X88863465Y-65409500D01*
X88656535Y-65409500D01*
X88656530Y-65409500D01*
X88453587Y-65449868D01*
X88453579Y-65449870D01*
X88262403Y-65529058D01*
X88090342Y-65644024D01*
X87944024Y-65790342D01*
X87829058Y-65962403D01*
X87749870Y-66153579D01*
X87749868Y-66153587D01*
X87709500Y-66356530D01*
X80500000Y-66356530D01*
X80500000Y-63816530D01*
X87709500Y-63816530D01*
X87709500Y-64023469D01*
X87749868Y-64226412D01*
X87749870Y-64226420D01*
X87828249Y-64415644D01*
X87829059Y-64417598D01*
X87866070Y-64472989D01*
X87944024Y-64589657D01*
X88090342Y-64735975D01*
X88090345Y-64735977D01*
X88262402Y-64850941D01*
X88453580Y-64930130D01*
X88656530Y-64970499D01*
X88656534Y-64970500D01*
X88656535Y-64970500D01*
X88863466Y-64970500D01*
X88863467Y-64970499D01*
X89066420Y-64930130D01*
X89257598Y-64850941D01*
X89429655Y-64735977D01*
X89575977Y-64589655D01*
X89690941Y-64417598D01*
X89770130Y-64226420D01*
X89810500Y-64023465D01*
X89810500Y-63816535D01*
X89810499Y-63816530D01*
X102949500Y-63816530D01*
X102949500Y-64023469D01*
X102989868Y-64226412D01*
X102989870Y-64226420D01*
X103068249Y-64415644D01*
X103069059Y-64417598D01*
X103106070Y-64472989D01*
X103184024Y-64589657D01*
X103330342Y-64735975D01*
X103330345Y-64735977D01*
X103502402Y-64850941D01*
X103693580Y-64930130D01*
X103896530Y-64970499D01*
X103896534Y-64970500D01*
X103896535Y-64970500D01*
X104103466Y-64970500D01*
X104103467Y-64970499D01*
X104306420Y-64930130D01*
X104497598Y-64850941D01*
X104669655Y-64735977D01*
X104815977Y-64589655D01*
X104930941Y-64417598D01*
X105010130Y-64226420D01*
X105050500Y-64023465D01*
X105050500Y-63816535D01*
X105010130Y-63613580D01*
X104930941Y-63422402D01*
X104815977Y-63250345D01*
X104815975Y-63250342D01*
X104669657Y-63104024D01*
X104548127Y-63022821D01*
X104497598Y-62989059D01*
X104418069Y-62956117D01*
X104306420Y-62909870D01*
X104306412Y-62909868D01*
X104103469Y-62869500D01*
X104103465Y-62869500D01*
X103896535Y-62869500D01*
X103896530Y-62869500D01*
X103693587Y-62909868D01*
X103693579Y-62909870D01*
X103502403Y-62989058D01*
X103330342Y-63104024D01*
X103184024Y-63250342D01*
X103069058Y-63422403D01*
X102989870Y-63613579D01*
X102989868Y-63613587D01*
X102949500Y-63816530D01*
X89810499Y-63816530D01*
X89770130Y-63613580D01*
X89690941Y-63422402D01*
X89575977Y-63250345D01*
X89575975Y-63250342D01*
X89429657Y-63104024D01*
X89308127Y-63022821D01*
X89257598Y-62989059D01*
X89178069Y-62956117D01*
X89066420Y-62909870D01*
X89066412Y-62909868D01*
X88863469Y-62869500D01*
X88863465Y-62869500D01*
X88656535Y-62869500D01*
X88656530Y-62869500D01*
X88453587Y-62909868D01*
X88453579Y-62909870D01*
X88262403Y-62989058D01*
X88090342Y-63104024D01*
X87944024Y-63250342D01*
X87829058Y-63422403D01*
X87749870Y-63613579D01*
X87749868Y-63613587D01*
X87709500Y-63816530D01*
X80500000Y-63816530D01*
X80500000Y-61276530D01*
X87709500Y-61276530D01*
X87709500Y-61483469D01*
X87749868Y-61686412D01*
X87749870Y-61686420D01*
X87829058Y-61877596D01*
X87944024Y-62049657D01*
X88090342Y-62195975D01*
X88090345Y-62195977D01*
X88262402Y-62310941D01*
X88453580Y-62390130D01*
X88572704Y-62413825D01*
X88656530Y-62430499D01*
X88656534Y-62430500D01*
X88656535Y-62430500D01*
X88863466Y-62430500D01*
X88863467Y-62430499D01*
X89066420Y-62390130D01*
X89257598Y-62310941D01*
X89429655Y-62195977D01*
X89575977Y-62049655D01*
X89690941Y-61877598D01*
X89770130Y-61686420D01*
X89810500Y-61483465D01*
X89810500Y-61276535D01*
X89810499Y-61276530D01*
X102949500Y-61276530D01*
X102949500Y-61483469D01*
X102989868Y-61686412D01*
X102989870Y-61686420D01*
X103069058Y-61877596D01*
X103184024Y-62049657D01*
X103330342Y-62195975D01*
X103330345Y-62195977D01*
X103502402Y-62310941D01*
X103693580Y-62390130D01*
X103812704Y-62413825D01*
X103896530Y-62430499D01*
X103896534Y-62430500D01*
X103896535Y-62430500D01*
X104103466Y-62430500D01*
X104103467Y-62430499D01*
X104306420Y-62390130D01*
X104497598Y-62310941D01*
X104669655Y-62195977D01*
X104815977Y-62049655D01*
X104930941Y-61877598D01*
X105010130Y-61686420D01*
X105050500Y-61483465D01*
X105050500Y-61276535D01*
X105010130Y-61073580D01*
X104930941Y-60882402D01*
X104815977Y-60710345D01*
X104815975Y-60710342D01*
X104669657Y-60564024D01*
X104583074Y-60506172D01*
X104497598Y-60449059D01*
X104306420Y-60369870D01*
X104306412Y-60369868D01*
X104103469Y-60329500D01*
X104103465Y-60329500D01*
X103896535Y-60329500D01*
X103896530Y-60329500D01*
X103693587Y-60369868D01*
X103693579Y-60369870D01*
X103502403Y-60449058D01*
X103330342Y-60564024D01*
X103184024Y-60710342D01*
X103069058Y-60882403D01*
X102989870Y-61073579D01*
X102989868Y-61073587D01*
X102949500Y-61276530D01*
X89810499Y-61276530D01*
X89770130Y-61073580D01*
X89690941Y-60882402D01*
X89575977Y-60710345D01*
X89575975Y-60710342D01*
X89429657Y-60564024D01*
X89343074Y-60506172D01*
X89257598Y-60449059D01*
X89066420Y-60369870D01*
X89066412Y-60369868D01*
X88863469Y-60329500D01*
X88863465Y-60329500D01*
X88656535Y-60329500D01*
X88656530Y-60329500D01*
X88453587Y-60369868D01*
X88453579Y-60369870D01*
X88262403Y-60449058D01*
X88090342Y-60564024D01*
X87944024Y-60710342D01*
X87829058Y-60882403D01*
X87749870Y-61073579D01*
X87749868Y-61073587D01*
X87709500Y-61276530D01*
X80500000Y-61276530D01*
X80500000Y-58015321D01*
X87709500Y-58015321D01*
X87709500Y-59664678D01*
X87724032Y-59737735D01*
X87724033Y-59737739D01*
X87724034Y-59737740D01*
X87779399Y-59820601D01*
X87823595Y-59850131D01*
X87862260Y-59875966D01*
X87862264Y-59875967D01*
X87935321Y-59890499D01*
X87935324Y-59890500D01*
X87935326Y-59890500D01*
X89584676Y-59890500D01*
X89584677Y-59890499D01*
X89657740Y-59875966D01*
X89740601Y-59820601D01*
X89795966Y-59737740D01*
X89810500Y-59664674D01*
X89810500Y-58736530D01*
X102949500Y-58736530D01*
X102949500Y-58943469D01*
X102989868Y-59146412D01*
X102989870Y-59146420D01*
X103069058Y-59337596D01*
X103184024Y-59509657D01*
X103330342Y-59655975D01*
X103330345Y-59655977D01*
X103502402Y-59770941D01*
X103693580Y-59850130D01*
X103896530Y-59890499D01*
X103896534Y-59890500D01*
X103896535Y-59890500D01*
X104103466Y-59890500D01*
X104103467Y-59890499D01*
X104306420Y-59850130D01*
X104497598Y-59770941D01*
X104669655Y-59655977D01*
X104815977Y-59509655D01*
X104930941Y-59337598D01*
X105010130Y-59146420D01*
X105050500Y-58943465D01*
X105050500Y-58736535D01*
X105010130Y-58533580D01*
X104930941Y-58342402D01*
X104815977Y-58170345D01*
X104815975Y-58170342D01*
X104669657Y-58024024D01*
X104547287Y-57942260D01*
X104497598Y-57909059D01*
X104306420Y-57829870D01*
X104306412Y-57829868D01*
X104103469Y-57789500D01*
X104103465Y-57789500D01*
X103896535Y-57789500D01*
X103896530Y-57789500D01*
X103693587Y-57829868D01*
X103693579Y-57829870D01*
X103502403Y-57909058D01*
X103330342Y-58024024D01*
X103184024Y-58170342D01*
X103069058Y-58342403D01*
X102989870Y-58533579D01*
X102989868Y-58533587D01*
X102949500Y-58736530D01*
X89810500Y-58736530D01*
X89810500Y-58015326D01*
X89810500Y-58015323D01*
X89810499Y-58015321D01*
X89795967Y-57942264D01*
X89795966Y-57942260D01*
X89773782Y-57909059D01*
X89740601Y-57859399D01*
X89657740Y-57804034D01*
X89657739Y-57804033D01*
X89657735Y-57804032D01*
X89584677Y-57789500D01*
X89584674Y-57789500D01*
X87935326Y-57789500D01*
X87935323Y-57789500D01*
X87862264Y-57804032D01*
X87862260Y-57804033D01*
X87779399Y-57859399D01*
X87724033Y-57942260D01*
X87724032Y-57942264D01*
X87709500Y-58015321D01*
X80500000Y-58015321D01*
X80500000Y-38802136D01*
X127349500Y-38802136D01*
X127349500Y-41197863D01*
X127349501Y-41197882D01*
X127355908Y-41257481D01*
X127406202Y-41392327D01*
X127406203Y-41392328D01*
X127406204Y-41392330D01*
X127492454Y-41507546D01*
X127607670Y-41593796D01*
X127607671Y-41593796D01*
X127607672Y-41593797D01*
X127742518Y-41644091D01*
X127742517Y-41644091D01*
X127749445Y-41644835D01*
X127802128Y-41650500D01*
X127802137Y-41650500D01*
X130197863Y-41650500D01*
X130197872Y-41650500D01*
X130257482Y-41644091D01*
X130392330Y-41593796D01*
X130507546Y-41507546D01*
X130593796Y-41392330D01*
X130644091Y-41257482D01*
X130650500Y-41197872D01*
X130650500Y-38802128D01*
X130644091Y-38742518D01*
X130593796Y-38607670D01*
X130507546Y-38492454D01*
X130392330Y-38406204D01*
X130392328Y-38406203D01*
X130392327Y-38406202D01*
X130257481Y-38355908D01*
X130257482Y-38355908D01*
X130197882Y-38349501D01*
X130197880Y-38349500D01*
X130197872Y-38349500D01*
X127802128Y-38349500D01*
X127802120Y-38349500D01*
X127802117Y-38349501D01*
X127742518Y-38355908D01*
X127607672Y-38406202D01*
X127607670Y-38406204D01*
X127492454Y-38492454D01*
X127406204Y-38607670D01*
X127406202Y-38607672D01*
X127355908Y-38742518D01*
X127349501Y-38802117D01*
X127349500Y-38802136D01*
X80500000Y-38802136D01*
X80500000Y-35124640D01*
X80519685Y-35057601D01*
X80572489Y-35011846D01*
X80624636Y-35000642D01*
X177377397Y-35499368D01*
G37*
%TD.AperFunction*%
%TA.AperFunction,NonConductor*%
G36*
X138361350Y-62717040D02*
G01*
X138384475Y-62719110D01*
X138394245Y-62726700D01*
X138406114Y-62730185D01*
X138421314Y-62747727D01*
X138439653Y-62761973D01*
X138443769Y-62773641D01*
X138451869Y-62782989D01*
X138455173Y-62805967D01*
X138462897Y-62827863D01*
X138460052Y-62839901D01*
X138461813Y-62852147D01*
X138452167Y-62873267D01*
X138446829Y-62895860D01*
X138437927Y-62904449D01*
X138432788Y-62915703D01*
X138413257Y-62928254D01*
X138396550Y-62944376D01*
X138377976Y-62950927D01*
X138374010Y-62953477D01*
X138363266Y-62956117D01*
X138193587Y-62989868D01*
X138193579Y-62989870D01*
X138002403Y-63069058D01*
X137830342Y-63184024D01*
X137684022Y-63330344D01*
X137569062Y-63502395D01*
X137569059Y-63502402D01*
X137560546Y-63522954D01*
X137516704Y-63577357D01*
X137450410Y-63599421D01*
X137445985Y-63599500D01*
X135374500Y-63599500D01*
X135307461Y-63579815D01*
X135261706Y-63527011D01*
X135250500Y-63475500D01*
X135250500Y-63022823D01*
X135250499Y-63022821D01*
X135235967Y-62949764D01*
X135235966Y-62949760D01*
X135204983Y-62903390D01*
X135184106Y-62836712D01*
X135202591Y-62769332D01*
X135254571Y-62722643D01*
X135308086Y-62710500D01*
X138339075Y-62710500D01*
X138361350Y-62717040D01*
G37*
%TD.AperFunction*%
%TA.AperFunction,NonConductor*%
G36*
X132668834Y-51702153D02*
G01*
X132724767Y-51744025D01*
X132749184Y-51809489D01*
X132749500Y-51818335D01*
X132749500Y-59018422D01*
X132780290Y-59212826D01*
X132841117Y-59400029D01*
X132896975Y-59509655D01*
X132930476Y-59575405D01*
X133046172Y-59734646D01*
X133185354Y-59873828D01*
X133344595Y-59989524D01*
X133467992Y-60052397D01*
X133521213Y-60079515D01*
X133572009Y-60127489D01*
X133588804Y-60195310D01*
X133566267Y-60261445D01*
X133521213Y-60300485D01*
X133344594Y-60390476D01*
X133263964Y-60449058D01*
X133185354Y-60506172D01*
X133185352Y-60506174D01*
X133185351Y-60506174D01*
X133046174Y-60645351D01*
X133046174Y-60645352D01*
X133046172Y-60645354D01*
X132998955Y-60710342D01*
X132930476Y-60804594D01*
X132841117Y-60979970D01*
X132780290Y-61167173D01*
X132749500Y-61361577D01*
X132749500Y-61558422D01*
X132780290Y-61752826D01*
X132841117Y-61940029D01*
X132896975Y-62049655D01*
X132930476Y-62115405D01*
X133046172Y-62274646D01*
X133185354Y-62413828D01*
X133344595Y-62529524D01*
X133409344Y-62562515D01*
X133460140Y-62610489D01*
X133476935Y-62678310D01*
X133454398Y-62744445D01*
X133399683Y-62787897D01*
X133353049Y-62797000D01*
X132975323Y-62797000D01*
X132902264Y-62811532D01*
X132902260Y-62811533D01*
X132819399Y-62866899D01*
X132764033Y-62949760D01*
X132764032Y-62949764D01*
X132749500Y-63022821D01*
X132749500Y-63205500D01*
X132729815Y-63272539D01*
X132677011Y-63318294D01*
X132625500Y-63329500D01*
X126816359Y-63329500D01*
X126749320Y-63309815D01*
X126713257Y-63274391D01*
X126687370Y-63235648D01*
X126687368Y-63235645D01*
X126579355Y-63127632D01*
X126579351Y-63127629D01*
X126452343Y-63042764D01*
X126452334Y-63042759D01*
X126311205Y-62984302D01*
X126311197Y-62984300D01*
X126161384Y-62954500D01*
X126161380Y-62954500D01*
X125558620Y-62954500D01*
X125558615Y-62954500D01*
X125408802Y-62984300D01*
X125408794Y-62984302D01*
X125267665Y-63042759D01*
X125267656Y-63042764D01*
X125140648Y-63127629D01*
X125140644Y-63127632D01*
X125032632Y-63235644D01*
X125032629Y-63235648D01*
X124947764Y-63362656D01*
X124947759Y-63362665D01*
X124889302Y-63503794D01*
X124889300Y-63503802D01*
X124859500Y-63653615D01*
X124859500Y-63806384D01*
X124889300Y-63956197D01*
X124889302Y-63956205D01*
X124947759Y-64097334D01*
X124947764Y-64097343D01*
X125032629Y-64224351D01*
X125032632Y-64224355D01*
X125085596Y-64277319D01*
X125087551Y-64280900D01*
X125091002Y-64283081D01*
X125104156Y-64311310D01*
X125119081Y-64338642D01*
X125118789Y-64342712D01*
X125120514Y-64346412D01*
X125116318Y-64377268D01*
X125114097Y-64408334D01*
X125111492Y-64412761D01*
X125111101Y-64415644D01*
X125102165Y-64428620D01*
X125092248Y-64445481D01*
X125089058Y-64449219D01*
X125032630Y-64505648D01*
X125002699Y-64550442D01*
X124997974Y-64555981D01*
X124974577Y-64571272D01*
X124953132Y-64589195D01*
X124944360Y-64591021D01*
X124939488Y-64594206D01*
X124928667Y-64594289D01*
X124903641Y-64599500D01*
X121554015Y-64599500D01*
X121486976Y-64579815D01*
X121441221Y-64527011D01*
X121439454Y-64522954D01*
X121430941Y-64502402D01*
X121430938Y-64502397D01*
X121430937Y-64502395D01*
X121315977Y-64330344D01*
X121169657Y-64184024D01*
X121083626Y-64126541D01*
X120997598Y-64069059D01*
X120997593Y-64069057D01*
X120806420Y-63989870D01*
X120806412Y-63989868D01*
X120597490Y-63948311D01*
X120597822Y-63946638D01*
X120540585Y-63923511D01*
X120500239Y-63866467D01*
X120497138Y-63796667D01*
X120529865Y-63738607D01*
X132537821Y-51730652D01*
X132599142Y-51697169D01*
X132668834Y-51702153D01*
G37*
%TD.AperFunction*%
%TA.AperFunction,NonConductor*%
G36*
X139215120Y-80770185D02*
G01*
X139260875Y-80822989D01*
X139270819Y-80892147D01*
X139241794Y-80955703D01*
X139195534Y-80989061D01*
X139193581Y-80989869D01*
X139193580Y-80989870D01*
X139149007Y-81008333D01*
X139002403Y-81069058D01*
X138830342Y-81184024D01*
X138684022Y-81330344D01*
X138569062Y-81502395D01*
X138569059Y-81502402D01*
X138560546Y-81522954D01*
X138516704Y-81577357D01*
X138450410Y-81599421D01*
X138445985Y-81599500D01*
X136324500Y-81599500D01*
X136257461Y-81579815D01*
X136211706Y-81527011D01*
X136200500Y-81475500D01*
X136200500Y-81062823D01*
X136200499Y-81062821D01*
X136185967Y-80989764D01*
X136185966Y-80989760D01*
X136154983Y-80943390D01*
X136134106Y-80876712D01*
X136152591Y-80809332D01*
X136204571Y-80762643D01*
X136258086Y-80750500D01*
X139148081Y-80750500D01*
X139215120Y-80770185D01*
G37*
%TD.AperFunction*%
%TA.AperFunction,NonConductor*%
G36*
X132497703Y-94770185D02*
G01*
X132518345Y-94786819D01*
X134713181Y-96981655D01*
X134746666Y-97042978D01*
X134749500Y-97069336D01*
X134749500Y-98518422D01*
X134780290Y-98712826D01*
X134841117Y-98900029D01*
X134930476Y-99075405D01*
X135046172Y-99234646D01*
X135185354Y-99373828D01*
X135344595Y-99489524D01*
X135467992Y-99552397D01*
X135521213Y-99579515D01*
X135572009Y-99627489D01*
X135588804Y-99695310D01*
X135566267Y-99761445D01*
X135521213Y-99800485D01*
X135344594Y-99890476D01*
X135253741Y-99956485D01*
X135185354Y-100006172D01*
X135185352Y-100006174D01*
X135185351Y-100006174D01*
X135046174Y-100145351D01*
X135046174Y-100145352D01*
X135046172Y-100145354D01*
X134996485Y-100213741D01*
X134930476Y-100304594D01*
X134841117Y-100479970D01*
X134780290Y-100667173D01*
X134749500Y-100861577D01*
X134749500Y-101058422D01*
X134780290Y-101252826D01*
X134841117Y-101440029D01*
X134930476Y-101615405D01*
X135046172Y-101774646D01*
X135185354Y-101913828D01*
X135344595Y-102029524D01*
X135409344Y-102062515D01*
X135460140Y-102110489D01*
X135476935Y-102178310D01*
X135454398Y-102244445D01*
X135399683Y-102287897D01*
X135353049Y-102297000D01*
X134975323Y-102297000D01*
X134902264Y-102311532D01*
X134902260Y-102311533D01*
X134819399Y-102366899D01*
X134764033Y-102449760D01*
X134764032Y-102449764D01*
X134749500Y-102522821D01*
X134749500Y-102705500D01*
X134729815Y-102772539D01*
X134677011Y-102818294D01*
X134625500Y-102829500D01*
X128816359Y-102829500D01*
X128749320Y-102809815D01*
X128713257Y-102774391D01*
X128687370Y-102735648D01*
X128687368Y-102735645D01*
X128579355Y-102627632D01*
X128579351Y-102627629D01*
X128452343Y-102542764D01*
X128452334Y-102542759D01*
X128311205Y-102484302D01*
X128311197Y-102484300D01*
X128161384Y-102454500D01*
X128161380Y-102454500D01*
X127558620Y-102454500D01*
X127558615Y-102454500D01*
X127408802Y-102484300D01*
X127408794Y-102484302D01*
X127267665Y-102542759D01*
X127267656Y-102542764D01*
X127140648Y-102627629D01*
X127140644Y-102627632D01*
X127032632Y-102735644D01*
X127032629Y-102735648D01*
X126947764Y-102862656D01*
X126947759Y-102862665D01*
X126889302Y-103003794D01*
X126889300Y-103003802D01*
X126859500Y-103153615D01*
X126859500Y-103306384D01*
X126889300Y-103456197D01*
X126889302Y-103456205D01*
X126947759Y-103597334D01*
X126947764Y-103597343D01*
X127032629Y-103724351D01*
X127032632Y-103724355D01*
X127085596Y-103777319D01*
X127087551Y-103780900D01*
X127091002Y-103783081D01*
X127104156Y-103811310D01*
X127119081Y-103838642D01*
X127118789Y-103842712D01*
X127120514Y-103846412D01*
X127116318Y-103877268D01*
X127114097Y-103908334D01*
X127111492Y-103912761D01*
X127111101Y-103915644D01*
X127102165Y-103928620D01*
X127092248Y-103945481D01*
X127089058Y-103949219D01*
X127032630Y-104005648D01*
X127002699Y-104050442D01*
X126997974Y-104055981D01*
X126974577Y-104071272D01*
X126953132Y-104089195D01*
X126944360Y-104091021D01*
X126939488Y-104094206D01*
X126928667Y-104094289D01*
X126903641Y-104099500D01*
X123594015Y-104099500D01*
X123526976Y-104079815D01*
X123481221Y-104027011D01*
X123479454Y-104022954D01*
X123475804Y-104014143D01*
X123470941Y-104002402D01*
X123470938Y-104002397D01*
X123470937Y-104002395D01*
X123355977Y-103830344D01*
X123209657Y-103684024D01*
X123057965Y-103582668D01*
X123037598Y-103569059D01*
X122846420Y-103489870D01*
X122846412Y-103489868D01*
X122643469Y-103449500D01*
X122643465Y-103449500D01*
X122436535Y-103449500D01*
X122436530Y-103449500D01*
X122233587Y-103489868D01*
X122233579Y-103489870D01*
X122042403Y-103569058D01*
X121870342Y-103684024D01*
X121724024Y-103830342D01*
X121609058Y-104002403D01*
X121529870Y-104193579D01*
X121529869Y-104193584D01*
X121515788Y-104264370D01*
X121483402Y-104326280D01*
X121422686Y-104360854D01*
X121352917Y-104357113D01*
X121306490Y-104327858D01*
X119786819Y-102808187D01*
X119753334Y-102746864D01*
X119750500Y-102720506D01*
X119750500Y-94874500D01*
X119770185Y-94807461D01*
X119822989Y-94761706D01*
X119874500Y-94750500D01*
X132430664Y-94750500D01*
X132497703Y-94770185D01*
G37*
%TD.AperFunction*%
%TA.AperFunction,NonConductor*%
G36*
X112906544Y-80969185D02*
G01*
X112927186Y-80985819D01*
X113707857Y-81766490D01*
X113741342Y-81827813D01*
X113736358Y-81897505D01*
X113694486Y-81953438D01*
X113644369Y-81975788D01*
X113573584Y-81989868D01*
X113573579Y-81989870D01*
X113382403Y-82069058D01*
X113210342Y-82184024D01*
X113064022Y-82330344D01*
X112949062Y-82502395D01*
X112949059Y-82502402D01*
X112940546Y-82522954D01*
X112896704Y-82577357D01*
X112830410Y-82599421D01*
X112825985Y-82599500D01*
X104885495Y-82599500D01*
X104818456Y-82579815D01*
X104772701Y-82527011D01*
X104762757Y-82457853D01*
X104791782Y-82394297D01*
X104797814Y-82387819D01*
X104815974Y-82369658D01*
X104815975Y-82369657D01*
X104815977Y-82369655D01*
X104930941Y-82197598D01*
X105010130Y-82006420D01*
X105050500Y-81803465D01*
X105050500Y-81596535D01*
X105010130Y-81393580D01*
X104930941Y-81202402D01*
X104890842Y-81142390D01*
X104869965Y-81075713D01*
X104888450Y-81008333D01*
X104940429Y-80961643D01*
X104993945Y-80949500D01*
X112839505Y-80949500D01*
X112906544Y-80969185D01*
G37*
%TD.AperFunction*%
%TA.AperFunction,NonConductor*%
G36*
X93213024Y-70809185D02*
G01*
X93233666Y-70825819D01*
X103223425Y-80815579D01*
X103256910Y-80876902D01*
X103251926Y-80946594D01*
X103223427Y-80990939D01*
X103184026Y-81030341D01*
X103184022Y-81030345D01*
X103069058Y-81202402D01*
X102989870Y-81393579D01*
X102989868Y-81393587D01*
X102949500Y-81596530D01*
X102949500Y-81803469D01*
X102986578Y-81989870D01*
X102989870Y-82006420D01*
X103069059Y-82197598D01*
X103124719Y-82280900D01*
X103184024Y-82369657D01*
X103202186Y-82387819D01*
X103235671Y-82449142D01*
X103230687Y-82518834D01*
X103188815Y-82574767D01*
X103123351Y-82599184D01*
X103114505Y-82599500D01*
X100437255Y-82599500D01*
X100370216Y-82579815D01*
X100349574Y-82563181D01*
X89788497Y-72002104D01*
X89755012Y-71940781D01*
X89759996Y-71871089D01*
X89761619Y-71866966D01*
X89762411Y-71865054D01*
X89770130Y-71846420D01*
X89810500Y-71643465D01*
X89810500Y-71436535D01*
X89770130Y-71233580D01*
X89690941Y-71042402D01*
X89650842Y-70982390D01*
X89629965Y-70915713D01*
X89648450Y-70848333D01*
X89700429Y-70801643D01*
X89753945Y-70789500D01*
X93145985Y-70789500D01*
X93213024Y-70809185D01*
G37*
%TD.AperFunction*%
%TA.AperFunction,NonConductor*%
G36*
X87713703Y-101280542D02*
G01*
X87720181Y-101286574D01*
X96615652Y-110182045D01*
X96649137Y-110243368D01*
X96644153Y-110313060D01*
X96602281Y-110368993D01*
X96536817Y-110393410D01*
X96471677Y-110380211D01*
X96422450Y-110355129D01*
X96422447Y-110355128D01*
X96422445Y-110355127D01*
X96257701Y-110301598D01*
X96257699Y-110301597D01*
X96257698Y-110301597D01*
X96107099Y-110277745D01*
X96086611Y-110274500D01*
X95913389Y-110274500D01*
X95892901Y-110277745D01*
X95742301Y-110301597D01*
X95577555Y-110355126D01*
X95577553Y-110355127D01*
X95554454Y-110366896D01*
X95485785Y-110379790D01*
X95421045Y-110353511D01*
X95410483Y-110344090D01*
X87544819Y-102478426D01*
X87511334Y-102417103D01*
X87508500Y-102390745D01*
X87508500Y-101374255D01*
X87528185Y-101307216D01*
X87580989Y-101261461D01*
X87650147Y-101251517D01*
X87713703Y-101280542D01*
G37*
%TD.AperFunction*%
%TA.AperFunction,NonConductor*%
G36*
X87212703Y-103279542D02*
G01*
X87219181Y-103285574D01*
X94115652Y-110182045D01*
X94149137Y-110243368D01*
X94144153Y-110313060D01*
X94102281Y-110368993D01*
X94036817Y-110393410D01*
X93971677Y-110380211D01*
X93922450Y-110355129D01*
X93922447Y-110355128D01*
X93922445Y-110355127D01*
X93757701Y-110301598D01*
X93757699Y-110301597D01*
X93757698Y-110301597D01*
X93607099Y-110277745D01*
X93586611Y-110274500D01*
X93413389Y-110274500D01*
X93392901Y-110277745D01*
X93242301Y-110301597D01*
X93077555Y-110355126D01*
X93077553Y-110355127D01*
X93054454Y-110366896D01*
X92985785Y-110379790D01*
X92921045Y-110353511D01*
X92910483Y-110344090D01*
X87043819Y-104477426D01*
X87010334Y-104416103D01*
X87007500Y-104389745D01*
X87007500Y-103373255D01*
X87027185Y-103306216D01*
X87079989Y-103260461D01*
X87149147Y-103250517D01*
X87212703Y-103279542D01*
G37*
%TD.AperFunction*%
%TA.AperFunction,NonConductor*%
G36*
X86711703Y-105278542D02*
G01*
X86718181Y-105284574D01*
X91615652Y-110182045D01*
X91649137Y-110243368D01*
X91644153Y-110313060D01*
X91602281Y-110368993D01*
X91536817Y-110393410D01*
X91471677Y-110380211D01*
X91422450Y-110355129D01*
X91422447Y-110355128D01*
X91422445Y-110355127D01*
X91257701Y-110301598D01*
X91257699Y-110301597D01*
X91257698Y-110301597D01*
X91107099Y-110277745D01*
X91086611Y-110274500D01*
X90913389Y-110274500D01*
X90892901Y-110277745D01*
X90742301Y-110301597D01*
X90577555Y-110355126D01*
X90577553Y-110355127D01*
X90554454Y-110366896D01*
X90485785Y-110379790D01*
X90421045Y-110353511D01*
X90410483Y-110344090D01*
X86542819Y-106476426D01*
X86509334Y-106415103D01*
X86506500Y-106388745D01*
X86506500Y-105372255D01*
X86526185Y-105305216D01*
X86578989Y-105259461D01*
X86648147Y-105249517D01*
X86711703Y-105278542D01*
G37*
%TD.AperFunction*%
%TA.AperFunction,NonConductor*%
G36*
X86210703Y-107277542D02*
G01*
X86217181Y-107283574D01*
X89115652Y-110182045D01*
X89149137Y-110243368D01*
X89144153Y-110313060D01*
X89102281Y-110368993D01*
X89036817Y-110393410D01*
X88971677Y-110380211D01*
X88922450Y-110355129D01*
X88922447Y-110355128D01*
X88922445Y-110355127D01*
X88757701Y-110301598D01*
X88757699Y-110301597D01*
X88757698Y-110301597D01*
X88607099Y-110277745D01*
X88586611Y-110274500D01*
X88413389Y-110274500D01*
X88392901Y-110277745D01*
X88242301Y-110301597D01*
X88077555Y-110355126D01*
X88077553Y-110355127D01*
X88054454Y-110366896D01*
X87985785Y-110379790D01*
X87921045Y-110353511D01*
X87910483Y-110344090D01*
X86041819Y-108475426D01*
X86008334Y-108414103D01*
X86005500Y-108387745D01*
X86005500Y-107371255D01*
X86025185Y-107304216D01*
X86077989Y-107258461D01*
X86147147Y-107248517D01*
X86210703Y-107277542D01*
G37*
%TD.AperFunction*%
%TA.AperFunction,NonConductor*%
G36*
X85709703Y-109276542D02*
G01*
X85716181Y-109282574D01*
X86615652Y-110182045D01*
X86649137Y-110243368D01*
X86644153Y-110313060D01*
X86602281Y-110368993D01*
X86536817Y-110393410D01*
X86471677Y-110380211D01*
X86422450Y-110355129D01*
X86422447Y-110355128D01*
X86422445Y-110355127D01*
X86257701Y-110301598D01*
X86257699Y-110301597D01*
X86257698Y-110301597D01*
X86107099Y-110277745D01*
X86086611Y-110274500D01*
X85913389Y-110274500D01*
X85892901Y-110277745D01*
X85742301Y-110301597D01*
X85742297Y-110301598D01*
X85666817Y-110326123D01*
X85596976Y-110328118D01*
X85537144Y-110292037D01*
X85506316Y-110229336D01*
X85504500Y-110208192D01*
X85504500Y-109370255D01*
X85524185Y-109303216D01*
X85576989Y-109257461D01*
X85646147Y-109247517D01*
X85709703Y-109276542D01*
G37*
%TD.AperFunction*%
M02*
