%TF.GenerationSoftware,KiCad,Pcbnew,9.0.7*%
%TF.CreationDate,2026-03-12T22:48:09-07:00*%
%TF.ProjectId,Solenoid control,536f6c65-6e6f-4696-9420-636f6e74726f,rev?*%
%TF.SameCoordinates,Original*%
%TF.FileFunction,Legend,Top*%
%TF.FilePolarity,Positive*%
%FSLAX46Y46*%
G04 Gerber Fmt 4.6, Leading zero omitted, Abs format (unit mm)*
G04 Created by KiCad (PCBNEW 9.0.7) date 2026-03-12 22:48:09*
%MOMM*%
%LPD*%
G01*
G04 APERTURE LIST*
%ADD10C,0.150000*%
%ADD11C,0.120000*%
G04 APERTURE END LIST*
D10*
X150234819Y-80238094D02*
X149234819Y-80238094D01*
X149234819Y-80238094D02*
X149234819Y-79999999D01*
X149234819Y-79999999D02*
X149282438Y-79857142D01*
X149282438Y-79857142D02*
X149377676Y-79761904D01*
X149377676Y-79761904D02*
X149472914Y-79714285D01*
X149472914Y-79714285D02*
X149663390Y-79666666D01*
X149663390Y-79666666D02*
X149806247Y-79666666D01*
X149806247Y-79666666D02*
X149996723Y-79714285D01*
X149996723Y-79714285D02*
X150091961Y-79761904D01*
X150091961Y-79761904D02*
X150187200Y-79857142D01*
X150187200Y-79857142D02*
X150234819Y-79999999D01*
X150234819Y-79999999D02*
X150234819Y-80238094D01*
X149330057Y-79285713D02*
X149282438Y-79238094D01*
X149282438Y-79238094D02*
X149234819Y-79142856D01*
X149234819Y-79142856D02*
X149234819Y-78904761D01*
X149234819Y-78904761D02*
X149282438Y-78809523D01*
X149282438Y-78809523D02*
X149330057Y-78761904D01*
X149330057Y-78761904D02*
X149425295Y-78714285D01*
X149425295Y-78714285D02*
X149520533Y-78714285D01*
X149520533Y-78714285D02*
X149663390Y-78761904D01*
X149663390Y-78761904D02*
X150234819Y-79333332D01*
X150234819Y-79333332D02*
X150234819Y-78714285D01*
X151354819Y-87381904D02*
X150354819Y-87381904D01*
X151354819Y-86810476D02*
X150783390Y-87239047D01*
X150354819Y-86810476D02*
X150926247Y-87381904D01*
X130450057Y-61555238D02*
X130402438Y-61650476D01*
X130402438Y-61650476D02*
X130307200Y-61745714D01*
X130307200Y-61745714D02*
X130164342Y-61888571D01*
X130164342Y-61888571D02*
X130116723Y-61983809D01*
X130116723Y-61983809D02*
X130116723Y-62079047D01*
X130354819Y-62031428D02*
X130307200Y-62126666D01*
X130307200Y-62126666D02*
X130211961Y-62221904D01*
X130211961Y-62221904D02*
X130021485Y-62269523D01*
X130021485Y-62269523D02*
X129688152Y-62269523D01*
X129688152Y-62269523D02*
X129497676Y-62221904D01*
X129497676Y-62221904D02*
X129402438Y-62126666D01*
X129402438Y-62126666D02*
X129354819Y-62031428D01*
X129354819Y-62031428D02*
X129354819Y-61840952D01*
X129354819Y-61840952D02*
X129402438Y-61745714D01*
X129402438Y-61745714D02*
X129497676Y-61650476D01*
X129497676Y-61650476D02*
X129688152Y-61602857D01*
X129688152Y-61602857D02*
X130021485Y-61602857D01*
X130021485Y-61602857D02*
X130211961Y-61650476D01*
X130211961Y-61650476D02*
X130307200Y-61745714D01*
X130307200Y-61745714D02*
X130354819Y-61840952D01*
X130354819Y-61840952D02*
X130354819Y-62031428D01*
X129354819Y-60698095D02*
X129354819Y-61174285D01*
X129354819Y-61174285D02*
X129831009Y-61221904D01*
X129831009Y-61221904D02*
X129783390Y-61174285D01*
X129783390Y-61174285D02*
X129735771Y-61079047D01*
X129735771Y-61079047D02*
X129735771Y-60840952D01*
X129735771Y-60840952D02*
X129783390Y-60745714D01*
X129783390Y-60745714D02*
X129831009Y-60698095D01*
X129831009Y-60698095D02*
X129926247Y-60650476D01*
X129926247Y-60650476D02*
X130164342Y-60650476D01*
X130164342Y-60650476D02*
X130259580Y-60698095D01*
X130259580Y-60698095D02*
X130307200Y-60745714D01*
X130307200Y-60745714D02*
X130354819Y-60840952D01*
X130354819Y-60840952D02*
X130354819Y-61079047D01*
X130354819Y-61079047D02*
X130307200Y-61174285D01*
X130307200Y-61174285D02*
X130259580Y-61221904D01*
X117523333Y-81084819D02*
X117190000Y-80608628D01*
X116951905Y-81084819D02*
X116951905Y-80084819D01*
X116951905Y-80084819D02*
X117332857Y-80084819D01*
X117332857Y-80084819D02*
X117428095Y-80132438D01*
X117428095Y-80132438D02*
X117475714Y-80180057D01*
X117475714Y-80180057D02*
X117523333Y-80275295D01*
X117523333Y-80275295D02*
X117523333Y-80418152D01*
X117523333Y-80418152D02*
X117475714Y-80513390D01*
X117475714Y-80513390D02*
X117428095Y-80561009D01*
X117428095Y-80561009D02*
X117332857Y-80608628D01*
X117332857Y-80608628D02*
X116951905Y-80608628D01*
X117856667Y-80084819D02*
X118475714Y-80084819D01*
X118475714Y-80084819D02*
X118142381Y-80465771D01*
X118142381Y-80465771D02*
X118285238Y-80465771D01*
X118285238Y-80465771D02*
X118380476Y-80513390D01*
X118380476Y-80513390D02*
X118428095Y-80561009D01*
X118428095Y-80561009D02*
X118475714Y-80656247D01*
X118475714Y-80656247D02*
X118475714Y-80894342D01*
X118475714Y-80894342D02*
X118428095Y-80989580D01*
X118428095Y-80989580D02*
X118380476Y-81037200D01*
X118380476Y-81037200D02*
X118285238Y-81084819D01*
X118285238Y-81084819D02*
X117999524Y-81084819D01*
X117999524Y-81084819D02*
X117904286Y-81037200D01*
X117904286Y-81037200D02*
X117856667Y-80989580D01*
X141324819Y-67976666D02*
X140848628Y-68309999D01*
X141324819Y-68548094D02*
X140324819Y-68548094D01*
X140324819Y-68548094D02*
X140324819Y-68167142D01*
X140324819Y-68167142D02*
X140372438Y-68071904D01*
X140372438Y-68071904D02*
X140420057Y-68024285D01*
X140420057Y-68024285D02*
X140515295Y-67976666D01*
X140515295Y-67976666D02*
X140658152Y-67976666D01*
X140658152Y-67976666D02*
X140753390Y-68024285D01*
X140753390Y-68024285D02*
X140801009Y-68071904D01*
X140801009Y-68071904D02*
X140848628Y-68167142D01*
X140848628Y-68167142D02*
X140848628Y-68548094D01*
X140324819Y-67119523D02*
X140324819Y-67309999D01*
X140324819Y-67309999D02*
X140372438Y-67405237D01*
X140372438Y-67405237D02*
X140420057Y-67452856D01*
X140420057Y-67452856D02*
X140562914Y-67548094D01*
X140562914Y-67548094D02*
X140753390Y-67595713D01*
X140753390Y-67595713D02*
X141134342Y-67595713D01*
X141134342Y-67595713D02*
X141229580Y-67548094D01*
X141229580Y-67548094D02*
X141277200Y-67500475D01*
X141277200Y-67500475D02*
X141324819Y-67405237D01*
X141324819Y-67405237D02*
X141324819Y-67214761D01*
X141324819Y-67214761D02*
X141277200Y-67119523D01*
X141277200Y-67119523D02*
X141229580Y-67071904D01*
X141229580Y-67071904D02*
X141134342Y-67024285D01*
X141134342Y-67024285D02*
X140896247Y-67024285D01*
X140896247Y-67024285D02*
X140801009Y-67071904D01*
X140801009Y-67071904D02*
X140753390Y-67119523D01*
X140753390Y-67119523D02*
X140705771Y-67214761D01*
X140705771Y-67214761D02*
X140705771Y-67405237D01*
X140705771Y-67405237D02*
X140753390Y-67500475D01*
X140753390Y-67500475D02*
X140801009Y-67548094D01*
X140801009Y-67548094D02*
X140896247Y-67595713D01*
X123850057Y-83095238D02*
X123802438Y-83190476D01*
X123802438Y-83190476D02*
X123707200Y-83285714D01*
X123707200Y-83285714D02*
X123564342Y-83428571D01*
X123564342Y-83428571D02*
X123516723Y-83523809D01*
X123516723Y-83523809D02*
X123516723Y-83619047D01*
X123754819Y-83571428D02*
X123707200Y-83666666D01*
X123707200Y-83666666D02*
X123611961Y-83761904D01*
X123611961Y-83761904D02*
X123421485Y-83809523D01*
X123421485Y-83809523D02*
X123088152Y-83809523D01*
X123088152Y-83809523D02*
X122897676Y-83761904D01*
X122897676Y-83761904D02*
X122802438Y-83666666D01*
X122802438Y-83666666D02*
X122754819Y-83571428D01*
X122754819Y-83571428D02*
X122754819Y-83380952D01*
X122754819Y-83380952D02*
X122802438Y-83285714D01*
X122802438Y-83285714D02*
X122897676Y-83190476D01*
X122897676Y-83190476D02*
X123088152Y-83142857D01*
X123088152Y-83142857D02*
X123421485Y-83142857D01*
X123421485Y-83142857D02*
X123611961Y-83190476D01*
X123611961Y-83190476D02*
X123707200Y-83285714D01*
X123707200Y-83285714D02*
X123754819Y-83380952D01*
X123754819Y-83380952D02*
X123754819Y-83571428D01*
X123088152Y-82285714D02*
X123754819Y-82285714D01*
X122707200Y-82523809D02*
X123421485Y-82761904D01*
X123421485Y-82761904D02*
X123421485Y-82142857D01*
X122850057Y-65095238D02*
X122802438Y-65190476D01*
X122802438Y-65190476D02*
X122707200Y-65285714D01*
X122707200Y-65285714D02*
X122564342Y-65428571D01*
X122564342Y-65428571D02*
X122516723Y-65523809D01*
X122516723Y-65523809D02*
X122516723Y-65619047D01*
X122754819Y-65571428D02*
X122707200Y-65666666D01*
X122707200Y-65666666D02*
X122611961Y-65761904D01*
X122611961Y-65761904D02*
X122421485Y-65809523D01*
X122421485Y-65809523D02*
X122088152Y-65809523D01*
X122088152Y-65809523D02*
X121897676Y-65761904D01*
X121897676Y-65761904D02*
X121802438Y-65666666D01*
X121802438Y-65666666D02*
X121754819Y-65571428D01*
X121754819Y-65571428D02*
X121754819Y-65380952D01*
X121754819Y-65380952D02*
X121802438Y-65285714D01*
X121802438Y-65285714D02*
X121897676Y-65190476D01*
X121897676Y-65190476D02*
X122088152Y-65142857D01*
X122088152Y-65142857D02*
X122421485Y-65142857D01*
X122421485Y-65142857D02*
X122611961Y-65190476D01*
X122611961Y-65190476D02*
X122707200Y-65285714D01*
X122707200Y-65285714D02*
X122754819Y-65380952D01*
X122754819Y-65380952D02*
X122754819Y-65571428D01*
X121754819Y-64285714D02*
X121754819Y-64476190D01*
X121754819Y-64476190D02*
X121802438Y-64571428D01*
X121802438Y-64571428D02*
X121850057Y-64619047D01*
X121850057Y-64619047D02*
X121992914Y-64714285D01*
X121992914Y-64714285D02*
X122183390Y-64761904D01*
X122183390Y-64761904D02*
X122564342Y-64761904D01*
X122564342Y-64761904D02*
X122659580Y-64714285D01*
X122659580Y-64714285D02*
X122707200Y-64666666D01*
X122707200Y-64666666D02*
X122754819Y-64571428D01*
X122754819Y-64571428D02*
X122754819Y-64380952D01*
X122754819Y-64380952D02*
X122707200Y-64285714D01*
X122707200Y-64285714D02*
X122659580Y-64238095D01*
X122659580Y-64238095D02*
X122564342Y-64190476D01*
X122564342Y-64190476D02*
X122326247Y-64190476D01*
X122326247Y-64190476D02*
X122231009Y-64238095D01*
X122231009Y-64238095D02*
X122183390Y-64285714D01*
X122183390Y-64285714D02*
X122135771Y-64380952D01*
X122135771Y-64380952D02*
X122135771Y-64571428D01*
X122135771Y-64571428D02*
X122183390Y-64666666D01*
X122183390Y-64666666D02*
X122231009Y-64714285D01*
X122231009Y-64714285D02*
X122326247Y-64761904D01*
X133416666Y-34334819D02*
X133416666Y-35049104D01*
X133416666Y-35049104D02*
X133369047Y-35191961D01*
X133369047Y-35191961D02*
X133273809Y-35287200D01*
X133273809Y-35287200D02*
X133130952Y-35334819D01*
X133130952Y-35334819D02*
X133035714Y-35334819D01*
X133797619Y-34334819D02*
X134416666Y-34334819D01*
X134416666Y-34334819D02*
X134083333Y-34715771D01*
X134083333Y-34715771D02*
X134226190Y-34715771D01*
X134226190Y-34715771D02*
X134321428Y-34763390D01*
X134321428Y-34763390D02*
X134369047Y-34811009D01*
X134369047Y-34811009D02*
X134416666Y-34906247D01*
X134416666Y-34906247D02*
X134416666Y-35144342D01*
X134416666Y-35144342D02*
X134369047Y-35239580D01*
X134369047Y-35239580D02*
X134321428Y-35287200D01*
X134321428Y-35287200D02*
X134226190Y-35334819D01*
X134226190Y-35334819D02*
X133940476Y-35334819D01*
X133940476Y-35334819D02*
X133845238Y-35287200D01*
X133845238Y-35287200D02*
X133797619Y-35239580D01*
X118563333Y-102584819D02*
X118230000Y-102108628D01*
X117991905Y-102584819D02*
X117991905Y-101584819D01*
X117991905Y-101584819D02*
X118372857Y-101584819D01*
X118372857Y-101584819D02*
X118468095Y-101632438D01*
X118468095Y-101632438D02*
X118515714Y-101680057D01*
X118515714Y-101680057D02*
X118563333Y-101775295D01*
X118563333Y-101775295D02*
X118563333Y-101918152D01*
X118563333Y-101918152D02*
X118515714Y-102013390D01*
X118515714Y-102013390D02*
X118468095Y-102061009D01*
X118468095Y-102061009D02*
X118372857Y-102108628D01*
X118372857Y-102108628D02*
X117991905Y-102108628D01*
X119515714Y-102584819D02*
X118944286Y-102584819D01*
X119230000Y-102584819D02*
X119230000Y-101584819D01*
X119230000Y-101584819D02*
X119134762Y-101727676D01*
X119134762Y-101727676D02*
X119039524Y-101822914D01*
X119039524Y-101822914D02*
X118944286Y-101870533D01*
X124850057Y-104595238D02*
X124802438Y-104690476D01*
X124802438Y-104690476D02*
X124707200Y-104785714D01*
X124707200Y-104785714D02*
X124564342Y-104928571D01*
X124564342Y-104928571D02*
X124516723Y-105023809D01*
X124516723Y-105023809D02*
X124516723Y-105119047D01*
X124754819Y-105071428D02*
X124707200Y-105166666D01*
X124707200Y-105166666D02*
X124611961Y-105261904D01*
X124611961Y-105261904D02*
X124421485Y-105309523D01*
X124421485Y-105309523D02*
X124088152Y-105309523D01*
X124088152Y-105309523D02*
X123897676Y-105261904D01*
X123897676Y-105261904D02*
X123802438Y-105166666D01*
X123802438Y-105166666D02*
X123754819Y-105071428D01*
X123754819Y-105071428D02*
X123754819Y-104880952D01*
X123754819Y-104880952D02*
X123802438Y-104785714D01*
X123802438Y-104785714D02*
X123897676Y-104690476D01*
X123897676Y-104690476D02*
X124088152Y-104642857D01*
X124088152Y-104642857D02*
X124421485Y-104642857D01*
X124421485Y-104642857D02*
X124611961Y-104690476D01*
X124611961Y-104690476D02*
X124707200Y-104785714D01*
X124707200Y-104785714D02*
X124754819Y-104880952D01*
X124754819Y-104880952D02*
X124754819Y-105071428D01*
X123850057Y-104261904D02*
X123802438Y-104214285D01*
X123802438Y-104214285D02*
X123754819Y-104119047D01*
X123754819Y-104119047D02*
X123754819Y-103880952D01*
X123754819Y-103880952D02*
X123802438Y-103785714D01*
X123802438Y-103785714D02*
X123850057Y-103738095D01*
X123850057Y-103738095D02*
X123945295Y-103690476D01*
X123945295Y-103690476D02*
X124040533Y-103690476D01*
X124040533Y-103690476D02*
X124183390Y-103738095D01*
X124183390Y-103738095D02*
X124754819Y-104309523D01*
X124754819Y-104309523D02*
X124754819Y-103690476D01*
X116523333Y-63084819D02*
X116190000Y-62608628D01*
X115951905Y-63084819D02*
X115951905Y-62084819D01*
X115951905Y-62084819D02*
X116332857Y-62084819D01*
X116332857Y-62084819D02*
X116428095Y-62132438D01*
X116428095Y-62132438D02*
X116475714Y-62180057D01*
X116475714Y-62180057D02*
X116523333Y-62275295D01*
X116523333Y-62275295D02*
X116523333Y-62418152D01*
X116523333Y-62418152D02*
X116475714Y-62513390D01*
X116475714Y-62513390D02*
X116428095Y-62561009D01*
X116428095Y-62561009D02*
X116332857Y-62608628D01*
X116332857Y-62608628D02*
X115951905Y-62608628D01*
X117428095Y-62084819D02*
X116951905Y-62084819D01*
X116951905Y-62084819D02*
X116904286Y-62561009D01*
X116904286Y-62561009D02*
X116951905Y-62513390D01*
X116951905Y-62513390D02*
X117047143Y-62465771D01*
X117047143Y-62465771D02*
X117285238Y-62465771D01*
X117285238Y-62465771D02*
X117380476Y-62513390D01*
X117380476Y-62513390D02*
X117428095Y-62561009D01*
X117428095Y-62561009D02*
X117475714Y-62656247D01*
X117475714Y-62656247D02*
X117475714Y-62894342D01*
X117475714Y-62894342D02*
X117428095Y-62989580D01*
X117428095Y-62989580D02*
X117380476Y-63037200D01*
X117380476Y-63037200D02*
X117285238Y-63084819D01*
X117285238Y-63084819D02*
X117047143Y-63084819D01*
X117047143Y-63084819D02*
X116951905Y-63037200D01*
X116951905Y-63037200D02*
X116904286Y-62989580D01*
X150234819Y-102238094D02*
X149234819Y-102238094D01*
X149234819Y-102238094D02*
X149234819Y-101999999D01*
X149234819Y-101999999D02*
X149282438Y-101857142D01*
X149282438Y-101857142D02*
X149377676Y-101761904D01*
X149377676Y-101761904D02*
X149472914Y-101714285D01*
X149472914Y-101714285D02*
X149663390Y-101666666D01*
X149663390Y-101666666D02*
X149806247Y-101666666D01*
X149806247Y-101666666D02*
X149996723Y-101714285D01*
X149996723Y-101714285D02*
X150091961Y-101761904D01*
X150091961Y-101761904D02*
X150187200Y-101857142D01*
X150187200Y-101857142D02*
X150234819Y-101999999D01*
X150234819Y-101999999D02*
X150234819Y-102238094D01*
X150234819Y-100714285D02*
X150234819Y-101285713D01*
X150234819Y-100999999D02*
X149234819Y-100999999D01*
X149234819Y-100999999D02*
X149377676Y-101095237D01*
X149377676Y-101095237D02*
X149472914Y-101190475D01*
X149472914Y-101190475D02*
X149520533Y-101285713D01*
X151354819Y-109381904D02*
X150354819Y-109381904D01*
X151354819Y-108810476D02*
X150783390Y-109239047D01*
X150354819Y-108810476D02*
X150926247Y-109381904D01*
X143324819Y-107666666D02*
X142848628Y-107999999D01*
X143324819Y-108238094D02*
X142324819Y-108238094D01*
X142324819Y-108238094D02*
X142324819Y-107857142D01*
X142324819Y-107857142D02*
X142372438Y-107761904D01*
X142372438Y-107761904D02*
X142420057Y-107714285D01*
X142420057Y-107714285D02*
X142515295Y-107666666D01*
X142515295Y-107666666D02*
X142658152Y-107666666D01*
X142658152Y-107666666D02*
X142753390Y-107714285D01*
X142753390Y-107714285D02*
X142801009Y-107761904D01*
X142801009Y-107761904D02*
X142848628Y-107857142D01*
X142848628Y-107857142D02*
X142848628Y-108238094D01*
X142420057Y-107285713D02*
X142372438Y-107238094D01*
X142372438Y-107238094D02*
X142324819Y-107142856D01*
X142324819Y-107142856D02*
X142324819Y-106904761D01*
X142324819Y-106904761D02*
X142372438Y-106809523D01*
X142372438Y-106809523D02*
X142420057Y-106761904D01*
X142420057Y-106761904D02*
X142515295Y-106714285D01*
X142515295Y-106714285D02*
X142610533Y-106714285D01*
X142610533Y-106714285D02*
X142753390Y-106761904D01*
X142753390Y-106761904D02*
X143324819Y-107333332D01*
X143324819Y-107333332D02*
X143324819Y-106714285D01*
X131400057Y-79595238D02*
X131352438Y-79690476D01*
X131352438Y-79690476D02*
X131257200Y-79785714D01*
X131257200Y-79785714D02*
X131114342Y-79928571D01*
X131114342Y-79928571D02*
X131066723Y-80023809D01*
X131066723Y-80023809D02*
X131066723Y-80119047D01*
X131304819Y-80071428D02*
X131257200Y-80166666D01*
X131257200Y-80166666D02*
X131161961Y-80261904D01*
X131161961Y-80261904D02*
X130971485Y-80309523D01*
X130971485Y-80309523D02*
X130638152Y-80309523D01*
X130638152Y-80309523D02*
X130447676Y-80261904D01*
X130447676Y-80261904D02*
X130352438Y-80166666D01*
X130352438Y-80166666D02*
X130304819Y-80071428D01*
X130304819Y-80071428D02*
X130304819Y-79880952D01*
X130304819Y-79880952D02*
X130352438Y-79785714D01*
X130352438Y-79785714D02*
X130447676Y-79690476D01*
X130447676Y-79690476D02*
X130638152Y-79642857D01*
X130638152Y-79642857D02*
X130971485Y-79642857D01*
X130971485Y-79642857D02*
X131161961Y-79690476D01*
X131161961Y-79690476D02*
X131257200Y-79785714D01*
X131257200Y-79785714D02*
X131304819Y-79880952D01*
X131304819Y-79880952D02*
X131304819Y-80071428D01*
X130304819Y-79309523D02*
X130304819Y-78690476D01*
X130304819Y-78690476D02*
X130685771Y-79023809D01*
X130685771Y-79023809D02*
X130685771Y-78880952D01*
X130685771Y-78880952D02*
X130733390Y-78785714D01*
X130733390Y-78785714D02*
X130781009Y-78738095D01*
X130781009Y-78738095D02*
X130876247Y-78690476D01*
X130876247Y-78690476D02*
X131114342Y-78690476D01*
X131114342Y-78690476D02*
X131209580Y-78738095D01*
X131209580Y-78738095D02*
X131257200Y-78785714D01*
X131257200Y-78785714D02*
X131304819Y-78880952D01*
X131304819Y-78880952D02*
X131304819Y-79166666D01*
X131304819Y-79166666D02*
X131257200Y-79261904D01*
X131257200Y-79261904D02*
X131209580Y-79309523D01*
X150234819Y-59238094D02*
X149234819Y-59238094D01*
X149234819Y-59238094D02*
X149234819Y-58999999D01*
X149234819Y-58999999D02*
X149282438Y-58857142D01*
X149282438Y-58857142D02*
X149377676Y-58761904D01*
X149377676Y-58761904D02*
X149472914Y-58714285D01*
X149472914Y-58714285D02*
X149663390Y-58666666D01*
X149663390Y-58666666D02*
X149806247Y-58666666D01*
X149806247Y-58666666D02*
X149996723Y-58714285D01*
X149996723Y-58714285D02*
X150091961Y-58761904D01*
X150091961Y-58761904D02*
X150187200Y-58857142D01*
X150187200Y-58857142D02*
X150234819Y-58999999D01*
X150234819Y-58999999D02*
X150234819Y-59238094D01*
X149234819Y-58333332D02*
X149234819Y-57714285D01*
X149234819Y-57714285D02*
X149615771Y-58047618D01*
X149615771Y-58047618D02*
X149615771Y-57904761D01*
X149615771Y-57904761D02*
X149663390Y-57809523D01*
X149663390Y-57809523D02*
X149711009Y-57761904D01*
X149711009Y-57761904D02*
X149806247Y-57714285D01*
X149806247Y-57714285D02*
X150044342Y-57714285D01*
X150044342Y-57714285D02*
X150139580Y-57761904D01*
X150139580Y-57761904D02*
X150187200Y-57809523D01*
X150187200Y-57809523D02*
X150234819Y-57904761D01*
X150234819Y-57904761D02*
X150234819Y-58190475D01*
X150234819Y-58190475D02*
X150187200Y-58285713D01*
X150187200Y-58285713D02*
X150139580Y-58333332D01*
X151354819Y-66381904D02*
X150354819Y-66381904D01*
X151354819Y-65810476D02*
X150783390Y-66239047D01*
X150354819Y-65810476D02*
X150926247Y-66381904D01*
X142324819Y-85976666D02*
X141848628Y-86309999D01*
X142324819Y-86548094D02*
X141324819Y-86548094D01*
X141324819Y-86548094D02*
X141324819Y-86167142D01*
X141324819Y-86167142D02*
X141372438Y-86071904D01*
X141372438Y-86071904D02*
X141420057Y-86024285D01*
X141420057Y-86024285D02*
X141515295Y-85976666D01*
X141515295Y-85976666D02*
X141658152Y-85976666D01*
X141658152Y-85976666D02*
X141753390Y-86024285D01*
X141753390Y-86024285D02*
X141801009Y-86071904D01*
X141801009Y-86071904D02*
X141848628Y-86167142D01*
X141848628Y-86167142D02*
X141848628Y-86548094D01*
X141658152Y-85119523D02*
X142324819Y-85119523D01*
X141277200Y-85357618D02*
X141991485Y-85595713D01*
X141991485Y-85595713D02*
X141991485Y-84976666D01*
X132450057Y-101055238D02*
X132402438Y-101150476D01*
X132402438Y-101150476D02*
X132307200Y-101245714D01*
X132307200Y-101245714D02*
X132164342Y-101388571D01*
X132164342Y-101388571D02*
X132116723Y-101483809D01*
X132116723Y-101483809D02*
X132116723Y-101579047D01*
X132354819Y-101531428D02*
X132307200Y-101626666D01*
X132307200Y-101626666D02*
X132211961Y-101721904D01*
X132211961Y-101721904D02*
X132021485Y-101769523D01*
X132021485Y-101769523D02*
X131688152Y-101769523D01*
X131688152Y-101769523D02*
X131497676Y-101721904D01*
X131497676Y-101721904D02*
X131402438Y-101626666D01*
X131402438Y-101626666D02*
X131354819Y-101531428D01*
X131354819Y-101531428D02*
X131354819Y-101340952D01*
X131354819Y-101340952D02*
X131402438Y-101245714D01*
X131402438Y-101245714D02*
X131497676Y-101150476D01*
X131497676Y-101150476D02*
X131688152Y-101102857D01*
X131688152Y-101102857D02*
X132021485Y-101102857D01*
X132021485Y-101102857D02*
X132211961Y-101150476D01*
X132211961Y-101150476D02*
X132307200Y-101245714D01*
X132307200Y-101245714D02*
X132354819Y-101340952D01*
X132354819Y-101340952D02*
X132354819Y-101531428D01*
X132354819Y-100150476D02*
X132354819Y-100721904D01*
X132354819Y-100436190D02*
X131354819Y-100436190D01*
X131354819Y-100436190D02*
X131497676Y-100531428D01*
X131497676Y-100531428D02*
X131592914Y-100626666D01*
X131592914Y-100626666D02*
X131640533Y-100721904D01*
X167834819Y-76583333D02*
X168549104Y-76583333D01*
X168549104Y-76583333D02*
X168691961Y-76630952D01*
X168691961Y-76630952D02*
X168787200Y-76726190D01*
X168787200Y-76726190D02*
X168834819Y-76869047D01*
X168834819Y-76869047D02*
X168834819Y-76964285D01*
X168834819Y-75583333D02*
X168834819Y-76154761D01*
X168834819Y-75869047D02*
X167834819Y-75869047D01*
X167834819Y-75869047D02*
X167977676Y-75964285D01*
X167977676Y-75964285D02*
X168072914Y-76059523D01*
X168072914Y-76059523D02*
X168120533Y-76154761D01*
X95665714Y-53929104D02*
X96141904Y-53929104D01*
X95570476Y-54214819D02*
X95903809Y-53214819D01*
X95903809Y-53214819D02*
X96237142Y-54214819D01*
X97094285Y-54214819D02*
X96522857Y-54214819D01*
X96808571Y-54214819D02*
X96808571Y-53214819D01*
X96808571Y-53214819D02*
X96713333Y-53357676D01*
X96713333Y-53357676D02*
X96618095Y-53452914D01*
X96618095Y-53452914D02*
X96522857Y-53500533D01*
X95118095Y-93854819D02*
X95118095Y-94664342D01*
X95118095Y-94664342D02*
X95165714Y-94759580D01*
X95165714Y-94759580D02*
X95213333Y-94807200D01*
X95213333Y-94807200D02*
X95308571Y-94854819D01*
X95308571Y-94854819D02*
X95499047Y-94854819D01*
X95499047Y-94854819D02*
X95594285Y-94807200D01*
X95594285Y-94807200D02*
X95641904Y-94759580D01*
X95641904Y-94759580D02*
X95689523Y-94664342D01*
X95689523Y-94664342D02*
X95689523Y-93854819D01*
X96118095Y-94807200D02*
X96260952Y-94854819D01*
X96260952Y-94854819D02*
X96499047Y-94854819D01*
X96499047Y-94854819D02*
X96594285Y-94807200D01*
X96594285Y-94807200D02*
X96641904Y-94759580D01*
X96641904Y-94759580D02*
X96689523Y-94664342D01*
X96689523Y-94664342D02*
X96689523Y-94569104D01*
X96689523Y-94569104D02*
X96641904Y-94473866D01*
X96641904Y-94473866D02*
X96594285Y-94426247D01*
X96594285Y-94426247D02*
X96499047Y-94378628D01*
X96499047Y-94378628D02*
X96308571Y-94331009D01*
X96308571Y-94331009D02*
X96213333Y-94283390D01*
X96213333Y-94283390D02*
X96165714Y-94235771D01*
X96165714Y-94235771D02*
X96118095Y-94140533D01*
X96118095Y-94140533D02*
X96118095Y-94045295D01*
X96118095Y-94045295D02*
X96165714Y-93950057D01*
X96165714Y-93950057D02*
X96213333Y-93902438D01*
X96213333Y-93902438D02*
X96308571Y-93854819D01*
X96308571Y-93854819D02*
X96546666Y-93854819D01*
X96546666Y-93854819D02*
X96689523Y-93902438D01*
X97451428Y-94331009D02*
X97594285Y-94378628D01*
X97594285Y-94378628D02*
X97641904Y-94426247D01*
X97641904Y-94426247D02*
X97689523Y-94521485D01*
X97689523Y-94521485D02*
X97689523Y-94664342D01*
X97689523Y-94664342D02*
X97641904Y-94759580D01*
X97641904Y-94759580D02*
X97594285Y-94807200D01*
X97594285Y-94807200D02*
X97499047Y-94854819D01*
X97499047Y-94854819D02*
X97118095Y-94854819D01*
X97118095Y-94854819D02*
X97118095Y-93854819D01*
X97118095Y-93854819D02*
X97451428Y-93854819D01*
X97451428Y-93854819D02*
X97546666Y-93902438D01*
X97546666Y-93902438D02*
X97594285Y-93950057D01*
X97594285Y-93950057D02*
X97641904Y-94045295D01*
X97641904Y-94045295D02*
X97641904Y-94140533D01*
X97641904Y-94140533D02*
X97594285Y-94235771D01*
X97594285Y-94235771D02*
X97546666Y-94283390D01*
X97546666Y-94283390D02*
X97451428Y-94331009D01*
X97451428Y-94331009D02*
X97118095Y-94331009D01*
X95666666Y-113754819D02*
X95666666Y-114469104D01*
X95666666Y-114469104D02*
X95619047Y-114611961D01*
X95619047Y-114611961D02*
X95523809Y-114707200D01*
X95523809Y-114707200D02*
X95380952Y-114754819D01*
X95380952Y-114754819D02*
X95285714Y-114754819D01*
X96095238Y-113850057D02*
X96142857Y-113802438D01*
X96142857Y-113802438D02*
X96238095Y-113754819D01*
X96238095Y-113754819D02*
X96476190Y-113754819D01*
X96476190Y-113754819D02*
X96571428Y-113802438D01*
X96571428Y-113802438D02*
X96619047Y-113850057D01*
X96619047Y-113850057D02*
X96666666Y-113945295D01*
X96666666Y-113945295D02*
X96666666Y-114040533D01*
X96666666Y-114040533D02*
X96619047Y-114183390D01*
X96619047Y-114183390D02*
X96047619Y-114754819D01*
X96047619Y-114754819D02*
X96666666Y-114754819D01*
D11*
%TO.C,D2*%
X150780000Y-82705000D02*
X156220000Y-82705000D01*
X150780000Y-82825000D02*
X156220000Y-82825000D01*
X150780000Y-82945000D02*
X156220000Y-82945000D01*
X153500000Y-73720000D02*
X153500000Y-74630000D01*
X153500000Y-85280000D02*
X153500000Y-84370000D01*
X150780000Y-84370000D02*
X156220000Y-84370000D01*
X156220000Y-74630000D01*
X150780000Y-74630000D01*
X150780000Y-84370000D01*
%TO.C,Q5*%
X130740000Y-56350000D02*
X135360000Y-56350000D01*
X130740000Y-59610000D02*
X132120000Y-59610000D01*
X130740000Y-63310000D02*
X132120000Y-63310000D01*
X130740000Y-66570000D02*
X130740000Y-56350000D01*
X132120000Y-66570000D02*
X132120000Y-56350000D01*
X135360000Y-56350000D02*
X135360000Y-66570000D01*
X135360000Y-66570000D02*
X130740000Y-66570000D01*
%TO.C,R3*%
X114420000Y-81630000D02*
X120960000Y-81630000D01*
X114420000Y-81960000D02*
X114420000Y-81630000D01*
X114420000Y-84040000D02*
X114420000Y-84370000D01*
X114420000Y-84370000D02*
X120960000Y-84370000D01*
X120960000Y-81630000D02*
X120960000Y-81960000D01*
X120960000Y-84370000D02*
X120960000Y-84040000D01*
%TO.C,R6*%
X137130000Y-64540000D02*
X137130000Y-71080000D01*
X137130000Y-71080000D02*
X137460000Y-71080000D01*
X137460000Y-64540000D02*
X137130000Y-64540000D01*
X139540000Y-64540000D02*
X139870000Y-64540000D01*
X139870000Y-64540000D02*
X139870000Y-71080000D01*
X139870000Y-71080000D02*
X139540000Y-71080000D01*
%TO.C,Q4*%
X128710000Y-84800000D02*
X128710000Y-81200000D01*
X124260000Y-83000000D02*
G75*
G02*
X128698478Y-81161522I2600000J0D01*
G01*
X128698478Y-84838478D02*
G75*
G02*
X124259999Y-83000000I-1838478J1838478D01*
G01*
%TO.C,Q6*%
X127710000Y-66800000D02*
X127710000Y-63200000D01*
X123260000Y-65000000D02*
G75*
G02*
X127698478Y-63161522I2600000J0D01*
G01*
X127698478Y-66838478D02*
G75*
G02*
X123259999Y-65000000I-1838478J1838478D01*
G01*
%TO.C,J3*%
X125880000Y-35880000D02*
X141620000Y-35880000D01*
X125880000Y-39500000D02*
X127120000Y-39500000D01*
X125880000Y-40500000D02*
X127120000Y-40500000D01*
X125880000Y-41800000D02*
X127120000Y-41800000D01*
X125880000Y-43920000D02*
X125880000Y-35880000D01*
X128700000Y-43920000D02*
X125880000Y-43920000D01*
X130880000Y-39500000D02*
X132188000Y-39500000D01*
X130880000Y-40500000D02*
X132188000Y-40500000D01*
X130880000Y-41800000D02*
X133457000Y-41800000D01*
X134543000Y-41800000D02*
X138457000Y-41800000D01*
X135812000Y-39500000D02*
X137188000Y-39500000D01*
X135812000Y-40500000D02*
X137188000Y-40500000D01*
X139543000Y-41800000D02*
X141620000Y-41800000D01*
X140812000Y-39500000D02*
X141620000Y-39500000D01*
X140812000Y-40500000D02*
X141620000Y-40500000D01*
X141620000Y-35880000D02*
X141620000Y-43920000D01*
X141620000Y-43920000D02*
X129300000Y-43920000D01*
X129440000Y-44530000D02*
X128560000Y-44530000D01*
X129000000Y-43920000D01*
X129440000Y-44530000D01*
G36*
X129440000Y-44530000D02*
G01*
X128560000Y-44530000D01*
X129000000Y-43920000D01*
X129440000Y-44530000D01*
G37*
%TO.C,R1*%
X115460000Y-103130000D02*
X122000000Y-103130000D01*
X115460000Y-103460000D02*
X115460000Y-103130000D01*
X115460000Y-105540000D02*
X115460000Y-105870000D01*
X115460000Y-105870000D02*
X122000000Y-105870000D01*
X122000000Y-103130000D02*
X122000000Y-103460000D01*
X122000000Y-105870000D02*
X122000000Y-105540000D01*
%TO.C,Q2*%
X129710000Y-106300000D02*
X129710000Y-102700000D01*
X125260000Y-104500000D02*
G75*
G02*
X129698478Y-102661522I2600000J0D01*
G01*
X129698478Y-106338478D02*
G75*
G02*
X125259999Y-104500000I-1838478J1838478D01*
G01*
%TO.C,R5*%
X113420000Y-63630000D02*
X119960000Y-63630000D01*
X113420000Y-63960000D02*
X113420000Y-63630000D01*
X113420000Y-66040000D02*
X113420000Y-66370000D01*
X113420000Y-66370000D02*
X119960000Y-66370000D01*
X119960000Y-63630000D02*
X119960000Y-63960000D01*
X119960000Y-66370000D02*
X119960000Y-66040000D01*
%TO.C,D1*%
X150780000Y-104705000D02*
X156220000Y-104705000D01*
X150780000Y-104825000D02*
X156220000Y-104825000D01*
X150780000Y-104945000D02*
X156220000Y-104945000D01*
X153500000Y-95720000D02*
X153500000Y-96630000D01*
X153500000Y-107280000D02*
X153500000Y-106370000D01*
X150780000Y-106370000D02*
X156220000Y-106370000D01*
X156220000Y-96630000D01*
X150780000Y-96630000D01*
X150780000Y-106370000D01*
%TO.C,R2*%
X139130000Y-104230000D02*
X139130000Y-110770000D01*
X139130000Y-110770000D02*
X139460000Y-110770000D01*
X139460000Y-104230000D02*
X139130000Y-104230000D01*
X141540000Y-104230000D02*
X141870000Y-104230000D01*
X141870000Y-104230000D02*
X141870000Y-110770000D01*
X141870000Y-110770000D02*
X141540000Y-110770000D01*
%TO.C,Q3*%
X131690000Y-74390000D02*
X136310000Y-74390000D01*
X131690000Y-77650000D02*
X133070000Y-77650000D01*
X131690000Y-81350000D02*
X133070000Y-81350000D01*
X131690000Y-84610000D02*
X131690000Y-74390000D01*
X133070000Y-84610000D02*
X133070000Y-74390000D01*
X136310000Y-74390000D02*
X136310000Y-84610000D01*
X136310000Y-84610000D02*
X131690000Y-84610000D01*
%TO.C,D3*%
X150780000Y-61705000D02*
X156220000Y-61705000D01*
X150780000Y-61825000D02*
X156220000Y-61825000D01*
X150780000Y-61945000D02*
X156220000Y-61945000D01*
X153500000Y-52720000D02*
X153500000Y-53630000D01*
X153500000Y-64280000D02*
X153500000Y-63370000D01*
X150780000Y-63370000D02*
X156220000Y-63370000D01*
X156220000Y-53630000D01*
X150780000Y-53630000D01*
X150780000Y-63370000D01*
%TO.C,R4*%
X138130000Y-82540000D02*
X138130000Y-89080000D01*
X138130000Y-89080000D02*
X138460000Y-89080000D01*
X138460000Y-82540000D02*
X138130000Y-82540000D01*
X140540000Y-82540000D02*
X140870000Y-82540000D01*
X140870000Y-82540000D02*
X140870000Y-89080000D01*
X140870000Y-89080000D02*
X140540000Y-89080000D01*
%TO.C,Q1*%
X132740000Y-95850000D02*
X137360000Y-95850000D01*
X132740000Y-99110000D02*
X134120000Y-99110000D01*
X132740000Y-102810000D02*
X134120000Y-102810000D01*
X132740000Y-106070000D02*
X132740000Y-95850000D01*
X134120000Y-106070000D02*
X134120000Y-95850000D01*
X137360000Y-95850000D02*
X137360000Y-106070000D01*
X137360000Y-106070000D02*
X132740000Y-106070000D01*
%TO.C,J1*%
X169380000Y-68380000D02*
X177420000Y-68380000D01*
X169380000Y-84120000D02*
X169380000Y-68380000D01*
X173000000Y-69188000D02*
X173000000Y-68380000D01*
X173000000Y-74188000D02*
X173000000Y-72812000D01*
X173000000Y-79120000D02*
X173000000Y-77812000D01*
X173000000Y-84120000D02*
X173000000Y-82880000D01*
X174000000Y-69188000D02*
X174000000Y-68380000D01*
X174000000Y-74188000D02*
X174000000Y-72812000D01*
X174000000Y-79120000D02*
X174000000Y-77812000D01*
X174000000Y-84120000D02*
X174000000Y-82880000D01*
X175300000Y-70457000D02*
X175300000Y-68380000D01*
X175300000Y-75457000D02*
X175300000Y-71543000D01*
X175300000Y-79120000D02*
X175300000Y-76543000D01*
X175300000Y-84120000D02*
X175300000Y-82880000D01*
X177420000Y-68380000D02*
X177420000Y-80700000D01*
X177420000Y-81300000D02*
X177420000Y-84120000D01*
X177420000Y-84120000D02*
X169380000Y-84120000D01*
X178030000Y-81440000D02*
X177420000Y-81000000D01*
X178030000Y-80560000D01*
X178030000Y-81440000D01*
G36*
X178030000Y-81440000D02*
G01*
X177420000Y-81000000D01*
X178030000Y-80560000D01*
X178030000Y-81440000D01*
G37*
%TO.C,A1*%
X87360000Y-54900000D02*
X87360000Y-57570000D01*
X87360000Y-60110000D02*
X87360000Y-98340000D01*
X87360000Y-98340000D02*
X92440000Y-98340000D01*
X90030000Y-57570000D02*
X87360000Y-57570000D01*
X90030000Y-60110000D02*
X87360000Y-60110000D01*
X90030000Y-60110000D02*
X90030000Y-57570000D01*
X90030000Y-60110000D02*
X90030000Y-95670000D01*
X90030000Y-95670000D02*
X87360000Y-95670000D01*
X92440000Y-90460000D02*
X100320000Y-90460000D01*
X92440000Y-100880000D02*
X92440000Y-90460000D01*
X100320000Y-90460000D02*
X100320000Y-100880000D01*
X100320000Y-100880000D02*
X92440000Y-100880000D01*
X102730000Y-57570000D02*
X102730000Y-95670000D01*
X102730000Y-57570000D02*
X105400000Y-57570000D01*
X102730000Y-95670000D02*
X105400000Y-95670000D01*
X105400000Y-54900000D02*
X87360000Y-54900000D01*
X105400000Y-98340000D02*
X100320000Y-98340000D01*
X105400000Y-98340000D02*
X105400000Y-54900000D01*
%TO.C,J2*%
X83390000Y-110690000D02*
X84390000Y-110690000D01*
X83890000Y-111500000D02*
X83390000Y-111500000D01*
X83890000Y-112710000D02*
X83890000Y-111500000D01*
X84390000Y-110690000D02*
X84390000Y-109190000D01*
X107610000Y-110690000D02*
X107610000Y-109190000D01*
X108110000Y-111500000D02*
X108110000Y-112710000D01*
X108110000Y-112710000D02*
X83890000Y-112710000D01*
X108610000Y-110690000D02*
X107610000Y-110690000D01*
X108610000Y-111500000D02*
X108110000Y-111500000D01*
X108910000Y-108890000D02*
X106410000Y-108890000D01*
X108910000Y-111390000D02*
X108910000Y-108890000D01*
X108610000Y-113210000D02*
X83390000Y-113210000D01*
X83390000Y-109190000D01*
X108610000Y-109190000D01*
X108610000Y-113210000D01*
%TD*%
M02*
